%TF.GenerationSoftware,KiCad,Pcbnew,7.0.1*%
%TF.CreationDate,2023-06-15T13:01:31-07:00*%
%TF.ProjectId,Full-Flight-Computer,46756c6c-2d46-46c6-9967-68742d436f6d,1.0*%
%TF.SameCoordinates,Original*%
%TF.FileFunction,Copper,L1,Top*%
%TF.FilePolarity,Positive*%
%FSLAX46Y46*%
G04 Gerber Fmt 4.6, Leading zero omitted, Abs format (unit mm)*
G04 Created by KiCad (PCBNEW 7.0.1) date 2023-06-15 13:01:31*
%MOMM*%
%LPD*%
G01*
G04 APERTURE LIST*
G04 Aperture macros list*
%AMRoundRect*
0 Rectangle with rounded corners*
0 $1 Rounding radius*
0 $2 $3 $4 $5 $6 $7 $8 $9 X,Y pos of 4 corners*
0 Add a 4 corners polygon primitive as box body*
4,1,4,$2,$3,$4,$5,$6,$7,$8,$9,$2,$3,0*
0 Add four circle primitives for the rounded corners*
1,1,$1+$1,$2,$3*
1,1,$1+$1,$4,$5*
1,1,$1+$1,$6,$7*
1,1,$1+$1,$8,$9*
0 Add four rect primitives between the rounded corners*
20,1,$1+$1,$2,$3,$4,$5,0*
20,1,$1+$1,$4,$5,$6,$7,0*
20,1,$1+$1,$6,$7,$8,$9,0*
20,1,$1+$1,$8,$9,$2,$3,0*%
%AMFreePoly0*
4,1,21,2.033536,0.970036,2.035000,0.966500,2.035000,-0.966500,2.033536,-0.970036,2.030000,-0.971500,-1.000000,-0.971500,-1.003536,-0.970036,-1.005000,-0.966500,-1.005000,-0.385000,-2.500000,-0.385000,-2.503536,-0.383536,-2.505000,-0.380000,-2.505000,0.380000,-2.503536,0.383536,-2.500000,0.385000,-1.005000,0.385000,-1.005000,0.966500,-1.003536,0.970036,-1.000000,0.971500,2.030000,0.971500,
2.033536,0.970036,2.033536,0.970036,$1*%
G04 Aperture macros list end*
%TA.AperFunction,SMDPad,CuDef*%
%ADD10C,0.200000*%
%TD*%
%TA.AperFunction,SMDPad,CuDef*%
%ADD11RoundRect,0.075600X0.224400X0.194400X-0.224400X0.194400X-0.224400X-0.194400X0.224400X-0.194400X0*%
%TD*%
%TA.AperFunction,SMDPad,CuDef*%
%ADD12R,1.524000X0.558800*%
%TD*%
%TA.AperFunction,SMDPad,CuDef*%
%ADD13R,0.450800X1.111200*%
%TD*%
%TA.AperFunction,SMDPad,CuDef*%
%ADD14R,1.000000X0.800000*%
%TD*%
%TA.AperFunction,SMDPad,CuDef*%
%ADD15R,0.540000X0.600000*%
%TD*%
%TA.AperFunction,SMDPad,CuDef*%
%ADD16RoundRect,0.075600X-0.224400X-0.194400X0.224400X-0.194400X0.224400X0.194400X-0.224400X0.194400X0*%
%TD*%
%TA.AperFunction,SMDPad,CuDef*%
%ADD17R,0.600000X0.540000*%
%TD*%
%TA.AperFunction,SMDPad,CuDef*%
%ADD18R,0.843000X1.000000*%
%TD*%
%TA.AperFunction,SMDPad,CuDef*%
%ADD19R,0.685800X0.609600*%
%TD*%
%TA.AperFunction,ComponentPad*%
%ADD20C,1.727200*%
%TD*%
%TA.AperFunction,SMDPad,CuDef*%
%ADD21R,0.952500X0.406400*%
%TD*%
%TA.AperFunction,SMDPad,CuDef*%
%ADD22RoundRect,0.075600X-0.194400X0.224400X-0.194400X-0.224400X0.194400X-0.224400X0.194400X0.224400X0*%
%TD*%
%TA.AperFunction,ComponentPad*%
%ADD23C,5.588000*%
%TD*%
%TA.AperFunction,SMDPad,CuDef*%
%ADD24R,0.280000X0.520000*%
%TD*%
%TA.AperFunction,SMDPad,CuDef*%
%ADD25R,1.111200X0.450800*%
%TD*%
%TA.AperFunction,ComponentPad*%
%ADD26C,1.320800*%
%TD*%
%TA.AperFunction,SMDPad,CuDef*%
%ADD27R,1.100000X1.000000*%
%TD*%
%TA.AperFunction,SMDPad,CuDef*%
%ADD28R,1.730000X0.580000*%
%TD*%
%TA.AperFunction,SMDPad,CuDef*%
%ADD29FreePoly0,0.000000*%
%TD*%
%TA.AperFunction,SMDPad,CuDef*%
%ADD30RoundRect,0.075600X0.194400X-0.224400X0.194400X0.224400X-0.194400X0.224400X-0.194400X-0.224400X0*%
%TD*%
%TA.AperFunction,SMDPad,CuDef*%
%ADD31R,1.560000X0.280000*%
%TD*%
%TA.AperFunction,SMDPad,CuDef*%
%ADD32R,0.280000X1.560000*%
%TD*%
%TA.AperFunction,ComponentPad*%
%ADD33C,1.408000*%
%TD*%
%TA.AperFunction,SMDPad,CuDef*%
%ADD34R,0.558800X0.979300*%
%TD*%
%TA.AperFunction,SMDPad,CuDef*%
%ADD35R,1.350000X0.400000*%
%TD*%
%TA.AperFunction,ComponentPad*%
%ADD36O,1.016000X1.300000*%
%TD*%
%TA.AperFunction,SMDPad,CuDef*%
%ADD37R,1.550000X1.500000*%
%TD*%
%TA.AperFunction,ComponentPad*%
%ADD38O,1.778000X1.016000*%
%TD*%
%TA.AperFunction,SMDPad,CuDef*%
%ADD39R,0.250000X0.275000*%
%TD*%
%TA.AperFunction,SMDPad,CuDef*%
%ADD40R,0.275000X0.250000*%
%TD*%
%TA.AperFunction,SMDPad,CuDef*%
%ADD41R,0.900000X0.254000*%
%TD*%
%TA.AperFunction,SMDPad,CuDef*%
%ADD42R,0.254000X0.900000*%
%TD*%
%TA.AperFunction,SMDPad,CuDef*%
%ADD43R,3.100000X3.100000*%
%TD*%
%TA.AperFunction,SMDPad,CuDef*%
%ADD44R,0.254000X0.482600*%
%TD*%
%TA.AperFunction,SMDPad,CuDef*%
%ADD45R,0.482600X0.254000*%
%TD*%
%TA.AperFunction,ComponentPad*%
%ADD46O,1.016000X2.032000*%
%TD*%
%TA.AperFunction,SMDPad,CuDef*%
%ADD47RoundRect,0.014000X-0.161000X0.251000X-0.161000X-0.251000X0.161000X-0.251000X0.161000X0.251000X0*%
%TD*%
%TA.AperFunction,SMDPad,CuDef*%
%ADD48RoundRect,0.014000X-0.251000X-0.161000X0.251000X-0.161000X0.251000X0.161000X-0.251000X0.161000X0*%
%TD*%
%TA.AperFunction,SMDPad,CuDef*%
%ADD49R,0.850000X0.750000*%
%TD*%
%TA.AperFunction,ViaPad*%
%ADD50C,0.600000*%
%TD*%
%TA.AperFunction,ViaPad*%
%ADD51C,1.000000*%
%TD*%
%TA.AperFunction,Conductor*%
%ADD52C,0.177800*%
%TD*%
%TA.AperFunction,Conductor*%
%ADD53C,0.508000*%
%TD*%
%TA.AperFunction,Conductor*%
%ADD54C,0.381000*%
%TD*%
%TA.AperFunction,Conductor*%
%ADD55C,0.254000*%
%TD*%
%TA.AperFunction,Conductor*%
%ADD56C,0.127000*%
%TD*%
%TA.AperFunction,Conductor*%
%ADD57C,0.203200*%
%TD*%
G04 APERTURE END LIST*
D10*
%TO.P,U4,A1,PS*%
%TO.N,3.3V*%
X131458550Y-98484400D03*
%TO.P,U4,A3,SCK*%
%TO.N,SCL*%
X132024550Y-98484400D03*
%TO.P,U4,A5,CSB*%
%TO.N,Earth*%
X132590550Y-98484400D03*
%TO.P,U4,B2,VDDIO*%
%TO.N,3.3V*%
X131741550Y-98767400D03*
%TO.P,U4,B4,SDI*%
%TO.N,SDA*%
X132307550Y-98767400D03*
%TO.P,U4,C1,SDO*%
%TO.N,Earth*%
X131458550Y-99050400D03*
%TO.P,U4,C5,GND*%
X132590550Y-99050400D03*
%TO.P,U4,D2,INT*%
%TO.N,MAG_INT*%
X131741550Y-99333400D03*
%TO.P,U4,D4,DRDY*%
%TO.N,MAG_DRDY*%
X132307550Y-99333400D03*
%TO.P,U4,E1,GND*%
%TO.N,Earth*%
X131458550Y-99616400D03*
%TO.P,U4,E3,GND*%
X132024550Y-99616400D03*
%TO.P,U4,E5,VDD*%
%TO.N,3.3V*%
X132590550Y-99616400D03*
%TD*%
D11*
%TO.P,C7,2*%
%TO.N,Earth*%
X146202400Y-78056000D03*
%TO.P,C7,1*%
%TO.N,3.3V*%
X146202400Y-78916000D03*
%TD*%
D12*
%TO.P,U7,1,\u002ACE*%
%TO.N,~{FLASH_SS}*%
X144335500Y-96399550D03*
%TO.P,U7,2,SO*%
%TO.N,FLASH_MISO*%
X144335500Y-97669550D03*
%TO.P,U7,3,\u002AWP*%
%TO.N,~{FLASH_WP}*%
X144335500Y-98939550D03*
%TO.P,U7,4,VSS*%
%TO.N,Earth*%
X144335500Y-100209550D03*
%TO.P,U7,5,SI*%
%TO.N,FLASH_MOSI*%
X151625300Y-100209550D03*
%TO.P,U7,6,SCK*%
%TO.N,FLASH_SCK*%
X151625300Y-98939550D03*
%TO.P,U7,7,\u002AHOLD*%
%TO.N,~{FLASH_HOLD}*%
X151625300Y-97669550D03*
%TO.P,U7,8,VDD*%
%TO.N,3.3V*%
X151625300Y-96399550D03*
%TD*%
D13*
%TO.P,Q10,1,G*%
%TO.N,VIN_SW*%
X104786199Y-86853601D03*
%TO.P,Q10,2,S*%
%TO.N,Earth*%
X106186201Y-86853601D03*
%TO.P,Q10,3,D*%
%TO.N,~{SWITCH}*%
X105486200Y-85053600D03*
%TD*%
D14*
%TO.P,D1,1*%
%TO.N,3.3V*%
X136493900Y-98230600D03*
%TO.P,D1,2*%
%TO.N,Net-(D1-Pad2)*%
X137993900Y-98230600D03*
%TO.P,D1,3*%
%TO.N,Net-(D1-Pad3)*%
X137993900Y-99330600D03*
%TO.P,D1,4*%
%TO.N,Net-(D1-Pad4)*%
X136493900Y-99330600D03*
%TD*%
D15*
%TO.P,R17,1*%
%TO.N,~{MAIN_CONT}*%
X122707600Y-91008200D03*
%TO.P,R17,2*%
%TO.N,3.3V*%
X121843600Y-91008200D03*
%TD*%
D16*
%TO.P,C23,1*%
%TO.N,AUX2*%
X109448600Y-82374000D03*
%TO.P,C23,2*%
%TO.N,Earth*%
X109448600Y-83234000D03*
%TD*%
D11*
%TO.P,C21,1*%
%TO.N,MAIN*%
X118516400Y-90600000D03*
%TO.P,C21,2*%
%TO.N,Earth*%
X118516400Y-89740000D03*
%TD*%
D15*
%TO.P,R5,1*%
%TO.N,Earth*%
X156590800Y-72415400D03*
%TO.P,R5,2*%
%TO.N,VBAT_SENSE*%
X157454800Y-72415400D03*
%TD*%
D17*
%TO.P,R28,2*%
%TO.N,3.3V*%
X107772200Y-86411000D03*
%TO.P,R28,1*%
%TO.N,~{SWITCH}*%
X107772200Y-85547000D03*
%TD*%
%TO.P,R8,1*%
%TO.N,SCL*%
X129108200Y-97586600D03*
%TO.P,R8,2*%
%TO.N,3.3V*%
X129108200Y-98450600D03*
%TD*%
D18*
%TO.P,D5,1,1*%
%TO.N,Net-(D5-Pad1)*%
X130926700Y-73228200D03*
%TO.P,D5,2,2*%
%TO.N,3.3V*%
X132369700Y-73228200D03*
%TD*%
D19*
%TO.P,J1,1,A*%
%TO.N,3.3V*%
X139090400Y-76200000D03*
%TO.P,J1,2,B*%
%TO.N,BOOT*%
X137972800Y-76200000D03*
%TD*%
D20*
%TO.P,P5,4,6*%
%TO.N,Net-(P5B-6)*%
X121049402Y-96034201D03*
%TO.P,P5,3,5*%
%TO.N,VIN_SW*%
X117549401Y-96034201D03*
%TO.P,P5,2,6*%
%TO.N,Net-(P5A-6)*%
X114049401Y-96034201D03*
%TO.P,P5,1,5*%
%TO.N,VIN_SW*%
X110549400Y-96034201D03*
%TD*%
D15*
%TO.P,R20,1*%
%TO.N,~{DROGUE_CONT}*%
X98094600Y-94386400D03*
%TO.P,R20,2*%
%TO.N,3.3V*%
X98958600Y-94386400D03*
%TD*%
D21*
%TO.P,Q4,1,G*%
%TO.N,AUX2*%
X111093250Y-82311199D03*
%TO.P,Q4,2,S*%
%TO.N,Earth*%
X111093250Y-83261200D03*
%TO.P,Q4,3*%
%TO.N,unconnected-(Q4-Pad3)*%
X111093250Y-84211201D03*
%TO.P,Q4,4*%
%TO.N,unconnected-(Q4-Pad4)*%
X113645950Y-84211201D03*
%TO.P,Q4,5,D*%
%TO.N,Net-(P4B-6)*%
X113645950Y-82311199D03*
%TD*%
D22*
%TO.P,C3,1*%
%TO.N,3.3V*%
X132103600Y-96164400D03*
%TO.P,C3,2*%
%TO.N,Earth*%
X131243600Y-96164400D03*
%TD*%
D15*
%TO.P,R23,1*%
%TO.N,Earth*%
X163677800Y-87477600D03*
%TO.P,R23,2*%
%TO.N,USB_DETECT*%
X162813800Y-87477600D03*
%TD*%
D16*
%TO.P,C12,1*%
%TO.N,OSC_IN*%
X123367800Y-84025000D03*
%TO.P,C12,2*%
%TO.N,Earth*%
X123367800Y-84885000D03*
%TD*%
D23*
%TO.P,H1,1*%
%TO.N,Earth*%
X164058600Y-98120200D03*
%TD*%
D15*
%TO.P,R9,1*%
%TO.N,HG_ACC_SCL*%
X159105400Y-95453200D03*
%TO.P,R9,2*%
%TO.N,3.3V*%
X159969400Y-95453200D03*
%TD*%
%TO.P,R16,1*%
%TO.N,Earth*%
X100456800Y-94615000D03*
%TO.P,R16,2*%
%TO.N,Net-(P5A-6)*%
X101320800Y-94615000D03*
%TD*%
D11*
%TO.P,C19,2*%
%TO.N,Earth*%
X166649400Y-88749400D03*
%TO.P,C19,1*%
%TO.N,3.3V*%
X166649400Y-89609400D03*
%TD*%
D15*
%TO.P,R7,1*%
%TO.N,SDA*%
X128828600Y-94335600D03*
%TO.P,R7,2*%
%TO.N,3.3V*%
X129692600Y-94335600D03*
%TD*%
D24*
%TO.P,D4,A*%
%TO.N,Net-(P3B-6)*%
X103688000Y-94462600D03*
%TO.P,D4,C*%
%TO.N,VIN*%
X104338000Y-94462600D03*
%TD*%
D11*
%TO.P,C1,1*%
%TO.N,3.3V*%
X133426200Y-77214200D03*
%TO.P,C1,2*%
%TO.N,Earth*%
X133426200Y-76354200D03*
%TD*%
D17*
%TO.P,R13,1*%
%TO.N,Earth*%
X124231400Y-99948800D03*
%TO.P,R13,2*%
%TO.N,Net-(P5B-6)*%
X124231400Y-100812800D03*
%TD*%
%TO.P,R24,1*%
%TO.N,Earth*%
X154025600Y-99669400D03*
%TO.P,R24,2*%
%TO.N,FLASH_SCK*%
X154025600Y-100533400D03*
%TD*%
D15*
%TO.P,R15,2*%
%TO.N,Net-(P4B-6)*%
X107061200Y-73406000D03*
%TO.P,R15,1*%
%TO.N,Earth*%
X106197200Y-73406000D03*
%TD*%
D25*
%TO.P,Q8,1,G*%
%TO.N,Net-(P5A-6)*%
X105903601Y-92394001D03*
%TO.P,Q8,2,S*%
%TO.N,Earth*%
X105903601Y-90993999D03*
%TO.P,Q8,3,D*%
%TO.N,~{DROGUE_CONT}*%
X104103600Y-91694000D03*
%TD*%
D16*
%TO.P,C15,1*%
%TO.N,3.3V*%
X124155200Y-94820000D03*
%TO.P,C15,2*%
%TO.N,Earth*%
X124155200Y-95680000D03*
%TD*%
D26*
%TO.P,P2,1,5*%
%TO.N,Earth*%
X104809801Y-99129499D03*
%TO.P,P2,2,6*%
%TO.N,Net-(P2-6)*%
X102809799Y-99129499D03*
%TD*%
D17*
%TO.P,R21,1*%
%TO.N,~{FLASH_SS}*%
X155346400Y-99466600D03*
%TO.P,R21,2*%
%TO.N,3.3V*%
X155346400Y-98602600D03*
%TD*%
D23*
%TO.P,H4,1*%
%TO.N,Earth*%
X96570800Y-75082400D03*
%TD*%
D27*
%TO.P,C11,1*%
%TO.N,VIN*%
X105703000Y-83058000D03*
%TO.P,C11,2*%
%TO.N,Earth*%
X107403000Y-83058000D03*
%TD*%
D23*
%TO.P,H3,1*%
%TO.N,Earth*%
X96393000Y-98171000D03*
%TD*%
D21*
%TO.P,Q1,1,G*%
%TO.N,DROGUE*%
X110293150Y-90891401D03*
%TO.P,Q1,2,S*%
%TO.N,Earth*%
X110293150Y-89941400D03*
%TO.P,Q1,3*%
%TO.N,unconnected-(Q1-Pad3)*%
X110293150Y-88991399D03*
%TO.P,Q1,4*%
%TO.N,unconnected-(Q1-Pad4)*%
X107740450Y-88991399D03*
%TO.P,Q1,5,D*%
%TO.N,Net-(P5A-6)*%
X107740450Y-90891401D03*
%TD*%
D24*
%TO.P,D2,A*%
%TO.N,Net-(P2-6)*%
X107614600Y-94488000D03*
%TO.P,D2,C*%
%TO.N,VIN*%
X106964600Y-94488000D03*
%TD*%
D28*
%TO.P,U2,1,VOUT*%
%TO.N,3.3V*%
X104486200Y-77976600D03*
D29*
%TO.P,U2,2,GND*%
%TO.N,Earth*%
X106121200Y-79476600D03*
D28*
%TO.P,U2,3,VIN*%
%TO.N,VIN*%
X104486200Y-80976600D03*
%TD*%
D30*
%TO.P,C25,1*%
%TO.N,5V*%
X155729200Y-74726800D03*
%TO.P,C25,2*%
%TO.N,Earth*%
X156589200Y-74726800D03*
%TD*%
D17*
%TO.P,R27,1*%
%TO.N,Earth*%
X147675600Y-76174800D03*
%TO.P,R27,2*%
%TO.N,~{USB_SUSPEND}*%
X147675600Y-75310800D03*
%TD*%
D31*
%TO.P,U1,1,PE2*%
%TO.N,unconnected-(U1-PE2-Pad1)*%
X130626100Y-80715600D03*
%TO.P,U1,2,PE3*%
%TO.N,unconnected-(U1-PE3-Pad2)*%
X130626100Y-81215600D03*
%TO.P,U1,3,PE4*%
%TO.N,unconnected-(U1-PE4-Pad3)*%
X130626100Y-81715600D03*
%TO.P,U1,4,PE5*%
%TO.N,BP_INT*%
X130626100Y-82215600D03*
%TO.P,U1,5,PE6*%
%TO.N,~{AUX2_CONT}*%
X130626100Y-82715600D03*
%TO.P,U1,6,VBAT*%
%TO.N,unconnected-(U1-VBAT-Pad6)*%
X130626100Y-83215600D03*
%TO.P,U1,7,PC13*%
%TO.N,AUX2*%
X130626100Y-83715600D03*
%TO.P,U1,8,PC14*%
%TO.N,AUX1*%
X130626100Y-84215600D03*
%TO.P,U1,9,PC15*%
%TO.N,~{SWITCH}*%
X130626100Y-84715600D03*
%TO.P,U1,10,VSS*%
%TO.N,Earth*%
X130626100Y-85215600D03*
%TO.P,U1,11,VDD*%
%TO.N,3.3V*%
X130626100Y-85715600D03*
%TO.P,U1,12,PH0*%
%TO.N,OSC_IN*%
X130626100Y-86215600D03*
%TO.P,U1,13,PH1*%
%TO.N,OSC_OUT*%
X130626100Y-86715600D03*
%TO.P,U1,14,NRST*%
%TO.N,NRST*%
X130626100Y-87215600D03*
%TO.P,U1,15,PC0*%
%TO.N,~{AUX1_CONT}*%
X130626100Y-87715600D03*
%TO.P,U1,16,PC1*%
%TO.N,MAIN*%
X130626100Y-88215600D03*
%TO.P,U1,17,PC2_C*%
%TO.N,DROGUE*%
X130626100Y-88715600D03*
%TO.P,U1,18,PC3_C*%
%TO.N,~{DROGUE_CONT}*%
X130626100Y-89215600D03*
%TO.P,U1,19,VSSA*%
%TO.N,Earth*%
X130626100Y-89715600D03*
%TO.P,U1,20,VREF+*%
%TO.N,3.3V*%
X130626100Y-90215600D03*
%TO.P,U1,21,VDDA*%
X130626100Y-90715600D03*
%TO.P,U1,22,PA0*%
%TO.N,~{MAIN_CONT}*%
X130626100Y-91215600D03*
%TO.P,U1,23,PA1*%
%TO.N,unconnected-(U1-PA1-Pad23)*%
X130626100Y-91715600D03*
%TO.P,U1,24,PA2*%
%TO.N,IMU_INT1*%
X130626100Y-92215600D03*
%TO.P,U1,25,PA3*%
%TO.N,IMU_INT2*%
X130626100Y-92715600D03*
D32*
%TO.P,U1,26,VSS*%
%TO.N,Earth*%
X132306100Y-94395600D03*
%TO.P,U1,27,VDD*%
%TO.N,3.3V*%
X132806100Y-94395600D03*
%TO.P,U1,28,PA4*%
%TO.N,unconnected-(U1-PA4-Pad28)*%
X133306100Y-94395600D03*
%TO.P,U1,29,PA5*%
%TO.N,unconnected-(U1-PA5-Pad29)*%
X133806100Y-94395600D03*
%TO.P,U1,30,PA6*%
%TO.N,VBAT_SENSE*%
X134306100Y-94395600D03*
%TO.P,U1,31,PA7*%
%TO.N,MAG_DRDY*%
X134806100Y-94395600D03*
%TO.P,U1,32,PC4*%
%TO.N,MAG_INT*%
X135306100Y-94395600D03*
%TO.P,U1,33,PC5*%
%TO.N,unconnected-(U1-PC5-Pad33)*%
X135806100Y-94395600D03*
%TO.P,U1,34,PB0*%
%TO.N,unconnected-(U1-PB0-Pad34)*%
X136306100Y-94395600D03*
%TO.P,U1,35,PB1*%
%TO.N,unconnected-(U1-PB1-Pad35)*%
X136806100Y-94395600D03*
%TO.P,U1,36,PB2*%
%TO.N,unconnected-(U1-PB2-Pad36)*%
X137306100Y-94395600D03*
%TO.P,U1,37,PE7*%
%TO.N,unconnected-(U1-PE7-Pad37)*%
X137806100Y-94395600D03*
%TO.P,U1,38,PE8*%
%TO.N,unconnected-(U1-PE8-Pad38)*%
X138306100Y-94395600D03*
%TO.P,U1,39,PE9*%
%TO.N,STATUS_R*%
X138806100Y-94395600D03*
%TO.P,U1,40,PE10*%
%TO.N,unconnected-(U1-PE10-Pad40)*%
X139306100Y-94395600D03*
%TO.P,U1,41,PE11*%
%TO.N,STATUS_B*%
X139806100Y-94395600D03*
%TO.P,U1,42,PE12*%
%TO.N,unconnected-(U1-PE12-Pad42)*%
X140306100Y-94395600D03*
%TO.P,U1,43,PE13*%
%TO.N,STATUS_G*%
X140806100Y-94395600D03*
%TO.P,U1,44,PE14*%
%TO.N,unconnected-(U1-PE14-Pad44)*%
X141306100Y-94395600D03*
%TO.P,U1,45,PE15*%
%TO.N,unconnected-(U1-PE15-Pad45)*%
X141806100Y-94395600D03*
%TO.P,U1,46,PB10*%
%TO.N,SCL*%
X142306100Y-94395600D03*
%TO.P,U1,47,PB11*%
%TO.N,SDA*%
X142806100Y-94395600D03*
%TO.P,U1,48,VCAP1*%
%TO.N,CAP1*%
X143306100Y-94395600D03*
%TO.P,U1,49,VSS*%
%TO.N,Earth*%
X143806100Y-94395600D03*
%TO.P,U1,50,VDD*%
%TO.N,3.3V*%
X144306100Y-94395600D03*
D31*
%TO.P,U1,51,PB12*%
%TO.N,~{FLASH_SS}*%
X145986100Y-92715600D03*
%TO.P,U1,52,PB13*%
%TO.N,FLASH_SCK*%
X145986100Y-92215600D03*
%TO.P,U1,53,PB14*%
%TO.N,FLASH_MISO*%
X145986100Y-91715600D03*
%TO.P,U1,54,PB15*%
%TO.N,FLASH_MOSI*%
X145986100Y-91215600D03*
%TO.P,U1,55,PD8*%
%TO.N,HG_ACC_INT1*%
X145986100Y-90715600D03*
%TO.P,U1,56,PD9*%
%TO.N,HG_ACC_INT2*%
X145986100Y-90215600D03*
%TO.P,U1,57,PD10*%
%TO.N,USB_DETECT*%
X145986100Y-89715600D03*
%TO.P,U1,58,PD11*%
%TO.N,unconnected-(U1-PD11-Pad58)*%
X145986100Y-89215600D03*
%TO.P,U1,59,PD12*%
%TO.N,~{FLASH_WP}*%
X145986100Y-88715600D03*
%TO.P,U1,60,PD13*%
%TO.N,~{FLASH_HOLD}*%
X145986100Y-88215600D03*
%TO.P,U1,61,PD14*%
%TO.N,BEEP*%
X145986100Y-87715600D03*
%TO.P,U1,62,PD15*%
%TO.N,unconnected-(U1-PD15-Pad62)*%
X145986100Y-87215600D03*
%TO.P,U1,63,PC6*%
%TO.N,RX_USB*%
X145986100Y-86715600D03*
%TO.P,U1,64,PC7*%
%TO.N,TX_USB*%
X145986100Y-86215600D03*
%TO.P,U1,65,PC8*%
%TO.N,unconnected-(U1-PC8-Pad65)*%
X145986100Y-85715600D03*
%TO.P,U1,66,PC9*%
%TO.N,unconnected-(U1-PC9-Pad66)*%
X145986100Y-85215600D03*
%TO.P,U1,67,PA8*%
%TO.N,~{USB_SUSPEND}*%
X145986100Y-84715600D03*
%TO.P,U1,68,PA9*%
%TO.N,unconnected-(U1-PA9-Pad68)*%
X145986100Y-84215600D03*
%TO.P,U1,69,PA10*%
%TO.N,unconnected-(U1-PA10-Pad69)*%
X145986100Y-83715600D03*
%TO.P,U1,70,PA11*%
%TO.N,unconnected-(U1-PA11-Pad70)*%
X145986100Y-83215600D03*
%TO.P,U1,71,PA12*%
%TO.N,~{USB_RST}*%
X145986100Y-82715600D03*
%TO.P,U1,72,PA13*%
%TO.N,SWDIO*%
X145986100Y-82215600D03*
%TO.P,U1,73,VCAP2*%
%TO.N,CAP2*%
X145986100Y-81715600D03*
%TO.P,U1,74,VSS*%
%TO.N,Earth*%
X145986100Y-81215600D03*
%TO.P,U1,75,VDD*%
%TO.N,3.3V*%
X145986100Y-80715600D03*
D32*
%TO.P,U1,76,PA14*%
%TO.N,SWCLK*%
X144306100Y-79035600D03*
%TO.P,U1,77,PA15*%
%TO.N,unconnected-(U1-PA15-Pad77)*%
X143806100Y-79035600D03*
%TO.P,U1,78,PC10*%
%TO.N,unconnected-(U1-PC10-Pad78)*%
X143306100Y-79035600D03*
%TO.P,U1,79,PC11*%
%TO.N,unconnected-(U1-PC11-Pad79)*%
X142806100Y-79035600D03*
%TO.P,U1,80,PC12*%
%TO.N,unconnected-(U1-PC12-Pad80)*%
X142306100Y-79035600D03*
%TO.P,U1,81,PD0*%
%TO.N,unconnected-(U1-PD0-Pad81)*%
X141806100Y-79035600D03*
%TO.P,U1,82,PD1*%
%TO.N,unconnected-(U1-PD1-Pad82)*%
X141306100Y-79035600D03*
%TO.P,U1,83,PD2*%
%TO.N,unconnected-(U1-PD2-Pad83)*%
X140806100Y-79035600D03*
%TO.P,U1,84,PD3*%
%TO.N,unconnected-(U1-PD3-Pad84)*%
X140306100Y-79035600D03*
%TO.P,U1,85,PD4*%
%TO.N,unconnected-(U1-PD4-Pad85)*%
X139806100Y-79035600D03*
%TO.P,U1,86,PD5*%
%TO.N,unconnected-(U1-PD5-Pad86)*%
X139306100Y-79035600D03*
%TO.P,U1,87,PD6*%
%TO.N,unconnected-(U1-PD6-Pad87)*%
X138806100Y-79035600D03*
%TO.P,U1,88,PD7*%
%TO.N,unconnected-(U1-PD7-Pad88)*%
X138306100Y-79035600D03*
%TO.P,U1,89,PB3*%
%TO.N,SWO*%
X137806100Y-79035600D03*
%TO.P,U1,90,PB4*%
%TO.N,unconnected-(U1-PB4-Pad90)*%
X137306100Y-79035600D03*
%TO.P,U1,91,PB5*%
%TO.N,unconnected-(U1-PB5-Pad91)*%
X136806100Y-79035600D03*
%TO.P,U1,92,PB6*%
%TO.N,BP_SCL*%
X136306100Y-79035600D03*
%TO.P,U1,93,PB7*%
%TO.N,BP_SDA*%
X135806100Y-79035600D03*
%TO.P,U1,94,BOOT0*%
%TO.N,BOOT*%
X135306100Y-79035600D03*
%TO.P,U1,95,PB8*%
%TO.N,HG_ACC_SCL*%
X134806100Y-79035600D03*
%TO.P,U1,96,PB9*%
%TO.N,HG_ACC_SDA*%
X134306100Y-79035600D03*
%TO.P,U1,97,PE0*%
%TO.N,unconnected-(U1-PE0-Pad97)*%
X133806100Y-79035600D03*
%TO.P,U1,98,PE1*%
%TO.N,unconnected-(U1-PE1-Pad98)*%
X133306100Y-79035600D03*
%TO.P,U1,99,VSS*%
%TO.N,Earth*%
X132806100Y-79035600D03*
%TO.P,U1,100,VDD*%
%TO.N,3.3V*%
X132306100Y-79035600D03*
%TD*%
D27*
%TO.P,C13,1*%
%TO.N,3.3V*%
X104763200Y-75387200D03*
%TO.P,C13,2*%
%TO.N,Earth*%
X106463200Y-75387200D03*
%TD*%
D22*
%TO.P,C2,1*%
%TO.N,3.3V*%
X128420600Y-85572600D03*
%TO.P,C2,2*%
%TO.N,Earth*%
X127560600Y-85572600D03*
%TD*%
D17*
%TO.P,R2,1*%
%TO.N,STATUS_G*%
X141706600Y-99237600D03*
%TO.P,R2,2*%
%TO.N,Net-(D1-Pad3)*%
X141706600Y-100101600D03*
%TD*%
D33*
%TO.P,BZ1,1,-*%
%TO.N,VIN*%
X151063800Y-88696800D03*
%TO.P,BZ1,2,+*%
%TO.N,Net-(BZ1-+)*%
X158663800Y-88696800D03*
%TD*%
D15*
%TO.P,R22,1*%
%TO.N,USB_DETECT*%
X162763000Y-88798400D03*
%TO.P,R22,2*%
%TO.N,5V*%
X163627000Y-88798400D03*
%TD*%
D16*
%TO.P,C5,1*%
%TO.N,3.3V*%
X142367000Y-96699600D03*
%TO.P,C5,2*%
%TO.N,Earth*%
X142367000Y-97559600D03*
%TD*%
D20*
%TO.P,P3,1,5*%
%TO.N,VIN*%
X98729800Y-81066998D03*
%TO.P,P3,2,6*%
%TO.N,VIN_SW*%
X98729800Y-84566999D03*
%TO.P,P3,3,5*%
%TO.N,Earth*%
X98729800Y-88066999D03*
%TO.P,P3,4,6*%
%TO.N,Net-(P3B-6)*%
X98729800Y-91567000D03*
%TD*%
D34*
%TO.P,D6,1*%
%TO.N,/Peripherals/D+*%
X159674601Y-78237652D03*
%TO.P,D6,2*%
%TO.N,Earth*%
X158724600Y-78237652D03*
%TO.P,D6,3*%
%TO.N,/Peripherals/D-*%
X157774599Y-78237652D03*
%TO.P,D6,4*%
%TO.N,5V*%
X157774599Y-80969548D03*
%TO.P,D6,5*%
%TO.N,unconnected-(D6-Pad5)*%
X159674601Y-80969548D03*
%TD*%
D15*
%TO.P,R6,2*%
%TO.N,Net-(D5-Pad1)*%
X128371800Y-73177400D03*
%TO.P,R6,1*%
%TO.N,Earth*%
X127507800Y-73177400D03*
%TD*%
D35*
%TO.P,P6,1,VCC*%
%TO.N,5V*%
X163326500Y-83850000D03*
%TO.P,P6,2,D-*%
%TO.N,/Peripherals/D-*%
X163326500Y-83200000D03*
%TO.P,P6,3,D+*%
%TO.N,/Peripherals/D+*%
X163326500Y-82550000D03*
%TO.P,P6,4,ID*%
%TO.N,unconnected-(P6-ID-Pad4)*%
X163326500Y-81900000D03*
%TO.P,P6,5,GND*%
%TO.N,Earth*%
X163326500Y-81250000D03*
D36*
%TO.P,P6,S1,SHIELD*%
X163326500Y-85050000D03*
D37*
X166026500Y-83550000D03*
X166026500Y-81550000D03*
D36*
X163326500Y-80050000D03*
D38*
%TO.P,P6,S2,SHIELD*%
X166026500Y-86050000D03*
X166026500Y-79050000D03*
%TD*%
D22*
%TO.P,C10,1*%
%TO.N,3.3V*%
X128141200Y-91186000D03*
%TO.P,C10,2*%
%TO.N,Earth*%
X127281200Y-91186000D03*
%TD*%
%TO.P,C14,1*%
%TO.N,OSC_OUT*%
X125525000Y-86918800D03*
%TO.P,C14,2*%
%TO.N,Earth*%
X124665000Y-86918800D03*
%TD*%
D25*
%TO.P,Q9,1,G*%
%TO.N,BEEP*%
X157367399Y-97953599D03*
%TO.P,Q9,2,S*%
%TO.N,Earth*%
X157367399Y-99353601D03*
%TO.P,Q9,3,D*%
%TO.N,Net-(BZ1-+)*%
X159167400Y-98653600D03*
%TD*%
D17*
%TO.P,R3,1*%
%TO.N,STATUS_R*%
X134747000Y-99745600D03*
%TO.P,R3,2*%
%TO.N,Net-(D1-Pad4)*%
X134747000Y-100609600D03*
%TD*%
D16*
%TO.P,C22,1*%
%TO.N,AUX1*%
X115620800Y-82501000D03*
%TO.P,C22,2*%
%TO.N,Earth*%
X115620800Y-83361000D03*
%TD*%
D25*
%TO.P,Q7,1,G*%
%TO.N,Net-(P4B-6)*%
X102728601Y-74766401D03*
%TO.P,Q7,2,S*%
%TO.N,Earth*%
X102728601Y-73366399D03*
%TO.P,Q7,3,D*%
%TO.N,~{AUX2_CONT}*%
X100928600Y-74066400D03*
%TD*%
D23*
%TO.P,H2,1*%
%TO.N,Earth*%
X164236400Y-74853800D03*
%TD*%
D39*
%TO.P,U5,1,VDDIO*%
%TO.N,3.3V*%
X127123500Y-77901300D03*
%TO.P,U5,2,SCK*%
%TO.N,BP_SCL*%
X126623500Y-77901300D03*
D40*
%TO.P,U5,3,VSS*%
%TO.N,Earth*%
X126111000Y-78163800D03*
%TO.P,U5,4,SDI*%
%TO.N,BP_SDA*%
X126111000Y-78663800D03*
%TO.P,U5,5,SDO*%
%TO.N,Earth*%
X126111000Y-79163800D03*
D39*
%TO.P,U5,6,CSB*%
%TO.N,3.3V*%
X126623500Y-79426300D03*
%TO.P,U5,7,INT*%
%TO.N,BP_INT*%
X127123500Y-79426300D03*
D40*
%TO.P,U5,8,VSS*%
%TO.N,Earth*%
X127636000Y-79163800D03*
%TO.P,U5,9,VSS*%
X127636000Y-78663800D03*
%TO.P,U5,10,VDD*%
%TO.N,3.3V*%
X127636000Y-78163800D03*
%TD*%
D41*
%TO.P,U8,1,DCD*%
%TO.N,unconnected-(U8-DCD-Pad1)*%
X154658400Y-78843800D03*
%TO.P,U8,2,RI*%
%TO.N,unconnected-(U8-RI-Pad2)*%
X154658400Y-78343800D03*
%TO.P,U8,3,GND*%
%TO.N,Earth*%
X154658400Y-77843800D03*
%TO.P,U8,4,D+*%
%TO.N,/Peripherals/D+*%
X154658400Y-77343800D03*
%TO.P,U8,5,D-*%
%TO.N,/Peripherals/D-*%
X154658400Y-76843800D03*
%TO.P,U8,6,VDD*%
%TO.N,unconnected-(U8-VDD-Pad6)*%
X154658400Y-76343800D03*
%TO.P,U8,7,REGIN*%
%TO.N,5V*%
X154658400Y-75843800D03*
D42*
%TO.P,U8,8,VBUS*%
X153568400Y-74753800D03*
%TO.P,U8,9,~{RST}*%
%TO.N,~{USB_RST}*%
X153068400Y-74753800D03*
%TO.P,U8,10,NC*%
%TO.N,unconnected-(U8-NC-Pad10)*%
X152568400Y-74753800D03*
%TO.P,U8,11,~{SUSPEND}*%
%TO.N,~{USB_SUSPEND}*%
X152068400Y-74753800D03*
%TO.P,U8,12,SUSPEND*%
%TO.N,unconnected-(U8-SUSPEND-Pad12)*%
X151568400Y-74753800D03*
%TO.P,U8,13,NC@1*%
%TO.N,unconnected-(U8-NC@1-Pad13)*%
X151068400Y-74753800D03*
%TO.P,U8,14,NC@2*%
%TO.N,unconnected-(U8-NC@2-Pad14)*%
X150568400Y-74753800D03*
D41*
%TO.P,U8,15,NC@3*%
%TO.N,unconnected-(U8-NC@3-Pad15)*%
X149478400Y-75843800D03*
%TO.P,U8,16,NC@4*%
%TO.N,unconnected-(U8-NC@4-Pad16)*%
X149478400Y-76343800D03*
%TO.P,U8,17,NC@5*%
%TO.N,unconnected-(U8-NC@5-Pad17)*%
X149478400Y-76843800D03*
%TO.P,U8,18,NC/VPP*%
%TO.N,unconnected-(U8-NC{slash}VPP-Pad18)*%
X149478400Y-77343800D03*
%TO.P,U8,19,NC@6*%
%TO.N,unconnected-(U8-NC@6-Pad19)*%
X149478400Y-77843800D03*
%TO.P,U8,20,NC@7*%
%TO.N,unconnected-(U8-NC@7-Pad20)*%
X149478400Y-78343800D03*
%TO.P,U8,21,NC@8*%
%TO.N,unconnected-(U8-NC@8-Pad21)*%
X149478400Y-78843800D03*
D42*
%TO.P,U8,22,NC@9*%
%TO.N,unconnected-(U8-NC@9-Pad22)*%
X150568400Y-79933800D03*
%TO.P,U8,23,CTS*%
%TO.N,unconnected-(U8-CTS-Pad23)*%
X151068400Y-79933800D03*
%TO.P,U8,24,RTS*%
%TO.N,unconnected-(U8-RTS-Pad24)*%
X151568400Y-79933800D03*
%TO.P,U8,25,RXD*%
%TO.N,RX_USB*%
X152068400Y-79933800D03*
%TO.P,U8,26,TXD*%
%TO.N,TX_USB*%
X152568400Y-79933800D03*
%TO.P,U8,27,DSR*%
%TO.N,unconnected-(U8-DSR-Pad27)*%
X153068400Y-79933800D03*
%TO.P,U8,28,DTR*%
%TO.N,unconnected-(U8-DTR-Pad28)*%
X153568400Y-79933800D03*
D43*
%TO.P,U8,29,PAD*%
%TO.N,Earth*%
X152068400Y-77343800D03*
%TD*%
D22*
%TO.P,C6,1*%
%TO.N,3.3V*%
X131798800Y-77190600D03*
%TO.P,C6,2*%
%TO.N,Earth*%
X130938800Y-77190600D03*
%TD*%
D15*
%TO.P,R25,1*%
%TO.N,Earth*%
X104572000Y-89128600D03*
%TO.P,R25,2*%
%TO.N,VIN_SW*%
X103708000Y-89128600D03*
%TD*%
D44*
%TO.P,U3,1,SDO*%
%TO.N,Earth*%
X127318201Y-95163609D03*
%TO.P,U3,2,NC*%
%TO.N,unconnected-(U3-NC-Pad2)*%
X126818200Y-95163609D03*
%TO.P,U3,3,NC*%
%TO.N,unconnected-(U3-NC-Pad3)*%
X126318200Y-95163609D03*
%TO.P,U3,4,INT1*%
%TO.N,IMU_INT1*%
X125818199Y-95163609D03*
D45*
%TO.P,U3,5,VDDIO*%
%TO.N,3.3V*%
X125653800Y-95819310D03*
%TO.P,U3,6,GNDIO*%
%TO.N,Earth*%
X125653800Y-96319309D03*
%TO.P,U3,7,GND*%
X125653800Y-96819308D03*
D44*
%TO.P,U3,8,VDD*%
%TO.N,3.3V*%
X125818199Y-97475009D03*
%TO.P,U3,9,INT2*%
%TO.N,IMU_INT2*%
X126318200Y-97475009D03*
%TO.P,U3,10,NC*%
%TO.N,unconnected-(U3-NC-Pad10)*%
X126818200Y-97475009D03*
%TO.P,U3,11,NC*%
%TO.N,unconnected-(U3-NC-Pad11)*%
X127318201Y-97475009D03*
D45*
%TO.P,U3,12,CSB*%
%TO.N,3.3V*%
X127482600Y-96819308D03*
%TO.P,U3,13,SCX*%
%TO.N,SCL*%
X127482600Y-96319309D03*
%TO.P,U3,14,SDX*%
%TO.N,SDA*%
X127482600Y-95819310D03*
%TD*%
D15*
%TO.P,R4,1*%
%TO.N,VIN*%
X160121800Y-72440800D03*
%TO.P,R4,2*%
%TO.N,VBAT_SENSE*%
X159257800Y-72440800D03*
%TD*%
%TO.P,R26,1*%
%TO.N,3.3V*%
X148183400Y-72948800D03*
%TO.P,R26,2*%
%TO.N,~{USB_RST}*%
X149047400Y-72948800D03*
%TD*%
D21*
%TO.P,Q3,1,G*%
%TO.N,AUX1*%
X117290850Y-82336599D03*
%TO.P,Q3,2,S*%
%TO.N,Earth*%
X117290850Y-83286600D03*
%TO.P,Q3,3*%
%TO.N,unconnected-(Q3-Pad3)*%
X117290850Y-84236601D03*
%TO.P,Q3,4*%
%TO.N,unconnected-(Q3-Pad4)*%
X119843550Y-84236601D03*
%TO.P,Q3,5,D*%
%TO.N,Net-(P4A-6)*%
X119843550Y-82336599D03*
%TD*%
D30*
%TO.P,C18,1*%
%TO.N,3.3V*%
X126468400Y-80822800D03*
%TO.P,C18,2*%
%TO.N,Earth*%
X127328400Y-80822800D03*
%TD*%
D11*
%TO.P,C17,1*%
%TO.N,3.3V*%
X129006600Y-77392000D03*
%TO.P,C17,2*%
%TO.N,Earth*%
X129006600Y-76532000D03*
%TD*%
D46*
%TO.P,P1,1,1*%
%TO.N,3.3V*%
X137621000Y-74066400D03*
%TO.P,P1,2,2*%
%TO.N,SWDIO*%
X138871000Y-74066400D03*
%TO.P,P1,3,3*%
%TO.N,SWCLK*%
X140121000Y-74066400D03*
%TO.P,P1,4,4*%
%TO.N,SWO*%
X141371000Y-74066400D03*
%TO.P,P1,5,5*%
%TO.N,NRST*%
X142621000Y-74066400D03*
%TO.P,P1,6,6*%
%TO.N,Earth*%
X143871000Y-74066400D03*
%TD*%
D17*
%TO.P,R1,1*%
%TO.N,STATUS_B*%
X139776200Y-100076200D03*
%TO.P,R1,2*%
%TO.N,Net-(D1-Pad2)*%
X139776200Y-99212200D03*
%TD*%
D11*
%TO.P,C9,1*%
%TO.N,CAP2*%
X148107400Y-82091000D03*
%TO.P,C9,2*%
%TO.N,Earth*%
X148107400Y-81231000D03*
%TD*%
D25*
%TO.P,Q6,1,G*%
%TO.N,Net-(P4A-6)*%
X119495999Y-86472799D03*
%TO.P,Q6,2,S*%
%TO.N,Earth*%
X119495999Y-87872801D03*
%TO.P,Q6,3,D*%
%TO.N,~{AUX1_CONT}*%
X121296000Y-87172800D03*
%TD*%
D11*
%TO.P,C24,1*%
%TO.N,5V*%
X154203400Y-73607400D03*
%TO.P,C24,2*%
%TO.N,Earth*%
X154203400Y-72747400D03*
%TD*%
D17*
%TO.P,R18,1*%
%TO.N,~{AUX1_CONT}*%
X121564400Y-84810800D03*
%TO.P,R18,2*%
%TO.N,3.3V*%
X121564400Y-83946800D03*
%TD*%
D21*
%TO.P,Q2,1,G*%
%TO.N,MAIN*%
X116846350Y-90789801D03*
%TO.P,Q2,2,S*%
%TO.N,Earth*%
X116846350Y-89839800D03*
%TO.P,Q2,3*%
%TO.N,unconnected-(Q2-Pad3)*%
X116846350Y-88889799D03*
%TO.P,Q2,4*%
%TO.N,unconnected-(Q2-Pad4)*%
X114293650Y-88889799D03*
%TO.P,Q2,5,D*%
%TO.N,Net-(P5B-6)*%
X114293650Y-90789801D03*
%TD*%
D11*
%TO.P,C20,1*%
%TO.N,DROGUE*%
X111887000Y-90600000D03*
%TO.P,C20,2*%
%TO.N,Earth*%
X111887000Y-89740000D03*
%TD*%
D47*
%TO.P,U6,1,VDD_IO*%
%TO.N,3.3V*%
X165668200Y-90880400D03*
%TO.P,U6,2,NC*%
%TO.N,unconnected-(U6-NC-Pad2)*%
X165168200Y-90880400D03*
%TO.P,U6,3,NC1*%
%TO.N,unconnected-(U6-NC1-Pad3)*%
X164668200Y-90880400D03*
%TO.P,U6,4,SCL/SPC*%
%TO.N,HG_ACC_SCL*%
X164168200Y-90880400D03*
%TO.P,U6,5,GND*%
%TO.N,Earth*%
X163668200Y-90880400D03*
D48*
%TO.P,U6,6,SDA/SDI/SDO*%
%TO.N,HG_ACC_SDA*%
X163448200Y-91600400D03*
%TO.P,U6,7,SDO/SA0*%
%TO.N,Earth*%
X163448200Y-92100400D03*
%TO.P,U6,8,CS*%
%TO.N,3.3V*%
X163448200Y-92600400D03*
D47*
%TO.P,U6,9,INT2*%
%TO.N,HG_ACC_INT2*%
X163668200Y-93320400D03*
%TO.P,U6,10,GND*%
%TO.N,Earth*%
X164168200Y-93320400D03*
%TO.P,U6,11,INT1*%
%TO.N,HG_ACC_INT1*%
X164668200Y-93320400D03*
%TO.P,U6,12,GND*%
%TO.N,Earth*%
X165168200Y-93320400D03*
%TO.P,U6,13,GND*%
X165668200Y-93320400D03*
D48*
%TO.P,U6,14,VDD*%
%TO.N,3.3V*%
X165888200Y-92600400D03*
%TO.P,U6,15,VDD*%
X165888200Y-92100400D03*
%TO.P,U6,16,GND*%
%TO.N,Earth*%
X165888200Y-91600400D03*
%TD*%
D15*
%TO.P,R11,1*%
%TO.N,HG_ACC_SDA*%
X161239000Y-93675200D03*
%TO.P,R11,2*%
%TO.N,3.3V*%
X162103000Y-93675200D03*
%TD*%
D20*
%TO.P,P4,1,5*%
%TO.N,VIN_SW*%
X121630201Y-77089000D03*
%TO.P,P4,2,6*%
%TO.N,Net-(P4A-6)*%
X118130200Y-77089000D03*
%TO.P,P4,3,5*%
%TO.N,VIN_SW*%
X114630200Y-77089000D03*
%TO.P,P4,4,6*%
%TO.N,Net-(P4B-6)*%
X111130199Y-77089000D03*
%TD*%
D17*
%TO.P,R12,1*%
%TO.N,BP_SDA*%
X124612400Y-77927000D03*
%TO.P,R12,2*%
%TO.N,3.3V*%
X124612400Y-78791000D03*
%TD*%
D15*
%TO.P,R10,1*%
%TO.N,BP_SCL*%
X126238000Y-75819000D03*
%TO.P,R10,2*%
%TO.N,3.3V*%
X127102000Y-75819000D03*
%TD*%
D16*
%TO.P,C4,1*%
%TO.N,CAP1*%
X141020800Y-96674200D03*
%TO.P,C4,2*%
%TO.N,Earth*%
X141020800Y-97534200D03*
%TD*%
D24*
%TO.P,D3,A*%
%TO.N,5V*%
X160319600Y-75285600D03*
%TO.P,D3,C*%
%TO.N,VIN*%
X159669600Y-75285600D03*
%TD*%
D49*
%TO.P,Y1,4*%
%TO.N,unconnected-(Y1-Pad4)*%
X126227200Y-85615000D03*
%TO.P,Y1,3,3*%
%TO.N,OSC_OUT*%
X124877200Y-85615000D03*
%TO.P,Y1,2*%
%TO.N,unconnected-(Y1-Pad2)*%
X124877200Y-84565000D03*
%TO.P,Y1,1,1*%
%TO.N,OSC_IN*%
X126227200Y-84565000D03*
%TD*%
D15*
%TO.P,R14,1*%
%TO.N,Earth*%
X116027400Y-85471000D03*
%TO.P,R14,2*%
%TO.N,Net-(P4A-6)*%
X115163400Y-85471000D03*
%TD*%
D11*
%TO.P,C16,1*%
%TO.N,3.3V*%
X124155200Y-97788200D03*
%TO.P,C16,2*%
%TO.N,Earth*%
X124155200Y-96928200D03*
%TD*%
D15*
%TO.P,R19,1*%
%TO.N,~{AUX2_CONT}*%
X100812400Y-77139800D03*
%TO.P,R19,2*%
%TO.N,3.3V*%
X101676400Y-77139800D03*
%TD*%
D22*
%TO.P,C8,1*%
%TO.N,3.3V*%
X128547600Y-89865200D03*
%TO.P,C8,2*%
%TO.N,Earth*%
X127687600Y-89865200D03*
%TD*%
D13*
%TO.P,Q5,1,G*%
%TO.N,Net-(P5B-6)*%
X124394999Y-92619401D03*
%TO.P,Q5,2,S*%
%TO.N,Earth*%
X125795001Y-92619401D03*
%TO.P,Q5,3,D*%
%TO.N,~{MAIN_CONT}*%
X125095000Y-90819400D03*
%TD*%
D50*
%TO.N,3.3V*%
X165125400Y-89408000D03*
%TO.N,Earth*%
X162330600Y-90880400D03*
%TO.N,VBAT_SENSE*%
X134899400Y-92913200D03*
X135610600Y-73152000D03*
%TO.N,Earth*%
X157632400Y-75285600D03*
X147675600Y-77190600D03*
X147193000Y-79806800D03*
%TO.N,3.3V*%
X145973800Y-79781400D03*
%TO.N,Earth*%
X152857200Y-76809600D03*
X151384000Y-76809600D03*
X152882600Y-78130400D03*
X151460200Y-78130400D03*
%TO.N,VIN*%
X156718000Y-85521800D03*
%TO.N,BEEP*%
X149529800Y-89001600D03*
X156311600Y-100990400D03*
%TO.N,Net-(BZ1-+)*%
X159167400Y-99709400D03*
%TO.N,3.3V*%
X153390600Y-94437200D03*
X162458400Y-92583000D03*
%TO.N,HG_ACC_SCL*%
X136855200Y-83769200D03*
%TO.N,HG_ACC_SDA*%
X136753600Y-85445600D03*
X153703400Y-91600400D03*
%TO.N,HG_ACC_SCL*%
X153543000Y-90068400D03*
%TO.N,Earth*%
X164642800Y-92100400D03*
X154025600Y-95758000D03*
D51*
%TO.N,3.3V*%
X151625300Y-95135700D03*
%TO.N,Earth*%
X147980400Y-100431600D03*
D50*
%TO.N,~{FLASH_HOLD}*%
X148437600Y-88163400D03*
X149783800Y-97663000D03*
%TO.N,~{FLASH_WP}*%
X143433800Y-89662000D03*
X146304000Y-99695000D03*
%TO.N,~{FLASH_SS}*%
X146710400Y-93878400D03*
X145796000Y-95859600D03*
%TO.N,3.3V*%
X136493900Y-97192400D03*
X132994400Y-100177600D03*
%TO.N,SDA*%
X132588000Y-97586800D03*
X141478000Y-91363800D03*
%TO.N,Earth*%
X130581400Y-99618800D03*
%TO.N,3.3V*%
X130200400Y-98475800D03*
%TO.N,Earth*%
X123113600Y-99948800D03*
%TO.N,IMU_INT2*%
X133273800Y-91236800D03*
X126318200Y-98403600D03*
%TO.N,3.3V*%
X129311400Y-95402400D03*
%TO.N,Earth*%
X127635000Y-94284800D03*
%TO.N,3.3V*%
X122885200Y-96316800D03*
%TO.N,Earth*%
X126492000Y-96316800D03*
X125145800Y-73812400D03*
%TO.N,BOOT*%
X135839200Y-74879200D03*
X134823200Y-77063600D03*
%TO.N,BP_SDA*%
X124612400Y-76454000D03*
X127965200Y-76454000D03*
%TO.N,SWO*%
X140030200Y-77343000D03*
%TO.N,Earth*%
X128219200Y-81635600D03*
%TO.N,3.3V*%
X125018800Y-80289400D03*
X130073400Y-77419200D03*
%TO.N,Earth*%
X126873000Y-78663800D03*
%TO.N,NRST*%
X140208000Y-84810600D03*
%TO.N,~{AUX2_CONT}*%
X100304600Y-79349600D03*
X128054600Y-82715600D03*
%TO.N,Earth*%
X123367800Y-86360000D03*
%TO.N,3.3V*%
X132156200Y-86182200D03*
X122453400Y-85598000D03*
%TO.N,Earth*%
X126314200Y-91211400D03*
%TO.N,3.3V*%
X121488200Y-92506800D03*
%TO.N,Earth*%
X133273800Y-80518000D03*
X132359400Y-76327000D03*
%TO.N,3.3V*%
X145440400Y-94792800D03*
%TO.N,Earth*%
X143535400Y-92837000D03*
X141681200Y-98221800D03*
%TO.N,3.3V*%
X133350000Y-92887800D03*
%TO.N,Earth*%
X131292600Y-94919800D03*
%TO.N,3.3V*%
X132384800Y-90195400D03*
X107772200Y-87401400D03*
X99669600Y-93040200D03*
D51*
%TO.N,VIN*%
X158038800Y-73964800D03*
D50*
%TO.N,Earth*%
X118694200Y-83286600D03*
X112445800Y-83261200D03*
D51*
%TO.N,3.3V*%
X102184200Y-78917800D03*
D50*
%TO.N,Earth*%
X115620800Y-89839800D03*
X108864400Y-89941400D03*
X132056000Y-85215600D03*
D51*
X107391200Y-81483200D03*
X106426000Y-77089000D03*
%TO.N,3.3V*%
X104470200Y-76733400D03*
%TO.N,VIN*%
X105511600Y-94462600D03*
D50*
%TO.N,TX_USB*%
X150596600Y-85902800D03*
X152196800Y-86969600D03*
%TO.N,/Peripherals/D+*%
X157759400Y-76555600D03*
%TO.N,Earth*%
X158724600Y-77190600D03*
%TO.N,/Peripherals/D+*%
X156260800Y-77597000D03*
%TD*%
D52*
%TO.N,BP_INT*%
X127123500Y-79426300D02*
X127127500Y-79426300D01*
X127127500Y-79426300D02*
X128760500Y-81059300D01*
X128760500Y-81059300D02*
X128760500Y-81770500D01*
X128760500Y-81770500D02*
X129184400Y-82194400D01*
X129184400Y-82194400D02*
X130073400Y-82194400D01*
%TO.N,Earth*%
X108864400Y-89941400D02*
X106349800Y-89941400D01*
X106349800Y-89941400D02*
X105918000Y-90373200D01*
X105918000Y-90373200D02*
X105918000Y-90855800D01*
D53*
X110293150Y-89941400D02*
X108864400Y-89941400D01*
X111093250Y-83261200D02*
X112445800Y-83261200D01*
D52*
X129006600Y-76532000D02*
X130253000Y-76532000D01*
X130253000Y-76532000D02*
X130759200Y-77038200D01*
X118516400Y-89740000D02*
X118516400Y-88493600D01*
X118516400Y-88493600D02*
X119126000Y-87884000D01*
X100456800Y-94615000D02*
X100406200Y-94615000D01*
X100406200Y-94615000D02*
X98044000Y-96977200D01*
%TO.N,3.3V*%
X165862000Y-89662000D02*
X166522400Y-89662000D01*
X166522400Y-89662000D02*
X166547800Y-89636600D01*
X165125400Y-89408000D02*
X165608000Y-89408000D01*
X165608000Y-89408000D02*
X165862000Y-89662000D01*
%TO.N,Earth*%
X163668200Y-90880400D02*
X162330600Y-90880400D01*
%TO.N,3.3V*%
X128141200Y-91186000D02*
X128141200Y-90349600D01*
X128141200Y-90349600D02*
X128371600Y-90119200D01*
%TO.N,VBAT_SENSE*%
X134306100Y-94395600D02*
X134306100Y-93506500D01*
X134306100Y-93506500D02*
X134899400Y-92913200D01*
X157454800Y-72415400D02*
X157454800Y-71937600D01*
X157454800Y-71937600D02*
X157246800Y-71729600D01*
X154584400Y-71729600D02*
X154279600Y-72034400D01*
X157246800Y-71729600D02*
X154584400Y-71729600D01*
X154279600Y-72034400D02*
X136728200Y-72034400D01*
X136728200Y-72034400D02*
X135610600Y-73152000D01*
%TO.N,Earth*%
X156589200Y-74726800D02*
X156589200Y-72569600D01*
X156589200Y-72569600D02*
X156616400Y-72542400D01*
X156589200Y-74726800D02*
X157073600Y-74726800D01*
X157073600Y-74726800D02*
X157632400Y-75285600D01*
X156590800Y-72415400D02*
X154609800Y-72415400D01*
X154609800Y-72415400D02*
X154432000Y-72593200D01*
%TO.N,VIN*%
X159669600Y-75285600D02*
X159669600Y-73934200D01*
X159669600Y-73934200D02*
X160147000Y-73456800D01*
X160147000Y-73456800D02*
X160147000Y-72618600D01*
%TO.N,VBAT_SENSE*%
X157454800Y-72415400D02*
X159181800Y-72415400D01*
%TO.N,USB_DETECT*%
X145986100Y-89715600D02*
X152346400Y-89715600D01*
X152346400Y-89715600D02*
X152730200Y-89331800D01*
X162813800Y-87477600D02*
X156895800Y-87477600D01*
X156895800Y-87477600D02*
X155041600Y-89331800D01*
X155041600Y-89331800D02*
X152730200Y-89331800D01*
%TO.N,5V*%
X163627000Y-88798400D02*
X164058600Y-88798400D01*
X164058600Y-88798400D02*
X164257200Y-88599800D01*
X164257200Y-88599800D02*
X164257200Y-83850000D01*
%TO.N,Earth*%
X163677800Y-87477600D02*
X163677800Y-86614200D01*
X163677800Y-86614200D02*
X163347400Y-86283800D01*
X163347400Y-86283800D02*
X163347400Y-85064600D01*
%TO.N,USB_DETECT*%
X162813800Y-87477600D02*
X162813800Y-88823600D01*
D54*
%TO.N,Earth*%
X163326500Y-81250000D02*
X163326500Y-79989100D01*
D52*
%TO.N,3.3V*%
X148183400Y-72948800D02*
X147421600Y-72948800D01*
X147421600Y-72948800D02*
X145237200Y-75133200D01*
X145237200Y-75133200D02*
X145237200Y-78638400D01*
X145237200Y-78638400D02*
X145516600Y-78917800D01*
X145516600Y-78917800D02*
X146024600Y-78917800D01*
%TO.N,Earth*%
X147675600Y-76174800D02*
X147675600Y-77190600D01*
%TO.N,~{USB_RST}*%
X149047400Y-72948800D02*
X149047400Y-73685200D01*
X149047400Y-73685200D02*
X148386800Y-74345800D01*
X147828000Y-79552800D02*
X149148800Y-80873600D01*
X148386800Y-74345800D02*
X147167600Y-74345800D01*
X147167600Y-74345800D02*
X146786600Y-74726800D01*
X146786600Y-74726800D02*
X146786600Y-77673200D01*
X146786600Y-77673200D02*
X147828000Y-78714600D01*
X147828000Y-78714600D02*
X147828000Y-79552800D01*
X149148800Y-80873600D02*
X149148800Y-82296000D01*
X149148800Y-82296000D02*
X148691600Y-82753200D01*
X148691600Y-82753200D02*
X146608800Y-82753200D01*
%TO.N,Earth*%
X147193000Y-79806800D02*
X147193000Y-81215600D01*
X146202400Y-78056000D02*
X146661400Y-78056000D01*
X145986100Y-81215600D02*
X147193000Y-81215600D01*
X147193000Y-81215600D02*
X147916000Y-81215600D01*
X146661400Y-78056000D02*
X147193000Y-78587600D01*
X147193000Y-78587600D02*
X147193000Y-79806800D01*
%TO.N,3.3V*%
X145986100Y-79769100D02*
X145986100Y-79133300D01*
X145973800Y-79781400D02*
X145986100Y-79769100D01*
X145986100Y-79793700D02*
X145973800Y-79781400D01*
X145986100Y-80715600D02*
X145986100Y-79793700D01*
%TO.N,Earth*%
X147916000Y-81215600D02*
X147955000Y-81254600D01*
%TO.N,CAP2*%
X145986100Y-81715600D02*
X147044400Y-81715600D01*
X147044400Y-81715600D02*
X147396200Y-82067400D01*
X147396200Y-82067400D02*
X148107400Y-82067400D01*
%TO.N,~{USB_SUSPEND}*%
X145986100Y-84715600D02*
X148304000Y-84715600D01*
X148304000Y-84715600D02*
X150342600Y-82677000D01*
X150342600Y-82677000D02*
X150342600Y-80949800D01*
X150342600Y-80949800D02*
X148361600Y-78968800D01*
X148361600Y-78968800D02*
X148361600Y-75310800D01*
X147675600Y-75310800D02*
X148361600Y-75310800D01*
X148361600Y-75310800D02*
X150088600Y-73583800D01*
X150088600Y-73583800D02*
X151841200Y-73583800D01*
X151841200Y-73583800D02*
X152068400Y-73811000D01*
X152068400Y-73811000D02*
X152068400Y-74753800D01*
%TO.N,~{USB_RST}*%
X153068400Y-73591800D02*
X152400000Y-72923400D01*
X153068400Y-74753800D02*
X153068400Y-73591800D01*
X152400000Y-72923400D02*
X149072600Y-72923400D01*
%TO.N,Earth*%
X154658400Y-77843800D02*
X153358000Y-77843800D01*
D53*
%TO.N,5V*%
X160655000Y-77139800D02*
X160655000Y-76098400D01*
X160655000Y-76098400D02*
X160655000Y-75666600D01*
D55*
X160655000Y-76098400D02*
X160532800Y-75976200D01*
X160532800Y-75976200D02*
X156062400Y-75976200D01*
X156062400Y-75976200D02*
X155702000Y-75615800D01*
X155702000Y-75615800D02*
X155702000Y-74879200D01*
X154711400Y-74726800D02*
X154228800Y-74726800D01*
X154228800Y-74726800D02*
X153644600Y-74726800D01*
X154203400Y-73607400D02*
X154203400Y-74701400D01*
X154203400Y-74701400D02*
X154228800Y-74726800D01*
X155729200Y-74726800D02*
X154711400Y-74726800D01*
X154658400Y-75843800D02*
X154658400Y-74779800D01*
X154658400Y-74779800D02*
X154711400Y-74726800D01*
D54*
%TO.N,VIN*%
X151063800Y-88696800D02*
X153543000Y-88696800D01*
X153543000Y-88696800D02*
X156718000Y-85521800D01*
D52*
%TO.N,BEEP*%
X145986100Y-87715600D02*
X146943900Y-87715600D01*
X146943900Y-87715600D02*
X147181900Y-87477600D01*
X147181900Y-87477600D02*
X148894800Y-87477600D01*
X148894800Y-87477600D02*
X149529800Y-88112600D01*
X149529800Y-88112600D02*
X149529800Y-89001600D01*
X156311600Y-100990400D02*
X156311600Y-98196400D01*
X156311600Y-98196400D02*
X156554401Y-97953599D01*
X156554401Y-97953599D02*
X157367399Y-97953599D01*
D54*
%TO.N,Net-(BZ1-+)*%
X159167400Y-98653600D02*
X159167400Y-99709400D01*
%TO.N,Earth*%
X157367399Y-99353601D02*
X157367399Y-100445999D01*
X157367399Y-100445999D02*
X157759400Y-100838000D01*
X157759400Y-100838000D02*
X161340800Y-100838000D01*
X161340800Y-100838000D02*
X163728400Y-98450400D01*
D52*
%TO.N,HG_ACC_INT1*%
X145986100Y-90715600D02*
X150741652Y-90715600D01*
X156952452Y-96926400D02*
X160451800Y-96926400D01*
X150741652Y-90715600D02*
X156952452Y-96926400D01*
X160451800Y-96926400D02*
X162864800Y-94513400D01*
X162864800Y-94513400D02*
X163906200Y-94513400D01*
X163906200Y-94513400D02*
X164668200Y-93751400D01*
X164668200Y-93751400D02*
X164668200Y-93320400D01*
%TO.N,3.3V*%
X153470314Y-94437200D02*
X155295600Y-96262486D01*
X153390600Y-94437200D02*
X153470314Y-94437200D01*
X155295600Y-96262486D02*
X155295600Y-98552000D01*
%TO.N,HG_ACC_INT2*%
X161424813Y-95486413D02*
X160675513Y-96235713D01*
X150708626Y-90215600D02*
X156995439Y-96502413D01*
X145986100Y-90215600D02*
X150708626Y-90215600D01*
X156995439Y-96502413D02*
X160408813Y-96502413D01*
X160408813Y-96502413D02*
X160675513Y-96235713D01*
%TO.N,FLASH_MOSI*%
X153035000Y-99796600D02*
X153035000Y-95199200D01*
X145986100Y-91215600D02*
X149051400Y-91215600D01*
X149051400Y-91215600D02*
X153035000Y-95199200D01*
%TO.N,Earth*%
X154025600Y-99669400D02*
X154025600Y-95758000D01*
%TO.N,HG_ACC_INT2*%
X163668200Y-93320400D02*
X163668200Y-93786200D01*
X163668200Y-93786200D02*
X163271200Y-94183200D01*
X163271200Y-94183200D02*
X162728026Y-94183200D01*
X162728026Y-94183200D02*
X161424813Y-95486413D01*
%TO.N,HG_ACC_SCL*%
X157480000Y-95478600D02*
X157162500Y-95161100D01*
X157162500Y-95161100D02*
X156895800Y-94894400D01*
X159105400Y-95453200D02*
X157454600Y-95453200D01*
X157454600Y-95453200D02*
X157162500Y-95161100D01*
%TO.N,HG_ACC_SDA*%
X163448200Y-91600400D02*
X161264600Y-91600400D01*
X161264600Y-91600400D02*
X161112200Y-91600400D01*
X161239000Y-93675200D02*
X161239000Y-91626000D01*
X161239000Y-91626000D02*
X161264600Y-91600400D01*
%TO.N,3.3V*%
X162103000Y-93675200D02*
X162103000Y-92938400D01*
X162103000Y-92938400D02*
X162458400Y-92583000D01*
X162103000Y-93675200D02*
X162103000Y-94153000D01*
X162103000Y-94153000D02*
X161818800Y-94437200D01*
X161818800Y-94437200D02*
X161010600Y-94437200D01*
X161010600Y-94437200D02*
X160096200Y-95351600D01*
%TO.N,HG_ACC_SCL*%
X156895800Y-94894400D02*
X154940000Y-92938600D01*
X153543000Y-92583000D02*
X153085800Y-92125800D01*
X153543000Y-90068400D02*
X153085800Y-90525600D01*
X153085800Y-90525600D02*
X153085800Y-92125800D01*
X153873200Y-92583000D02*
X153543000Y-92583000D01*
X154584400Y-92583000D02*
X153873200Y-92583000D01*
X154940000Y-92938600D02*
X154584400Y-92583000D01*
%TO.N,3.3V*%
X163448200Y-92600400D02*
X162475800Y-92600400D01*
%TO.N,HG_ACC_SDA*%
X161112200Y-91600400D02*
X153703400Y-91600400D01*
%TO.N,HG_ACC_SCL*%
X134806100Y-79035600D02*
X134806100Y-81720100D01*
X134806100Y-81720100D02*
X136855200Y-83769200D01*
%TO.N,HG_ACC_SDA*%
X134306100Y-79035600D02*
X134306100Y-82998100D01*
X134306100Y-82998100D02*
X136753600Y-85445600D01*
%TO.N,HG_ACC_SCL*%
X153543000Y-90068400D02*
X163982400Y-90068400D01*
X163982400Y-90068400D02*
X164168200Y-90254200D01*
X164168200Y-90254200D02*
X164168200Y-90880400D01*
%TO.N,3.3V*%
X165888200Y-92100400D02*
X166624000Y-92100400D01*
X165888200Y-92600400D02*
X166370000Y-92600400D01*
X166624000Y-92405200D02*
X166428800Y-92600400D01*
X166428800Y-92600400D02*
X166370000Y-92600400D01*
X166624000Y-92405200D02*
X166624000Y-91897200D01*
X166624000Y-91897200D02*
X166624000Y-90906600D01*
X166624000Y-90906600D02*
X166624000Y-90347800D01*
X165668200Y-90880400D02*
X166597800Y-90880400D01*
X166597800Y-90880400D02*
X166624000Y-90906600D01*
X166624000Y-90347800D02*
X166624000Y-89712800D01*
%TO.N,Earth*%
X166649400Y-88749400D02*
X166649400Y-88036400D01*
X166649400Y-88036400D02*
X165989000Y-87376000D01*
X165989000Y-87376000D02*
X165989000Y-86131400D01*
X165668200Y-93320400D02*
X165278600Y-93320400D01*
X165278600Y-93320400D02*
X165227000Y-93268800D01*
X165168200Y-93320400D02*
X165168200Y-92625800D01*
X165168200Y-92625800D02*
X164642800Y-92100400D01*
X164168200Y-93320400D02*
X164168200Y-92575000D01*
X164168200Y-92575000D02*
X164642800Y-92100400D01*
X165888200Y-91600400D02*
X165142800Y-91600400D01*
X165142800Y-91600400D02*
X164642800Y-92100400D01*
X163448200Y-92100400D02*
X164642800Y-92100400D01*
D53*
%TO.N,3.3V*%
X151625300Y-96399550D02*
X151625300Y-95135700D01*
%TO.N,Earth*%
X147980400Y-100431600D02*
X144557550Y-100431600D01*
X144557550Y-100431600D02*
X144335500Y-100209550D01*
D52*
%TO.N,~{FLASH_HOLD}*%
X148437600Y-88163400D02*
X146710400Y-88163400D01*
X146710400Y-88163400D02*
X146659600Y-88214200D01*
X149809200Y-97669550D02*
X149815750Y-97669550D01*
X149783800Y-97663000D02*
X149809200Y-97669550D01*
X149822300Y-97669550D02*
X149783800Y-97663000D01*
X151625300Y-97669550D02*
X149822300Y-97669550D01*
%TO.N,~{FLASH_WP}*%
X145986100Y-88715600D02*
X144380200Y-88715600D01*
X144380200Y-88715600D02*
X143433800Y-89662000D01*
X144335500Y-98939550D02*
X145548550Y-98939550D01*
X145548550Y-98939550D02*
X146304000Y-99695000D01*
%TO.N,FLASH_MISO*%
X144335500Y-97669550D02*
X145941850Y-97669550D01*
X144602200Y-93065600D02*
X144602200Y-91973400D01*
X145941850Y-97669550D02*
X146532600Y-97078800D01*
X146532600Y-94996000D02*
X144602200Y-93065600D01*
X146532600Y-97078800D02*
X146532600Y-94996000D01*
X144602200Y-91973400D02*
X144856200Y-91719400D01*
X144856200Y-91719400D02*
X145338800Y-91719400D01*
%TO.N,~{FLASH_SS}*%
X144335500Y-96399550D02*
X143909850Y-96399550D01*
X143909850Y-96399550D02*
X143154400Y-97155000D01*
X143154400Y-97155000D02*
X143154400Y-100507800D01*
X143154400Y-100507800D02*
X143916400Y-101269800D01*
X143916400Y-101269800D02*
X154711400Y-101269800D01*
X154711400Y-101269800D02*
X155371800Y-100609400D01*
X155371800Y-100609400D02*
X155371800Y-99466400D01*
X145986100Y-92715600D02*
X145986100Y-93154100D01*
X145986100Y-93154100D02*
X146710400Y-93878400D01*
X144335500Y-96399550D02*
X145256050Y-96399550D01*
X145256050Y-96399550D02*
X145796000Y-95859600D01*
%TO.N,FLASH_SCK*%
X151625300Y-98939550D02*
X150063200Y-98939550D01*
X150063200Y-98939550D02*
X149587150Y-98939550D01*
X152730200Y-100914200D02*
X150317200Y-100914200D01*
X154025600Y-100533400D02*
X153111000Y-100533400D01*
X153111000Y-100533400D02*
X152730200Y-100914200D01*
X150317200Y-100914200D02*
X150012400Y-100609400D01*
X150012400Y-100609400D02*
X150012400Y-98990350D01*
X150012400Y-98990350D02*
X150063200Y-98939550D01*
%TO.N,FLASH_MOSI*%
X151625300Y-100209550D02*
X152622050Y-100209550D01*
X152622050Y-100209550D02*
X153035000Y-99796600D01*
%TO.N,FLASH_SCK*%
X149587150Y-98939550D02*
X147980400Y-97332800D01*
X147980400Y-97332800D02*
X147980400Y-92862400D01*
X147980400Y-92862400D02*
X147345400Y-92227400D01*
X147345400Y-92227400D02*
X146507200Y-92227400D01*
%TO.N,STATUS_G*%
X141706600Y-99237600D02*
X141604800Y-99237600D01*
X141604800Y-99237600D02*
X140182600Y-97815400D01*
X140182600Y-97815400D02*
X140182600Y-96113600D01*
X140182600Y-96113600D02*
X140806100Y-95490100D01*
X140806100Y-95490100D02*
X140806100Y-94395600D01*
%TO.N,STATUS_B*%
X140512800Y-98806000D02*
X140093700Y-98386900D01*
X139806100Y-94395600D02*
X139806100Y-98099300D01*
X139806100Y-98099300D02*
X140093700Y-98386900D01*
X140233200Y-100076200D02*
X140512800Y-99796600D01*
X140512800Y-99796600D02*
X140512800Y-98806000D01*
X139776200Y-100076200D02*
X140233200Y-100076200D01*
%TO.N,Net-(D1-Pad3)*%
X137993900Y-99330600D02*
X137993900Y-100249500D01*
X137993900Y-100249500D02*
X138887200Y-101142800D01*
X138887200Y-101142800D02*
X140589000Y-101142800D01*
X140589000Y-101142800D02*
X141554200Y-100177600D01*
%TO.N,Net-(D1-Pad2)*%
X139776200Y-99212200D02*
X139141000Y-99212200D01*
X139141000Y-99212200D02*
X138404600Y-98475800D01*
%TO.N,Net-(D1-Pad4)*%
X136093200Y-100609400D02*
X134899400Y-100609400D01*
X136493900Y-99330600D02*
X136493900Y-100208700D01*
X136493900Y-100208700D02*
X136093200Y-100609400D01*
X134899400Y-100609400D02*
X134848600Y-100558600D01*
%TO.N,STATUS_R*%
X136702800Y-96189800D02*
X135610600Y-96189800D01*
X138150600Y-96189800D02*
X136702800Y-96189800D01*
X134747000Y-97053400D02*
X134747000Y-99695000D01*
X135610600Y-96189800D02*
X134747000Y-97053400D01*
%TO.N,3.3V*%
X136493900Y-98230600D02*
X136493900Y-97192400D01*
%TO.N,MAG_INT*%
X135306100Y-94395600D02*
X135306100Y-95478300D01*
X133218614Y-100718900D02*
X132138700Y-100718900D01*
X135306100Y-95478300D02*
X133654800Y-97129600D01*
X133654800Y-97129600D02*
X133654800Y-100282714D01*
X131741550Y-100321750D02*
X131741550Y-100008050D01*
X133654800Y-100282714D02*
X133218614Y-100718900D01*
X132138700Y-100718900D02*
X131741550Y-100321750D01*
%TO.N,MAG_DRDY*%
X133324600Y-98907600D02*
X133172200Y-99060000D01*
X134806100Y-95368700D02*
X133324600Y-96850200D01*
X133324600Y-98907600D02*
X133324600Y-96850200D01*
X134806100Y-94395600D02*
X134806100Y-95368700D01*
%TO.N,STATUS_R*%
X138806100Y-94395600D02*
X138806100Y-95534300D01*
X138806100Y-95534300D02*
X138150600Y-96189800D01*
D56*
%TO.N,3.3V*%
X132994400Y-100177600D02*
X132588000Y-99771200D01*
X132588000Y-99771200D02*
X132588000Y-99669600D01*
%TO.N,MAG_DRDY*%
X132325050Y-99350900D02*
X132932100Y-99350900D01*
X132307550Y-99333400D02*
X132325050Y-99350900D01*
X132932100Y-99350900D02*
X133146800Y-99136200D01*
D52*
%TO.N,SDA*%
X132307550Y-97867250D02*
X132588000Y-97586800D01*
X141479873Y-92016300D02*
X141478000Y-91363800D01*
D56*
%TO.N,MAG_INT*%
X131741550Y-99333400D02*
X131741550Y-100008050D01*
%TO.N,Earth*%
X131458550Y-99616400D02*
X130581400Y-99618800D01*
X132590550Y-99050400D02*
X132590550Y-98503750D01*
%TO.N,3.3V*%
X130191800Y-98484400D02*
X129243800Y-98484400D01*
X130200400Y-98475800D02*
X130191800Y-98484400D01*
X130209000Y-98484400D02*
X130200400Y-98475800D01*
X131458550Y-98484400D02*
X130209000Y-98484400D01*
X129243800Y-98484400D02*
X129209800Y-98450400D01*
X131741550Y-98767400D02*
X131500750Y-98526600D01*
D52*
%TO.N,SCL*%
X129108200Y-97586600D02*
X131419400Y-97586600D01*
X131419400Y-97586600D02*
X131648200Y-97815400D01*
D56*
X132024550Y-98484400D02*
X132024550Y-98191750D01*
X132024550Y-98191750D02*
X131648200Y-97815400D01*
%TO.N,SDA*%
X132307550Y-98767400D02*
X132307550Y-97867250D01*
%TO.N,Earth*%
X131458550Y-99050400D02*
X131458550Y-99605250D01*
X131458550Y-99050400D02*
X132029200Y-99050400D01*
X132029200Y-99050400D02*
X132572200Y-99050400D01*
X132024550Y-99616400D02*
X132024550Y-99055050D01*
X132024550Y-99055050D02*
X132029200Y-99050400D01*
D52*
X124231400Y-99948800D02*
X123113600Y-99948800D01*
%TO.N,IMU_INT2*%
X133273800Y-91236800D02*
X132613400Y-91236800D01*
X132613400Y-91236800D02*
X132156200Y-91694000D01*
X132156200Y-91694000D02*
X132156200Y-92192226D01*
X132156200Y-92192226D02*
X131663826Y-92684600D01*
X131663826Y-92684600D02*
X131191000Y-92684600D01*
X126318200Y-97475009D02*
X126318200Y-98403600D01*
%TO.N,3.3V*%
X128143000Y-97942400D02*
X128549400Y-98348800D01*
X127934308Y-96819308D02*
X128143000Y-97028000D01*
X127482600Y-96819308D02*
X127934308Y-96819308D01*
X128143000Y-97028000D02*
X128143000Y-97942400D01*
X128549400Y-98348800D02*
X128930400Y-98348800D01*
%TO.N,SCL*%
X128879600Y-96319309D02*
X128978691Y-96319309D01*
X128346200Y-96319309D02*
X128879600Y-96319309D01*
X128879600Y-96319309D02*
X129639091Y-96319309D01*
X129639091Y-96319309D02*
X130429000Y-95529400D01*
X130429000Y-95529400D02*
X130429000Y-94853374D01*
X130429000Y-94853374D02*
X132910387Y-92371987D01*
%TO.N,3.3V*%
X129692600Y-94335600D02*
X129692600Y-95021200D01*
X129692600Y-95021200D02*
X129311400Y-95402400D01*
%TO.N,SCL*%
X128978691Y-96319309D02*
X128978691Y-96873091D01*
X128978691Y-96873091D02*
X129057400Y-96951800D01*
X127482600Y-96319309D02*
X128346200Y-96319309D01*
X141343100Y-92346500D02*
X142306100Y-93309500D01*
X132951500Y-92346500D02*
X141343100Y-92346500D01*
X142306100Y-93309500D02*
X142306100Y-94395600D01*
%TO.N,SDA*%
X128828600Y-93751600D02*
X129082800Y-93497400D01*
X128828600Y-94335600D02*
X128828600Y-93751600D01*
X132799100Y-92016300D02*
X131521200Y-93294200D01*
X129082800Y-93497400D02*
X131318000Y-93497400D01*
X131318000Y-93497400D02*
X131521200Y-93294200D01*
X128828600Y-94335600D02*
X128828600Y-94920000D01*
X128828600Y-94920000D02*
X127914400Y-95834200D01*
X127914400Y-95834200D02*
X127609600Y-95834200D01*
X127482600Y-95819310D02*
X127573690Y-95819310D01*
%TO.N,Earth*%
X127318201Y-95163609D02*
X127318201Y-94601599D01*
X127318201Y-94601599D02*
X127635000Y-94284800D01*
%TO.N,IMU_INT1*%
X125818199Y-95163609D02*
X125818199Y-94247401D01*
X125818199Y-94247401D02*
X126161800Y-93903800D01*
X126161800Y-93903800D02*
X127085974Y-93903800D01*
X127085974Y-93903800D02*
X128774174Y-92215600D01*
X128774174Y-92215600D02*
X130626100Y-92215600D01*
%TO.N,SDA*%
X142806100Y-94395600D02*
X142806100Y-93342526D01*
X142806100Y-93342526D02*
X141479873Y-92016300D01*
X141479873Y-92016300D02*
X132799100Y-92016300D01*
%TO.N,SCL*%
X129057400Y-96951800D02*
X129057400Y-97434400D01*
%TO.N,3.3V*%
X122885200Y-96316800D02*
X122885200Y-95300800D01*
X122885200Y-95300800D02*
X123393200Y-94792800D01*
X123315200Y-97788200D02*
X122885200Y-97358200D01*
X124155200Y-97788200D02*
X123315200Y-97788200D01*
X122885200Y-97358200D02*
X122885200Y-96316800D01*
X123393200Y-94792800D02*
X124028200Y-94792800D01*
%TO.N,Earth*%
X125653800Y-96319309D02*
X126492000Y-96316800D01*
%TO.N,3.3V*%
X125818199Y-97475009D02*
X125409991Y-97475009D01*
X125409991Y-97475009D02*
X125095000Y-97790000D01*
X125095000Y-97790000D02*
X124307600Y-97790000D01*
%TO.N,Earth*%
X124155200Y-95680000D02*
X124155200Y-96266000D01*
X124155200Y-96266000D02*
X124155200Y-96901000D01*
X125653800Y-96319309D02*
X124208509Y-96319309D01*
X124208509Y-96319309D02*
X124155200Y-96266000D01*
X125653800Y-96819308D02*
X125653800Y-96342200D01*
%TO.N,3.3V*%
X125588110Y-95819310D02*
X124663200Y-94894400D01*
X125653800Y-95819310D02*
X125588110Y-95819310D01*
X124663200Y-94894400D02*
X124358400Y-94894400D01*
%TO.N,Net-(P5B-6)*%
X124231400Y-100812800D02*
X122606000Y-100812800D01*
X121081800Y-98577400D02*
X121081800Y-96164400D01*
X122606000Y-100812800D02*
X121081800Y-99288600D01*
X121081800Y-99288600D02*
X121081800Y-98577400D01*
%TO.N,Earth*%
X127507800Y-73177400D02*
X125780800Y-73177400D01*
X125780800Y-73177400D02*
X125145800Y-73812400D01*
%TO.N,Net-(D5-Pad1)*%
X130926700Y-73228200D02*
X128422400Y-73228200D01*
X128422400Y-73228200D02*
X128397000Y-73202800D01*
%TO.N,3.3V*%
X134620000Y-74066400D02*
X137617200Y-74066400D01*
X132369700Y-73228200D02*
X133781800Y-73228200D01*
X133781800Y-73228200D02*
X134620000Y-74066400D01*
X137617200Y-74066400D02*
X137642600Y-74091800D01*
%TO.N,BOOT*%
X137972800Y-76200000D02*
X137160000Y-76200000D01*
X137160000Y-76200000D02*
X135839200Y-74879200D01*
X135306100Y-79035600D02*
X135306100Y-77546500D01*
X135306100Y-77546500D02*
X134823200Y-77063600D01*
%TO.N,BP_SDA*%
X124612400Y-76454000D02*
X124612400Y-77901800D01*
X134645400Y-75590400D02*
X129463800Y-75590400D01*
X127965200Y-76454000D02*
X128828800Y-75590400D01*
X128828800Y-75590400D02*
X129463800Y-75590400D01*
%TO.N,BP_SCL*%
X136306100Y-79035600D02*
X136306100Y-76784126D01*
X136306100Y-76784126D02*
X134680574Y-75158600D01*
X134680574Y-75158600D02*
X126441200Y-75158600D01*
X126441200Y-75158600D02*
X126263400Y-75336400D01*
X126263400Y-75336400D02*
X126263400Y-75717400D01*
%TO.N,BP_SDA*%
X135806100Y-79035600D02*
X135806100Y-76751100D01*
X135806100Y-76751100D02*
X134645400Y-75590400D01*
%TO.N,3.3V*%
X137693400Y-75311000D02*
X137693400Y-74117200D01*
X137871200Y-75514200D02*
X137871200Y-75488800D01*
X139090400Y-76200000D02*
X138404600Y-75514200D01*
X137693400Y-74117200D02*
X137668000Y-74091800D01*
X138404600Y-75514200D02*
X137871200Y-75514200D01*
X137871200Y-75488800D02*
X137693400Y-75311000D01*
%TO.N,SWO*%
X137806100Y-79035600D02*
X137806100Y-77890700D01*
X137806100Y-77890700D02*
X138353800Y-77343000D01*
X138353800Y-77343000D02*
X140030200Y-77343000D01*
%TO.N,Earth*%
X128219200Y-81280000D02*
X128219200Y-81635600D01*
X127328400Y-80822800D02*
X127762000Y-80822800D01*
X127762000Y-80822800D02*
X128219200Y-81280000D01*
%TO.N,3.3V*%
X125018800Y-80289400D02*
X125044200Y-80289400D01*
X125044200Y-80289400D02*
X125552200Y-80797400D01*
X125552200Y-80797400D02*
X126288800Y-80797400D01*
X124612400Y-78791000D02*
X124612400Y-79883000D01*
X124612400Y-79883000D02*
X125018800Y-80289400D01*
X126492000Y-80035400D02*
X126492000Y-80619600D01*
X126623500Y-79426300D02*
X126623500Y-79903900D01*
X126623500Y-79903900D02*
X126492000Y-80035400D01*
X126492000Y-80619600D02*
X126441200Y-80670400D01*
X130073400Y-77419200D02*
X129057400Y-77419200D01*
X130556000Y-77901800D02*
X132306100Y-77901800D01*
X130073400Y-77419200D02*
X130556000Y-77901800D01*
X132306100Y-79035600D02*
X132306100Y-77901800D01*
X132306100Y-77901800D02*
X132306100Y-77216700D01*
X129006600Y-77392000D02*
X129006600Y-78003400D01*
X129006600Y-78003400D02*
X128828800Y-78181200D01*
X128828800Y-78181200D02*
X127685800Y-78181200D01*
X128092200Y-77368400D02*
X128803400Y-77368400D01*
X127102000Y-75819000D02*
X127102000Y-76962400D01*
X127102000Y-76962400D02*
X127508000Y-77368400D01*
X127508000Y-77368400D02*
X128092200Y-77368400D01*
X127123500Y-77901300D02*
X127380500Y-77901300D01*
X127380500Y-77901300D02*
X127584200Y-78105000D01*
%TO.N,Earth*%
X126873000Y-78663800D02*
X127584200Y-78663800D01*
X127636000Y-79163800D02*
X127636000Y-78739000D01*
X127636000Y-78739000D02*
X127660400Y-78714600D01*
X126111000Y-79163800D02*
X126220600Y-79163800D01*
X126220600Y-79163800D02*
X126720600Y-78663800D01*
X126220600Y-78163800D02*
X126720600Y-78663800D01*
X126111000Y-78163800D02*
X126220600Y-78163800D01*
X126720600Y-78663800D02*
X126873000Y-78663800D01*
%TO.N,BP_SCL*%
X126623500Y-77901300D02*
X126623500Y-77093500D01*
X126623500Y-77093500D02*
X126263400Y-76733400D01*
X126263400Y-76733400D02*
X126263400Y-75869800D01*
%TO.N,BP_SDA*%
X126111000Y-78663800D02*
X125831600Y-78663800D01*
X125831600Y-78663800D02*
X125145800Y-77978000D01*
X125145800Y-77978000D02*
X124714000Y-77978000D01*
%TO.N,NRST*%
X130626100Y-87215600D02*
X137803000Y-87215600D01*
X137803000Y-87215600D02*
X140208000Y-84810600D01*
%TO.N,SWDIO*%
X138871000Y-74066400D02*
X138871000Y-72685600D01*
X138871000Y-72685600D02*
X139065000Y-72491600D01*
X144754600Y-81941900D02*
X145028300Y-82215600D01*
X139065000Y-72491600D02*
X144195800Y-72491600D01*
X145028300Y-82215600D02*
X145986100Y-82215600D01*
X144195800Y-72491600D02*
X144754600Y-73050400D01*
X144754600Y-73050400D02*
X144754600Y-81941900D01*
%TO.N,SWCLK*%
X141097000Y-76733400D02*
X140106400Y-75742800D01*
X144306100Y-77605700D02*
X143433800Y-76733400D01*
X144306100Y-79035600D02*
X144306100Y-77605700D01*
X143433800Y-76733400D02*
X141097000Y-76733400D01*
X140106400Y-75742800D02*
X140106400Y-74142600D01*
%TO.N,~{AUX2_CONT}*%
X100304600Y-79349600D02*
X100304600Y-78562200D01*
X100304600Y-78562200D02*
X100812400Y-78054400D01*
X100812400Y-78054400D02*
X100812400Y-77139800D01*
X130626100Y-82715600D02*
X128054600Y-82715600D01*
%TO.N,AUX2*%
X119710200Y-77317600D02*
X120954800Y-78562200D01*
X114162799Y-82956400D02*
X114528600Y-82590599D01*
X119710200Y-76327000D02*
X119710200Y-77317600D01*
X119151400Y-75768200D02*
X119710200Y-76327000D01*
X114528600Y-79451200D02*
X114604800Y-79451200D01*
X114604800Y-79451200D02*
X116509800Y-77546200D01*
X116509800Y-76657200D02*
X117398800Y-75768200D01*
X114528600Y-82590599D02*
X114528600Y-79451200D01*
X112333999Y-82311199D02*
X112979200Y-82956400D01*
X117398800Y-75768200D02*
X119151400Y-75768200D01*
X116509800Y-77546200D02*
X116509800Y-76657200D01*
X112979200Y-82956400D02*
X114162799Y-82956400D01*
X111093250Y-82311199D02*
X112333999Y-82311199D01*
X120954800Y-78562200D02*
X120954800Y-81762600D01*
X120954800Y-81762600D02*
X121462800Y-82270600D01*
X121462800Y-82270600D02*
X126206748Y-82270600D01*
X126206748Y-82270600D02*
X127654548Y-83718400D01*
X127654548Y-83718400D02*
X130124200Y-83718400D01*
%TO.N,AUX1*%
X127684774Y-84215600D02*
X126069974Y-82600800D01*
X130626100Y-84215600D02*
X127684774Y-84215600D01*
X121165813Y-82837213D02*
X121072026Y-82931000D01*
X126069974Y-82600800D02*
X121402226Y-82600800D01*
X121402226Y-82600800D02*
X121165813Y-82837213D01*
%TO.N,~{SWITCH}*%
X129362200Y-84715600D02*
X130626100Y-84715600D01*
X129203200Y-84556600D02*
X127558800Y-84556600D01*
X123875800Y-82931000D02*
X125933200Y-82931000D01*
X129362200Y-84715600D02*
X129203200Y-84556600D01*
X127558800Y-84556600D02*
X125933200Y-82931000D01*
%TO.N,OSC_IN*%
X126227200Y-84565000D02*
X126348000Y-84565000D01*
X126348000Y-84565000D02*
X126974600Y-85191600D01*
X126974600Y-85191600D02*
X126974600Y-85928200D01*
X126974600Y-85928200D02*
X127508000Y-86461600D01*
X127508000Y-86461600D02*
X128854200Y-86461600D01*
X128854200Y-86461600D02*
X129133600Y-86182200D01*
X129133600Y-86182200D02*
X130124200Y-86182200D01*
X125603000Y-83591400D02*
X125933200Y-83921600D01*
X123367800Y-84025000D02*
X123801400Y-83591400D01*
X123801400Y-83591400D02*
X125603000Y-83591400D01*
X125933200Y-83921600D02*
X125933200Y-84251800D01*
%TO.N,Earth*%
X123367800Y-86360000D02*
X123901200Y-86893400D01*
X123901200Y-86893400D02*
X124612400Y-86893400D01*
X123367800Y-86360000D02*
X123367800Y-84885000D01*
%TO.N,OSC_OUT*%
X129082800Y-86715600D02*
X130175000Y-86715600D01*
X128879600Y-86918800D02*
X129032000Y-86766400D01*
X125525000Y-86918800D02*
X128879600Y-86918800D01*
X129032000Y-86766400D02*
X129082800Y-86715600D01*
X125501400Y-86207600D02*
X125501400Y-86791800D01*
X124877200Y-85615000D02*
X124908800Y-85615000D01*
X124908800Y-85615000D02*
X125501400Y-86207600D01*
%TO.N,Earth*%
X130626100Y-85215600D02*
X129132200Y-85215600D01*
X129132200Y-85215600D02*
X128803400Y-84886800D01*
X127762000Y-85364236D02*
X127762000Y-85369400D01*
X128803400Y-84886800D02*
X128239436Y-84886800D01*
X128239436Y-84886800D02*
X127762000Y-85364236D01*
%TO.N,3.3V*%
X130626100Y-85715600D02*
X128609600Y-85715600D01*
X130626100Y-85715600D02*
X131689600Y-85715600D01*
X131689600Y-85715600D02*
X132156200Y-86182200D01*
%TO.N,~{SWITCH}*%
X107772200Y-85547000D02*
X112674200Y-85547000D01*
X112674200Y-85547000D02*
X114198400Y-87071200D01*
X114198400Y-87071200D02*
X120192800Y-87071200D01*
X120192800Y-87071200D02*
X120726200Y-86537800D01*
X120726200Y-86537800D02*
X120726200Y-83718400D01*
X120726200Y-83718400D02*
X121132600Y-83312000D01*
X121132600Y-83312000D02*
X123494800Y-83312000D01*
X123494800Y-83312000D02*
X123875800Y-82931000D01*
%TO.N,AUX1*%
X121072026Y-82931000D02*
X119227600Y-82931000D01*
X119227600Y-82931000D02*
X118633199Y-82336599D01*
X118633199Y-82336599D02*
X117290850Y-82336599D01*
%TO.N,3.3V*%
X122046800Y-83946800D02*
X122453400Y-84353400D01*
X122453400Y-84353400D02*
X122453400Y-85598000D01*
X121564400Y-83946800D02*
X122046800Y-83946800D01*
%TO.N,~{AUX1_CONT}*%
X130626100Y-87715600D02*
X122285000Y-87715600D01*
X122285000Y-87715600D02*
X121742200Y-87172800D01*
%TO.N,MAIN*%
X129590800Y-88239600D02*
X129971800Y-88239600D01*
X126415800Y-89077800D02*
X126674088Y-89077800D01*
X127588489Y-88163400D02*
X129514600Y-88163400D01*
X120853200Y-89687400D02*
X121462800Y-89077800D01*
X118516400Y-90600000D02*
X119940600Y-90600000D01*
X121462800Y-89077800D02*
X126415800Y-89077800D01*
X119940600Y-90600000D02*
X120853200Y-89687400D01*
X126674088Y-89077800D02*
X127588489Y-88163400D01*
X129514600Y-88163400D02*
X129590800Y-88239600D01*
%TO.N,~{MAIN_CONT}*%
X125095000Y-90819400D02*
X125095000Y-93243400D01*
X125425200Y-93573600D02*
X126949200Y-93573600D01*
X125095000Y-93243400D02*
X125425200Y-93573600D01*
X126949200Y-93573600D02*
X129311400Y-91211400D01*
X129311400Y-91211400D02*
X130327400Y-91211400D01*
%TO.N,DROGUE*%
X122377200Y-89408000D02*
X125831600Y-89408000D01*
X130626100Y-88715600D02*
X129568574Y-88715600D01*
X129568574Y-88715600D02*
X129346574Y-88493600D01*
X129346574Y-88493600D02*
X127725262Y-88493600D01*
X127725262Y-88493600D02*
X126810862Y-89408000D01*
X126810862Y-89408000D02*
X125831600Y-89408000D01*
%TO.N,~{DROGUE_CONT}*%
X108280200Y-90271600D02*
X107238800Y-90271600D01*
X109575600Y-91567000D02*
X108280200Y-90271600D01*
X116611400Y-92075000D02*
X114858800Y-90322400D01*
X112404774Y-91567000D02*
X109575600Y-91567000D01*
X113649374Y-90322400D02*
X112404774Y-91567000D01*
X114858800Y-90322400D02*
X113649374Y-90322400D01*
X126947636Y-89738200D02*
X121818400Y-89738200D01*
X127862036Y-88823800D02*
X126947636Y-89738200D01*
X106883200Y-90627200D02*
X106883200Y-91211400D01*
X129143373Y-88823800D02*
X127862036Y-88823800D01*
X130626100Y-89215600D02*
X129535174Y-89215600D01*
X119481600Y-92075000D02*
X116611400Y-92075000D01*
X129535174Y-89215600D02*
X129143373Y-88823800D01*
X121818400Y-89738200D02*
X119481600Y-92075000D01*
X106883200Y-91211400D02*
X106400600Y-91694000D01*
X107238800Y-90271600D02*
X106883200Y-90627200D01*
X106400600Y-91694000D02*
X104103600Y-91694000D01*
%TO.N,Earth*%
X127687600Y-89865200D02*
X127660400Y-89865200D01*
X127660400Y-89865200D02*
X127281200Y-90244400D01*
X126288800Y-91186000D02*
X126263400Y-91186000D01*
X126314200Y-91211400D02*
X126288800Y-91186000D01*
X126339600Y-91186000D02*
X126314200Y-91211400D01*
X127281200Y-91186000D02*
X126339600Y-91186000D01*
X126263400Y-91186000D02*
X125795001Y-91654399D01*
X125795001Y-92619401D02*
X125795001Y-91654399D01*
X127281200Y-91186000D02*
X127281200Y-90244400D01*
%TO.N,DROGUE*%
X120365713Y-90723913D02*
X121681627Y-89408000D01*
X116941600Y-91694000D02*
X119395626Y-91694000D01*
X119395626Y-91694000D02*
X120365713Y-90723913D01*
X121681627Y-89408000D02*
X122377200Y-89408000D01*
X111887000Y-90600000D02*
X112904800Y-90600000D01*
X112904800Y-90600000D02*
X113512600Y-89992200D01*
X113512600Y-89992200D02*
X114995574Y-89992200D01*
X114995574Y-89992200D02*
X116697374Y-91694000D01*
X116697374Y-91694000D02*
X116941600Y-91694000D01*
%TO.N,3.3V*%
X121843600Y-91008200D02*
X121843600Y-92151400D01*
X121843600Y-92151400D02*
X121488200Y-92506800D01*
%TO.N,~{MAIN_CONT}*%
X125095000Y-90819400D02*
X122794600Y-90819400D01*
%TO.N,Net-(P5B-6)*%
X122594799Y-92619401D02*
X121005600Y-94208600D01*
X124394999Y-92619401D02*
X122594799Y-92619401D01*
X121005600Y-94208600D02*
X121005600Y-96240600D01*
%TO.N,~{AUX1_CONT}*%
X121564400Y-84810800D02*
X121564400Y-87147400D01*
X121564400Y-87147400D02*
X121615200Y-87198200D01*
%TO.N,Net-(P4A-6)*%
X115682799Y-86472799D02*
X115189000Y-85979000D01*
X115189000Y-85979000D02*
X115189000Y-85598000D01*
X119495999Y-86472799D02*
X115682799Y-86472799D01*
%TO.N,Earth*%
X115620800Y-83361000D02*
X115620800Y-84912200D01*
X115620800Y-84912200D02*
X115976400Y-85267800D01*
%TO.N,Net-(P4A-6)*%
X114858800Y-84531200D02*
X114858800Y-80365600D01*
X115163400Y-85471000D02*
X115163400Y-84835800D01*
X115163400Y-84835800D02*
X114858800Y-84531200D01*
X114858800Y-80365600D02*
X118084600Y-77139800D01*
%TO.N,3.3V*%
X101676400Y-77139800D02*
X101676400Y-78410000D01*
X101676400Y-78410000D02*
X102184200Y-78917800D01*
%TO.N,~{AUX2_CONT}*%
X100928600Y-74066400D02*
X100928600Y-77150800D01*
X100928600Y-77150800D02*
X100863400Y-77216000D01*
%TO.N,Earth*%
X106197200Y-73406000D02*
X102971600Y-73406000D01*
X102728601Y-73366399D02*
X99277401Y-73366399D01*
X99277401Y-73366399D02*
X98907600Y-73736200D01*
%TO.N,Net-(P4B-6)*%
X107061200Y-73406000D02*
X107061200Y-73913800D01*
X107061200Y-73913800D02*
X106680000Y-74295000D01*
X106680000Y-74295000D02*
X103505000Y-74295000D01*
X103505000Y-74295000D02*
X103047800Y-74752200D01*
X111130199Y-74808199D02*
X109804200Y-73482200D01*
X111130199Y-77089000D02*
X111130199Y-74808199D01*
X109804200Y-73482200D02*
X107086400Y-73482200D01*
%TO.N,Earth*%
X117290850Y-83286600D02*
X115570000Y-83286600D01*
%TO.N,AUX1*%
X117290850Y-82336599D02*
X115732601Y-82336599D01*
%TO.N,Earth*%
X109448600Y-83234000D02*
X110695000Y-83234000D01*
%TO.N,AUX2*%
X109448600Y-82374000D02*
X110793000Y-82374000D01*
%TO.N,Earth*%
X132806100Y-79035600D02*
X132806100Y-80050300D01*
X132806100Y-80050300D02*
X133273800Y-80518000D01*
X132332200Y-76354200D02*
X131671800Y-76354200D01*
X132359400Y-76327000D02*
X132332200Y-76354200D01*
X132386600Y-76354200D02*
X132359400Y-76327000D01*
X133426200Y-76354200D02*
X132386600Y-76354200D01*
X131671800Y-76354200D02*
X131038600Y-76987400D01*
%TO.N,3.3V*%
X133426200Y-77214200D02*
X132308600Y-77214200D01*
X132308600Y-77214200D02*
X131951200Y-77214200D01*
X132306100Y-77216700D02*
X132308600Y-77214200D01*
X131951200Y-77214200D02*
X131902200Y-77165200D01*
X144306100Y-94395600D02*
X145043200Y-94395600D01*
X145043200Y-94395600D02*
X145440400Y-94792800D01*
%TO.N,Earth*%
X143806100Y-94395600D02*
X143806100Y-93107700D01*
X143806100Y-93107700D02*
X143535400Y-92837000D01*
X141681200Y-97534200D02*
X141681200Y-98221800D01*
X141020800Y-97534200D02*
X141681200Y-97534200D01*
X141681200Y-97534200D02*
X142216400Y-97534200D01*
%TO.N,CAP1*%
X142722600Y-95834200D02*
X142341600Y-95834200D01*
X141020800Y-96674200D02*
X141171400Y-96674200D01*
X141171400Y-96674200D02*
X142011400Y-95834200D01*
X142011400Y-95834200D02*
X142341600Y-95834200D01*
X143306100Y-95250700D02*
X142951200Y-95605600D01*
X143306100Y-94395600D02*
X143306100Y-95250700D01*
X142951200Y-95605600D02*
X142722600Y-95834200D01*
%TO.N,3.3V*%
X144043400Y-95631000D02*
X143433800Y-95631000D01*
X143433800Y-95631000D02*
X142468600Y-96596200D01*
X144306100Y-94395600D02*
X144306100Y-95368300D01*
X144306100Y-95368300D02*
X144043400Y-95631000D01*
X132806100Y-94395600D02*
X132806100Y-93431700D01*
X132806100Y-93431700D02*
X133350000Y-92887800D01*
%TO.N,Earth*%
X131292600Y-94919800D02*
X131292600Y-95986600D01*
X131292600Y-94919800D02*
X131766000Y-94395600D01*
X131766000Y-94395600D02*
X132306100Y-94395600D01*
%TO.N,3.3V*%
X132806100Y-94395600D02*
X132806100Y-95412900D01*
X132806100Y-95412900D02*
X132257800Y-95961200D01*
X130626100Y-90715600D02*
X131864600Y-90715600D01*
X131864600Y-90715600D02*
X132384800Y-90195400D01*
X130626100Y-90215600D02*
X132364600Y-90215600D01*
%TO.N,Earth*%
X129006600Y-89154000D02*
X128371600Y-89154000D01*
X127687600Y-89865200D02*
X127687600Y-89858236D01*
X128371600Y-89174236D02*
X128371600Y-89154000D01*
X127687600Y-89858236D02*
X128371600Y-89174236D01*
X129568200Y-89715600D02*
X129082800Y-89230200D01*
X130626100Y-89715600D02*
X129568200Y-89715600D01*
X129082800Y-89230200D02*
X129006600Y-89154000D01*
%TO.N,3.3V*%
X128447800Y-90017600D02*
X128473200Y-89992200D01*
X130626100Y-90215600D02*
X128950600Y-90215600D01*
X128950600Y-90215600D02*
X128778000Y-90043000D01*
%TO.N,Earth*%
X103378000Y-90982800D02*
X104546400Y-90982800D01*
X104572000Y-90957200D02*
X104546400Y-90982800D01*
X104546400Y-90982800D02*
X105638600Y-90982800D01*
X104572000Y-89128600D02*
X104572000Y-90957200D01*
X98729800Y-88066999D02*
X100462199Y-88066999D01*
X100462199Y-88066999D02*
X103378000Y-90982800D01*
X105562400Y-89128600D02*
X106222800Y-88468200D01*
X104572000Y-89128600D02*
X105562400Y-89128600D01*
X106222800Y-88468200D02*
X106222800Y-87096600D01*
%TO.N,VIN_SW*%
X104786199Y-86853601D02*
X103708200Y-86853601D01*
X103708000Y-86853801D02*
X103708200Y-86853601D01*
X103708200Y-86853601D02*
X101128401Y-86853601D01*
X103708000Y-89128600D02*
X103708000Y-86853801D01*
%TO.N,3.3V*%
X107772200Y-86411000D02*
X107772200Y-87401400D01*
%TO.N,~{SWITCH}*%
X105486200Y-85053600D02*
X107253200Y-85053600D01*
X107253200Y-85053600D02*
X107594400Y-85394800D01*
%TO.N,VIN_SW*%
X101128401Y-86853601D02*
X98958400Y-84683600D01*
%TO.N,3.3V*%
X98958600Y-94386400D02*
X98958600Y-93751200D01*
X98958600Y-93751200D02*
X99669600Y-93040200D01*
%TO.N,~{DROGUE_CONT}*%
X98094600Y-94386400D02*
X98094600Y-93268600D01*
X98094600Y-93268600D02*
X97332800Y-92506800D01*
X97332800Y-92506800D02*
X97332800Y-91008200D01*
X97332800Y-91008200D02*
X98399600Y-89941400D01*
X98399600Y-89941400D02*
X100482400Y-89941400D01*
X100482400Y-89941400D02*
X102235000Y-91694000D01*
X102235000Y-91694000D02*
X104103600Y-91694000D01*
%TO.N,Net-(P5A-6)*%
X105903601Y-92394001D02*
X107300799Y-92394001D01*
X107300799Y-92394001D02*
X107797600Y-91897200D01*
X101320800Y-94615000D02*
X101320800Y-99669800D01*
X101320800Y-99669800D02*
X102082600Y-100431600D01*
X108534200Y-95173800D02*
X109804200Y-93903800D01*
X102082600Y-100431600D02*
X106375200Y-100431600D01*
X106375200Y-100431600D02*
X108534200Y-98272600D01*
X108534200Y-98272600D02*
X108534200Y-95173800D01*
D53*
%TO.N,VIN*%
X159669600Y-75285600D02*
X159359600Y-75285600D01*
X159359600Y-75285600D02*
X158038800Y-73964800D01*
%TO.N,5V*%
X160655000Y-75666600D02*
X160426400Y-75438000D01*
D52*
%TO.N,MAIN*%
X117883200Y-90600000D02*
X117678200Y-90805000D01*
X118516400Y-90600000D02*
X117883200Y-90600000D01*
X117678200Y-90805000D02*
X117195600Y-90805000D01*
%TO.N,Earth*%
X117727200Y-89740000D02*
X117602000Y-89865200D01*
X117602000Y-89865200D02*
X117170200Y-89865200D01*
X118516400Y-89740000D02*
X117727200Y-89740000D01*
%TO.N,DROGUE*%
X110293150Y-90891401D02*
X111521199Y-90891401D01*
X111521199Y-90891401D02*
X111785400Y-90627200D01*
%TO.N,Earth*%
X111887000Y-89740000D02*
X111351800Y-89740000D01*
X111351800Y-89740000D02*
X111125000Y-89966800D01*
X111125000Y-89966800D02*
X110718600Y-89966800D01*
D53*
%TO.N,5V*%
X157774599Y-82666799D02*
X158978600Y-83870800D01*
X157774599Y-80969548D02*
X157774599Y-82666799D01*
X158978600Y-83870800D02*
X163271200Y-83870800D01*
%TO.N,Earth*%
X166026500Y-81550000D02*
X166026500Y-79107700D01*
X166026500Y-83550000D02*
X166026500Y-86144700D01*
X166026500Y-81550000D02*
X166026500Y-83147500D01*
%TO.N,5V*%
X163326500Y-83850000D02*
X164257200Y-83850000D01*
X164592000Y-79451200D02*
X163703000Y-78562200D01*
X164257200Y-83850000D02*
X164592000Y-83515200D01*
X164592000Y-83515200D02*
X164592000Y-79451200D01*
X163703000Y-78562200D02*
X162077400Y-78562200D01*
X162077400Y-78562200D02*
X160655000Y-77139800D01*
%TO.N,Earth*%
X118694200Y-83286600D02*
X118516400Y-83286600D01*
X118516400Y-83286600D02*
X118491000Y-83286600D01*
X118694200Y-83312000D02*
X118694200Y-83286600D01*
X118465600Y-83286600D02*
X118694200Y-83312000D01*
X117290850Y-83286600D02*
X118465600Y-83286600D01*
%TO.N,Net-(P4A-6)*%
X119843550Y-82336599D02*
X119843550Y-78847950D01*
X119843550Y-78847950D02*
X118211600Y-77216000D01*
%TO.N,Net-(P4B-6)*%
X111130199Y-77089000D02*
X111130199Y-79989799D01*
X111130199Y-79989799D02*
X113360200Y-82219800D01*
%TO.N,3.3V*%
X104486200Y-77976600D02*
X103125400Y-77976600D01*
X103125400Y-77976600D02*
X102184200Y-78917800D01*
%TO.N,Earth*%
X116846350Y-89839800D02*
X117119400Y-89839800D01*
X116846350Y-89839800D02*
X115620800Y-89839800D01*
%TO.N,Net-(P5B-6)*%
X121049402Y-96034201D02*
X119808601Y-96034201D01*
X119808601Y-96034201D02*
X118084600Y-94310200D01*
X118084600Y-94310200D02*
X116179600Y-94310200D01*
X116179600Y-94310200D02*
X114350800Y-92481400D01*
X114350800Y-92481400D02*
X114350800Y-90932000D01*
%TO.N,Net-(P5A-6)*%
X114049401Y-96034201D02*
X111919000Y-93903800D01*
X107797600Y-91897200D02*
X107797600Y-91059000D01*
X111919000Y-93903800D02*
X109804200Y-93903800D01*
X109804200Y-93903800D02*
X107797600Y-91897200D01*
%TO.N,VIN_SW*%
X116992400Y-74726800D02*
X119430800Y-74726800D01*
X114630200Y-77089000D02*
X116992400Y-74726800D01*
X119430800Y-74726800D02*
X121818400Y-77114400D01*
X110549400Y-96034201D02*
X110549400Y-98001800D01*
X110549400Y-98001800D02*
X111302800Y-98755200D01*
X111302800Y-98755200D02*
X111404400Y-98653600D01*
X111404400Y-98653600D02*
X116586000Y-98653600D01*
X116586000Y-98653600D02*
X117602000Y-97637600D01*
X117602000Y-97637600D02*
X117602000Y-96113600D01*
D52*
%TO.N,Earth*%
X130626100Y-85215600D02*
X132056000Y-85215600D01*
D53*
X107403000Y-81471400D02*
X107403000Y-79717000D01*
X107391200Y-81483200D02*
X107403000Y-81471400D01*
X107403000Y-81495000D02*
X107391200Y-81483200D01*
X107403000Y-83058000D02*
X107403000Y-81495000D01*
X107403000Y-79717000D02*
X107340400Y-79654400D01*
X106463200Y-77126200D02*
X106463200Y-78982200D01*
X106426000Y-77089000D02*
X106463200Y-77126200D01*
X106463200Y-77051800D02*
X106426000Y-77089000D01*
X106463200Y-75387200D02*
X106463200Y-77051800D01*
X106463200Y-78982200D02*
X106349800Y-79095600D01*
%TO.N,3.3V*%
X104486200Y-76717400D02*
X104486200Y-75345800D01*
X104470200Y-76733400D02*
X104486200Y-76717400D01*
X104486200Y-76749400D02*
X104470200Y-76733400D01*
X104486200Y-77976600D02*
X104486200Y-76749400D01*
X104486200Y-75345800D02*
X104495600Y-75336400D01*
%TO.N,VIN*%
X105703000Y-83058000D02*
X105703000Y-81725400D01*
X105703000Y-81725400D02*
X105105200Y-81127600D01*
X104486200Y-80976600D02*
X98731200Y-80976600D01*
%TO.N,Net-(P3B-6)*%
X103022400Y-94488000D02*
X103581200Y-94488000D01*
%TO.N,VIN*%
X105511600Y-94462600D02*
X104470200Y-94462600D01*
X105511600Y-94462600D02*
X106832400Y-94462600D01*
%TO.N,Net-(P2-6)*%
X102809799Y-99129499D02*
X104835098Y-97104200D01*
X104835098Y-97104200D02*
X105638600Y-97104200D01*
X105638600Y-97104200D02*
X107746800Y-94996000D01*
X107746800Y-94996000D02*
X107746800Y-94437200D01*
%TO.N,Net-(P3B-6)*%
X98729800Y-91567000D02*
X100101400Y-91567000D01*
X100101400Y-91567000D02*
X103022400Y-94488000D01*
D52*
%TO.N,TX_USB*%
X145986100Y-86215600D02*
X150283800Y-86215600D01*
X150283800Y-86215600D02*
X150596600Y-85902800D01*
X152196800Y-86969600D02*
X152568400Y-86572600D01*
X152568400Y-86572600D02*
X152568400Y-79933800D01*
%TO.N,RX_USB*%
X152068400Y-85878800D02*
X151206200Y-86741000D01*
X152068400Y-79933800D02*
X152068400Y-85878800D01*
X151206200Y-86741000D02*
X146405600Y-86741000D01*
D57*
%TO.N,/Peripherals/D+*%
X159258000Y-76555600D02*
X159689800Y-76987400D01*
X157759400Y-76555600D02*
X159258000Y-76555600D01*
X159689800Y-76987400D02*
X159689800Y-78028800D01*
D55*
%TO.N,Earth*%
X158724600Y-78237652D02*
X158724600Y-77190600D01*
D57*
%TO.N,/Peripherals/D+*%
X154658400Y-77343800D02*
X156007600Y-77343800D01*
X156007600Y-77343800D02*
X156260800Y-77597000D01*
%TO.N,/Peripherals/D-*%
X154658400Y-76843800D02*
X156625200Y-76843800D01*
X156625200Y-76843800D02*
X157683200Y-77901800D01*
X159766857Y-83052800D02*
X159761657Y-83058000D01*
X159761657Y-83058000D02*
X159412954Y-83058000D01*
X158546800Y-82191848D02*
X159119576Y-82764624D01*
X159119576Y-82764624D02*
X159412952Y-83058000D01*
X159412954Y-83058000D02*
X159119576Y-82764624D01*
%TO.N,/Peripherals/D+*%
X158902400Y-82044552D02*
X159332924Y-82475076D01*
X159332924Y-82475076D02*
X159560248Y-82702400D01*
X159555048Y-82697200D02*
X159332924Y-82475076D01*
X163326500Y-82550000D02*
X162313999Y-82550000D01*
X162313999Y-82550000D02*
X162166799Y-82697200D01*
X162166799Y-82697200D02*
X159555048Y-82697200D01*
%TO.N,/Peripherals/D-*%
X162166799Y-83052800D02*
X159766857Y-83052800D01*
X163326500Y-83200000D02*
X162313999Y-83200000D01*
X162313999Y-83200000D02*
X162166799Y-83052800D01*
%TO.N,/Peripherals/D+*%
X158902400Y-79744329D02*
X158902400Y-82044552D01*
%TO.N,/Peripherals/D-*%
X157774599Y-78237652D02*
X157774599Y-78972128D01*
%TO.N,/Peripherals/D+*%
X159674601Y-78237652D02*
X159674601Y-78972128D01*
X159674601Y-78972128D02*
X158902400Y-79744329D01*
%TO.N,/Peripherals/D-*%
X157774599Y-78972128D02*
X158546800Y-79744329D01*
X158546800Y-79744329D02*
X158546800Y-82191848D01*
%TD*%
M02*
