%TF.GenerationSoftware,KiCad,Pcbnew,7.0.1*%
%TF.CreationDate,2023-06-15T13:01:31-07:00*%
%TF.ProjectId,Full-Flight-Computer,46756c6c-2d46-46c6-9967-68742d436f6d,1.0*%
%TF.SameCoordinates,Original*%
%TF.FileFunction,Legend,Top*%
%TF.FilePolarity,Positive*%
%FSLAX46Y46*%
G04 Gerber Fmt 4.6, Leading zero omitted, Abs format (unit mm)*
G04 Created by KiCad (PCBNEW 7.0.1) date 2023-06-15 13:01:31*
%MOMM*%
%LPD*%
G01*
G04 APERTURE LIST*
%ADD10C,0.150000*%
%ADD11C,0.076200*%
%ADD12C,0.127000*%
%ADD13C,0.080000*%
%ADD14C,0.120214*%
%ADD15C,0.120000*%
%ADD16C,0.304800*%
%ADD17C,0.152400*%
%ADD18C,0.200000*%
%ADD19C,0.635000*%
%ADD20C,0.508000*%
%ADD21C,0.381000*%
%ADD22C,0.174018*%
%ADD23C,0.100000*%
%ADD24C,0.203200*%
%ADD25C,0.050800*%
G04 APERTURE END LIST*
D10*
X93509979Y-87772723D02*
X94525979Y-87772723D01*
X94525979Y-87772723D02*
X94525979Y-88159771D01*
X94525979Y-88159771D02*
X94477598Y-88256533D01*
X94477598Y-88256533D02*
X94429217Y-88304914D01*
X94429217Y-88304914D02*
X94332455Y-88353295D01*
X94332455Y-88353295D02*
X94187312Y-88353295D01*
X94187312Y-88353295D02*
X94090550Y-88304914D01*
X94090550Y-88304914D02*
X94042169Y-88256533D01*
X94042169Y-88256533D02*
X93993788Y-88159771D01*
X93993788Y-88159771D02*
X93993788Y-87772723D01*
X94525979Y-88982247D02*
X94525979Y-89175771D01*
X94525979Y-89175771D02*
X94477598Y-89272533D01*
X94477598Y-89272533D02*
X94380836Y-89369295D01*
X94380836Y-89369295D02*
X94187312Y-89417676D01*
X94187312Y-89417676D02*
X93848645Y-89417676D01*
X93848645Y-89417676D02*
X93655121Y-89369295D01*
X93655121Y-89369295D02*
X93558360Y-89272533D01*
X93558360Y-89272533D02*
X93509979Y-89175771D01*
X93509979Y-89175771D02*
X93509979Y-88982247D01*
X93509979Y-88982247D02*
X93558360Y-88885485D01*
X93558360Y-88885485D02*
X93655121Y-88788723D01*
X93655121Y-88788723D02*
X93848645Y-88740342D01*
X93848645Y-88740342D02*
X94187312Y-88740342D01*
X94187312Y-88740342D02*
X94380836Y-88788723D01*
X94380836Y-88788723D02*
X94477598Y-88885485D01*
X94477598Y-88885485D02*
X94525979Y-88982247D01*
X94525979Y-89756342D02*
X93509979Y-89998247D01*
X93509979Y-89998247D02*
X94235693Y-90191771D01*
X94235693Y-90191771D02*
X93509979Y-90385295D01*
X93509979Y-90385295D02*
X94525979Y-90627200D01*
X94042169Y-91014247D02*
X94042169Y-91352914D01*
X93509979Y-91498057D02*
X93509979Y-91014247D01*
X93509979Y-91014247D02*
X94525979Y-91014247D01*
X94525979Y-91014247D02*
X94525979Y-91498057D01*
X93509979Y-92514057D02*
X93993788Y-92175390D01*
X93509979Y-91933485D02*
X94525979Y-91933485D01*
X94525979Y-91933485D02*
X94525979Y-92320533D01*
X94525979Y-92320533D02*
X94477598Y-92417295D01*
X94477598Y-92417295D02*
X94429217Y-92465676D01*
X94429217Y-92465676D02*
X94332455Y-92514057D01*
X94332455Y-92514057D02*
X94187312Y-92514057D01*
X94187312Y-92514057D02*
X94090550Y-92465676D01*
X94090550Y-92465676D02*
X94042169Y-92417295D01*
X94042169Y-92417295D02*
X93993788Y-92320533D01*
X93993788Y-92320533D02*
X93993788Y-91933485D01*
X140327743Y-76112430D02*
X140472886Y-76160811D01*
X140472886Y-76160811D02*
X140521267Y-76209192D01*
X140521267Y-76209192D02*
X140569648Y-76305954D01*
X140569648Y-76305954D02*
X140569648Y-76451097D01*
X140569648Y-76451097D02*
X140521267Y-76547859D01*
X140521267Y-76547859D02*
X140472886Y-76596240D01*
X140472886Y-76596240D02*
X140376124Y-76644620D01*
X140376124Y-76644620D02*
X139989076Y-76644620D01*
X139989076Y-76644620D02*
X139989076Y-75628620D01*
X139989076Y-75628620D02*
X140327743Y-75628620D01*
X140327743Y-75628620D02*
X140424505Y-75677001D01*
X140424505Y-75677001D02*
X140472886Y-75725382D01*
X140472886Y-75725382D02*
X140521267Y-75822144D01*
X140521267Y-75822144D02*
X140521267Y-75918906D01*
X140521267Y-75918906D02*
X140472886Y-76015668D01*
X140472886Y-76015668D02*
X140424505Y-76064049D01*
X140424505Y-76064049D02*
X140327743Y-76112430D01*
X140327743Y-76112430D02*
X139989076Y-76112430D01*
X141198600Y-75628620D02*
X141392124Y-75628620D01*
X141392124Y-75628620D02*
X141488886Y-75677001D01*
X141488886Y-75677001D02*
X141585648Y-75773763D01*
X141585648Y-75773763D02*
X141634029Y-75967287D01*
X141634029Y-75967287D02*
X141634029Y-76305954D01*
X141634029Y-76305954D02*
X141585648Y-76499478D01*
X141585648Y-76499478D02*
X141488886Y-76596240D01*
X141488886Y-76596240D02*
X141392124Y-76644620D01*
X141392124Y-76644620D02*
X141198600Y-76644620D01*
X141198600Y-76644620D02*
X141101838Y-76596240D01*
X141101838Y-76596240D02*
X141005076Y-76499478D01*
X141005076Y-76499478D02*
X140956695Y-76305954D01*
X140956695Y-76305954D02*
X140956695Y-75967287D01*
X140956695Y-75967287D02*
X141005076Y-75773763D01*
X141005076Y-75773763D02*
X141101838Y-75677001D01*
X141101838Y-75677001D02*
X141198600Y-75628620D01*
X142262981Y-75628620D02*
X142456505Y-75628620D01*
X142456505Y-75628620D02*
X142553267Y-75677001D01*
X142553267Y-75677001D02*
X142650029Y-75773763D01*
X142650029Y-75773763D02*
X142698410Y-75967287D01*
X142698410Y-75967287D02*
X142698410Y-76305954D01*
X142698410Y-76305954D02*
X142650029Y-76499478D01*
X142650029Y-76499478D02*
X142553267Y-76596240D01*
X142553267Y-76596240D02*
X142456505Y-76644620D01*
X142456505Y-76644620D02*
X142262981Y-76644620D01*
X142262981Y-76644620D02*
X142166219Y-76596240D01*
X142166219Y-76596240D02*
X142069457Y-76499478D01*
X142069457Y-76499478D02*
X142021076Y-76305954D01*
X142021076Y-76305954D02*
X142021076Y-75967287D01*
X142021076Y-75967287D02*
X142069457Y-75773763D01*
X142069457Y-75773763D02*
X142166219Y-75677001D01*
X142166219Y-75677001D02*
X142262981Y-75628620D01*
X142988695Y-75628620D02*
X143569267Y-75628620D01*
X143278981Y-76644620D02*
X143278981Y-75628620D01*
X130369733Y-75247620D02*
X130369733Y-74231620D01*
X130369733Y-74231620D02*
X130756781Y-74231620D01*
X130756781Y-74231620D02*
X130853543Y-74280001D01*
X130853543Y-74280001D02*
X130901924Y-74328382D01*
X130901924Y-74328382D02*
X130950305Y-74425144D01*
X130950305Y-74425144D02*
X130950305Y-74570287D01*
X130950305Y-74570287D02*
X130901924Y-74667049D01*
X130901924Y-74667049D02*
X130853543Y-74715430D01*
X130853543Y-74715430D02*
X130756781Y-74763811D01*
X130756781Y-74763811D02*
X130369733Y-74763811D01*
X131288971Y-74231620D02*
X131530876Y-75247620D01*
X131530876Y-75247620D02*
X131724400Y-74521906D01*
X131724400Y-74521906D02*
X131917924Y-75247620D01*
X131917924Y-75247620D02*
X132159829Y-74231620D01*
X133127448Y-75247620D02*
X132788781Y-74763811D01*
X132546876Y-75247620D02*
X132546876Y-74231620D01*
X132546876Y-74231620D02*
X132933924Y-74231620D01*
X132933924Y-74231620D02*
X133030686Y-74280001D01*
X133030686Y-74280001D02*
X133079067Y-74328382D01*
X133079067Y-74328382D02*
X133127448Y-74425144D01*
X133127448Y-74425144D02*
X133127448Y-74570287D01*
X133127448Y-74570287D02*
X133079067Y-74667049D01*
X133079067Y-74667049D02*
X133030686Y-74715430D01*
X133030686Y-74715430D02*
X132933924Y-74763811D01*
X132933924Y-74763811D02*
X132546876Y-74763811D01*
X93694552Y-93402573D02*
X94468648Y-93402573D01*
X94081600Y-93789620D02*
X94081600Y-93015525D01*
X109385704Y-101257220D02*
X109385704Y-100241220D01*
X109385704Y-100241220D02*
X109627609Y-100241220D01*
X109627609Y-100241220D02*
X109772752Y-100289601D01*
X109772752Y-100289601D02*
X109869514Y-100386363D01*
X109869514Y-100386363D02*
X109917895Y-100483125D01*
X109917895Y-100483125D02*
X109966276Y-100676649D01*
X109966276Y-100676649D02*
X109966276Y-100821792D01*
X109966276Y-100821792D02*
X109917895Y-101015316D01*
X109917895Y-101015316D02*
X109869514Y-101112078D01*
X109869514Y-101112078D02*
X109772752Y-101208840D01*
X109772752Y-101208840D02*
X109627609Y-101257220D01*
X109627609Y-101257220D02*
X109385704Y-101257220D01*
X110982276Y-101257220D02*
X110643609Y-100773411D01*
X110401704Y-101257220D02*
X110401704Y-100241220D01*
X110401704Y-100241220D02*
X110788752Y-100241220D01*
X110788752Y-100241220D02*
X110885514Y-100289601D01*
X110885514Y-100289601D02*
X110933895Y-100337982D01*
X110933895Y-100337982D02*
X110982276Y-100434744D01*
X110982276Y-100434744D02*
X110982276Y-100579887D01*
X110982276Y-100579887D02*
X110933895Y-100676649D01*
X110933895Y-100676649D02*
X110885514Y-100725030D01*
X110885514Y-100725030D02*
X110788752Y-100773411D01*
X110788752Y-100773411D02*
X110401704Y-100773411D01*
X111611228Y-100241220D02*
X111804752Y-100241220D01*
X111804752Y-100241220D02*
X111901514Y-100289601D01*
X111901514Y-100289601D02*
X111998276Y-100386363D01*
X111998276Y-100386363D02*
X112046657Y-100579887D01*
X112046657Y-100579887D02*
X112046657Y-100918554D01*
X112046657Y-100918554D02*
X111998276Y-101112078D01*
X111998276Y-101112078D02*
X111901514Y-101208840D01*
X111901514Y-101208840D02*
X111804752Y-101257220D01*
X111804752Y-101257220D02*
X111611228Y-101257220D01*
X111611228Y-101257220D02*
X111514466Y-101208840D01*
X111514466Y-101208840D02*
X111417704Y-101112078D01*
X111417704Y-101112078D02*
X111369323Y-100918554D01*
X111369323Y-100918554D02*
X111369323Y-100579887D01*
X111369323Y-100579887D02*
X111417704Y-100386363D01*
X111417704Y-100386363D02*
X111514466Y-100289601D01*
X111514466Y-100289601D02*
X111611228Y-100241220D01*
X113014276Y-100289601D02*
X112917514Y-100241220D01*
X112917514Y-100241220D02*
X112772371Y-100241220D01*
X112772371Y-100241220D02*
X112627228Y-100289601D01*
X112627228Y-100289601D02*
X112530466Y-100386363D01*
X112530466Y-100386363D02*
X112482085Y-100483125D01*
X112482085Y-100483125D02*
X112433704Y-100676649D01*
X112433704Y-100676649D02*
X112433704Y-100821792D01*
X112433704Y-100821792D02*
X112482085Y-101015316D01*
X112482085Y-101015316D02*
X112530466Y-101112078D01*
X112530466Y-101112078D02*
X112627228Y-101208840D01*
X112627228Y-101208840D02*
X112772371Y-101257220D01*
X112772371Y-101257220D02*
X112869133Y-101257220D01*
X112869133Y-101257220D02*
X113014276Y-101208840D01*
X113014276Y-101208840D02*
X113062657Y-101160459D01*
X113062657Y-101160459D02*
X113062657Y-100821792D01*
X113062657Y-100821792D02*
X112869133Y-100821792D01*
X113498085Y-100241220D02*
X113498085Y-101063697D01*
X113498085Y-101063697D02*
X113546466Y-101160459D01*
X113546466Y-101160459D02*
X113594847Y-101208840D01*
X113594847Y-101208840D02*
X113691609Y-101257220D01*
X113691609Y-101257220D02*
X113885133Y-101257220D01*
X113885133Y-101257220D02*
X113981895Y-101208840D01*
X113981895Y-101208840D02*
X114030276Y-101160459D01*
X114030276Y-101160459D02*
X114078657Y-101063697D01*
X114078657Y-101063697D02*
X114078657Y-100241220D01*
X114562466Y-100725030D02*
X114901133Y-100725030D01*
X115046276Y-101257220D02*
X114562466Y-101257220D01*
X114562466Y-101257220D02*
X114562466Y-100241220D01*
X114562466Y-100241220D02*
X115046276Y-100241220D01*
X117628609Y-101181020D02*
X117628609Y-100165020D01*
X117628609Y-100165020D02*
X117967276Y-100890735D01*
X117967276Y-100890735D02*
X118305943Y-100165020D01*
X118305943Y-100165020D02*
X118305943Y-101181020D01*
X118741371Y-100890735D02*
X119225181Y-100890735D01*
X118644609Y-101181020D02*
X118983276Y-100165020D01*
X118983276Y-100165020D02*
X119321943Y-101181020D01*
X119660609Y-101181020D02*
X119660609Y-100165020D01*
X120144419Y-101181020D02*
X120144419Y-100165020D01*
X120144419Y-100165020D02*
X120724991Y-101181020D01*
X120724991Y-101181020D02*
X120724991Y-100165020D01*
X94103613Y-87356647D02*
X94103613Y-86582552D01*
X93583760Y-80644999D02*
X93535379Y-80790142D01*
X93535379Y-80790142D02*
X93535379Y-81032047D01*
X93535379Y-81032047D02*
X93583760Y-81128809D01*
X93583760Y-81128809D02*
X93632140Y-81177190D01*
X93632140Y-81177190D02*
X93728902Y-81225571D01*
X93728902Y-81225571D02*
X93825664Y-81225571D01*
X93825664Y-81225571D02*
X93922426Y-81177190D01*
X93922426Y-81177190D02*
X93970807Y-81128809D01*
X93970807Y-81128809D02*
X94019188Y-81032047D01*
X94019188Y-81032047D02*
X94067569Y-80838523D01*
X94067569Y-80838523D02*
X94115950Y-80741761D01*
X94115950Y-80741761D02*
X94164331Y-80693380D01*
X94164331Y-80693380D02*
X94261093Y-80644999D01*
X94261093Y-80644999D02*
X94357855Y-80644999D01*
X94357855Y-80644999D02*
X94454617Y-80693380D01*
X94454617Y-80693380D02*
X94502998Y-80741761D01*
X94502998Y-80741761D02*
X94551379Y-80838523D01*
X94551379Y-80838523D02*
X94551379Y-81080428D01*
X94551379Y-81080428D02*
X94502998Y-81225571D01*
X94551379Y-81564237D02*
X93535379Y-81806142D01*
X93535379Y-81806142D02*
X94261093Y-81999666D01*
X94261093Y-81999666D02*
X93535379Y-82193190D01*
X93535379Y-82193190D02*
X94551379Y-82435095D01*
X93535379Y-82822142D02*
X94551379Y-82822142D01*
X94551379Y-83160809D02*
X94551379Y-83741381D01*
X93535379Y-83451095D02*
X94551379Y-83451095D01*
X93632140Y-84660619D02*
X93583760Y-84612238D01*
X93583760Y-84612238D02*
X93535379Y-84467095D01*
X93535379Y-84467095D02*
X93535379Y-84370333D01*
X93535379Y-84370333D02*
X93583760Y-84225190D01*
X93583760Y-84225190D02*
X93680521Y-84128428D01*
X93680521Y-84128428D02*
X93777283Y-84080047D01*
X93777283Y-84080047D02*
X93970807Y-84031666D01*
X93970807Y-84031666D02*
X94115950Y-84031666D01*
X94115950Y-84031666D02*
X94309474Y-84080047D01*
X94309474Y-84080047D02*
X94406236Y-84128428D01*
X94406236Y-84128428D02*
X94502998Y-84225190D01*
X94502998Y-84225190D02*
X94551379Y-84370333D01*
X94551379Y-84370333D02*
X94551379Y-84467095D01*
X94551379Y-84467095D02*
X94502998Y-84612238D01*
X94502998Y-84612238D02*
X94454617Y-84660619D01*
X93535379Y-85096047D02*
X94551379Y-85096047D01*
X94067569Y-85096047D02*
X94067569Y-85676619D01*
X93535379Y-85676619D02*
X94551379Y-85676619D01*
X121883714Y-72210264D02*
X121399904Y-72210264D01*
X121980476Y-71919979D02*
X121641809Y-72935979D01*
X121641809Y-72935979D02*
X121303142Y-71919979D01*
X120964476Y-72935979D02*
X120964476Y-72113502D01*
X120964476Y-72113502D02*
X120916095Y-72016740D01*
X120916095Y-72016740D02*
X120867714Y-71968360D01*
X120867714Y-71968360D02*
X120770952Y-71919979D01*
X120770952Y-71919979D02*
X120577428Y-71919979D01*
X120577428Y-71919979D02*
X120480666Y-71968360D01*
X120480666Y-71968360D02*
X120432285Y-72016740D01*
X120432285Y-72016740D02*
X120383904Y-72113502D01*
X120383904Y-72113502D02*
X120383904Y-72935979D01*
X119996857Y-72935979D02*
X119319523Y-71919979D01*
X119319523Y-72935979D02*
X119996857Y-71919979D01*
X118400285Y-71919979D02*
X118980857Y-71919979D01*
X118690571Y-71919979D02*
X118690571Y-72935979D01*
X118690571Y-72935979D02*
X118787333Y-72790836D01*
X118787333Y-72790836D02*
X118884095Y-72694074D01*
X118884095Y-72694074D02*
X118980857Y-72645693D01*
X135718690Y-101285040D02*
X135863833Y-101333420D01*
X135863833Y-101333420D02*
X136105738Y-101333420D01*
X136105738Y-101333420D02*
X136202500Y-101285040D01*
X136202500Y-101285040D02*
X136250881Y-101236659D01*
X136250881Y-101236659D02*
X136299262Y-101139897D01*
X136299262Y-101139897D02*
X136299262Y-101043135D01*
X136299262Y-101043135D02*
X136250881Y-100946373D01*
X136250881Y-100946373D02*
X136202500Y-100897992D01*
X136202500Y-100897992D02*
X136105738Y-100849611D01*
X136105738Y-100849611D02*
X135912214Y-100801230D01*
X135912214Y-100801230D02*
X135815452Y-100752849D01*
X135815452Y-100752849D02*
X135767071Y-100704468D01*
X135767071Y-100704468D02*
X135718690Y-100607706D01*
X135718690Y-100607706D02*
X135718690Y-100510944D01*
X135718690Y-100510944D02*
X135767071Y-100414182D01*
X135767071Y-100414182D02*
X135815452Y-100365801D01*
X135815452Y-100365801D02*
X135912214Y-100317420D01*
X135912214Y-100317420D02*
X136154119Y-100317420D01*
X136154119Y-100317420D02*
X136299262Y-100365801D01*
X136589547Y-100317420D02*
X137170119Y-100317420D01*
X136879833Y-101333420D02*
X136879833Y-100317420D01*
X137460404Y-101043135D02*
X137944214Y-101043135D01*
X137363642Y-101333420D02*
X137702309Y-100317420D01*
X137702309Y-100317420D02*
X138040976Y-101333420D01*
X138234499Y-100317420D02*
X138815071Y-100317420D01*
X138524785Y-101333420D02*
X138524785Y-100317420D01*
X114543114Y-72083264D02*
X114059304Y-72083264D01*
X114639876Y-71792979D02*
X114301209Y-72808979D01*
X114301209Y-72808979D02*
X113962542Y-71792979D01*
X113623876Y-72808979D02*
X113623876Y-71986502D01*
X113623876Y-71986502D02*
X113575495Y-71889740D01*
X113575495Y-71889740D02*
X113527114Y-71841360D01*
X113527114Y-71841360D02*
X113430352Y-71792979D01*
X113430352Y-71792979D02*
X113236828Y-71792979D01*
X113236828Y-71792979D02*
X113140066Y-71841360D01*
X113140066Y-71841360D02*
X113091685Y-71889740D01*
X113091685Y-71889740D02*
X113043304Y-71986502D01*
X113043304Y-71986502D02*
X113043304Y-72808979D01*
X112656257Y-72808979D02*
X111978923Y-71792979D01*
X111978923Y-72808979D02*
X112656257Y-71792979D01*
X111640257Y-72712217D02*
X111591876Y-72760598D01*
X111591876Y-72760598D02*
X111495114Y-72808979D01*
X111495114Y-72808979D02*
X111253209Y-72808979D01*
X111253209Y-72808979D02*
X111156447Y-72760598D01*
X111156447Y-72760598D02*
X111108066Y-72712217D01*
X111108066Y-72712217D02*
X111059685Y-72615455D01*
X111059685Y-72615455D02*
X111059685Y-72518693D01*
X111059685Y-72518693D02*
X111108066Y-72373550D01*
X111108066Y-72373550D02*
X111688638Y-71792979D01*
X111688638Y-71792979D02*
X111059685Y-71792979D01*
%TO.C,U4*%
X131698930Y-97065076D02*
X131698930Y-97583171D01*
X131698930Y-97583171D02*
X131729407Y-97644123D01*
X131729407Y-97644123D02*
X131759883Y-97674600D01*
X131759883Y-97674600D02*
X131820835Y-97705076D01*
X131820835Y-97705076D02*
X131942740Y-97705076D01*
X131942740Y-97705076D02*
X132003692Y-97674600D01*
X132003692Y-97674600D02*
X132034169Y-97644123D01*
X132034169Y-97644123D02*
X132064645Y-97583171D01*
X132064645Y-97583171D02*
X132064645Y-97065076D01*
X132643692Y-97278409D02*
X132643692Y-97705076D01*
X132491311Y-97034600D02*
X132338930Y-97491742D01*
X132338930Y-97491742D02*
X132735121Y-97491742D01*
D11*
%TO.C,C7*%
X146143133Y-77402629D02*
X146118942Y-77426820D01*
X146118942Y-77426820D02*
X146046371Y-77451010D01*
X146046371Y-77451010D02*
X145997990Y-77451010D01*
X145997990Y-77451010D02*
X145925418Y-77426820D01*
X145925418Y-77426820D02*
X145877037Y-77378439D01*
X145877037Y-77378439D02*
X145852847Y-77330058D01*
X145852847Y-77330058D02*
X145828656Y-77233296D01*
X145828656Y-77233296D02*
X145828656Y-77160724D01*
X145828656Y-77160724D02*
X145852847Y-77063962D01*
X145852847Y-77063962D02*
X145877037Y-77015581D01*
X145877037Y-77015581D02*
X145925418Y-76967200D01*
X145925418Y-76967200D02*
X145997990Y-76943010D01*
X145997990Y-76943010D02*
X146046371Y-76943010D01*
X146046371Y-76943010D02*
X146118942Y-76967200D01*
X146118942Y-76967200D02*
X146143133Y-76991391D01*
X146312466Y-76943010D02*
X146651133Y-76943010D01*
X146651133Y-76943010D02*
X146433418Y-77451010D01*
D10*
%TO.C,U7*%
X147015295Y-94128419D02*
X147015295Y-94937942D01*
X147015295Y-94937942D02*
X147062914Y-95033180D01*
X147062914Y-95033180D02*
X147110533Y-95080800D01*
X147110533Y-95080800D02*
X147205771Y-95128419D01*
X147205771Y-95128419D02*
X147396247Y-95128419D01*
X147396247Y-95128419D02*
X147491485Y-95080800D01*
X147491485Y-95080800D02*
X147539104Y-95033180D01*
X147539104Y-95033180D02*
X147586723Y-94937942D01*
X147586723Y-94937942D02*
X147586723Y-94128419D01*
X147967676Y-94128419D02*
X148634342Y-94128419D01*
X148634342Y-94128419D02*
X148205771Y-95128419D01*
D12*
%TO.C,Q10*%
X103671914Y-84712991D02*
X103623533Y-84688800D01*
X103623533Y-84688800D02*
X103575152Y-84640420D01*
X103575152Y-84640420D02*
X103502580Y-84567848D01*
X103502580Y-84567848D02*
X103454199Y-84543658D01*
X103454199Y-84543658D02*
X103405818Y-84543658D01*
X103430009Y-84664610D02*
X103381628Y-84640420D01*
X103381628Y-84640420D02*
X103333247Y-84592039D01*
X103333247Y-84592039D02*
X103309056Y-84495277D01*
X103309056Y-84495277D02*
X103309056Y-84325943D01*
X103309056Y-84325943D02*
X103333247Y-84229181D01*
X103333247Y-84229181D02*
X103381628Y-84180800D01*
X103381628Y-84180800D02*
X103430009Y-84156610D01*
X103430009Y-84156610D02*
X103526771Y-84156610D01*
X103526771Y-84156610D02*
X103575152Y-84180800D01*
X103575152Y-84180800D02*
X103623533Y-84229181D01*
X103623533Y-84229181D02*
X103647723Y-84325943D01*
X103647723Y-84325943D02*
X103647723Y-84495277D01*
X103647723Y-84495277D02*
X103623533Y-84592039D01*
X103623533Y-84592039D02*
X103575152Y-84640420D01*
X103575152Y-84640420D02*
X103526771Y-84664610D01*
X103526771Y-84664610D02*
X103430009Y-84664610D01*
X104131532Y-84664610D02*
X103841246Y-84664610D01*
X103986389Y-84664610D02*
X103986389Y-84156610D01*
X103986389Y-84156610D02*
X103938008Y-84229181D01*
X103938008Y-84229181D02*
X103889627Y-84277562D01*
X103889627Y-84277562D02*
X103841246Y-84301753D01*
X104446009Y-84156610D02*
X104494390Y-84156610D01*
X104494390Y-84156610D02*
X104542771Y-84180800D01*
X104542771Y-84180800D02*
X104566961Y-84204991D01*
X104566961Y-84204991D02*
X104591152Y-84253372D01*
X104591152Y-84253372D02*
X104615342Y-84350134D01*
X104615342Y-84350134D02*
X104615342Y-84471086D01*
X104615342Y-84471086D02*
X104591152Y-84567848D01*
X104591152Y-84567848D02*
X104566961Y-84616229D01*
X104566961Y-84616229D02*
X104542771Y-84640420D01*
X104542771Y-84640420D02*
X104494390Y-84664610D01*
X104494390Y-84664610D02*
X104446009Y-84664610D01*
X104446009Y-84664610D02*
X104397628Y-84640420D01*
X104397628Y-84640420D02*
X104373437Y-84616229D01*
X104373437Y-84616229D02*
X104349247Y-84567848D01*
X104349247Y-84567848D02*
X104325056Y-84471086D01*
X104325056Y-84471086D02*
X104325056Y-84350134D01*
X104325056Y-84350134D02*
X104349247Y-84253372D01*
X104349247Y-84253372D02*
X104373437Y-84204991D01*
X104373437Y-84204991D02*
X104397628Y-84180800D01*
X104397628Y-84180800D02*
X104446009Y-84156610D01*
D10*
%TO.C,D1*%
X136455005Y-97236619D02*
X136455005Y-96236619D01*
X136455005Y-96236619D02*
X136693100Y-96236619D01*
X136693100Y-96236619D02*
X136835957Y-96284238D01*
X136835957Y-96284238D02*
X136931195Y-96379476D01*
X136931195Y-96379476D02*
X136978814Y-96474714D01*
X136978814Y-96474714D02*
X137026433Y-96665190D01*
X137026433Y-96665190D02*
X137026433Y-96808047D01*
X137026433Y-96808047D02*
X136978814Y-96998523D01*
X136978814Y-96998523D02*
X136931195Y-97093761D01*
X136931195Y-97093761D02*
X136835957Y-97189000D01*
X136835957Y-97189000D02*
X136693100Y-97236619D01*
X136693100Y-97236619D02*
X136455005Y-97236619D01*
X137978814Y-97236619D02*
X137407386Y-97236619D01*
X137693100Y-97236619D02*
X137693100Y-96236619D01*
X137693100Y-96236619D02*
X137597862Y-96379476D01*
X137597862Y-96379476D02*
X137502624Y-96474714D01*
X137502624Y-96474714D02*
X137407386Y-96522333D01*
D11*
%TO.C,R17*%
X120170828Y-91294010D02*
X120001494Y-91052105D01*
X119880542Y-91294010D02*
X119880542Y-90786010D01*
X119880542Y-90786010D02*
X120074066Y-90786010D01*
X120074066Y-90786010D02*
X120122447Y-90810200D01*
X120122447Y-90810200D02*
X120146637Y-90834391D01*
X120146637Y-90834391D02*
X120170828Y-90882772D01*
X120170828Y-90882772D02*
X120170828Y-90955343D01*
X120170828Y-90955343D02*
X120146637Y-91003724D01*
X120146637Y-91003724D02*
X120122447Y-91027915D01*
X120122447Y-91027915D02*
X120074066Y-91052105D01*
X120074066Y-91052105D02*
X119880542Y-91052105D01*
X120654637Y-91294010D02*
X120364351Y-91294010D01*
X120509494Y-91294010D02*
X120509494Y-90786010D01*
X120509494Y-90786010D02*
X120461113Y-90858581D01*
X120461113Y-90858581D02*
X120412732Y-90906962D01*
X120412732Y-90906962D02*
X120364351Y-90931153D01*
X120823971Y-90786010D02*
X121162638Y-90786010D01*
X121162638Y-90786010D02*
X120944923Y-91294010D01*
%TO.C,C23*%
X109071228Y-84362229D02*
X109047037Y-84386420D01*
X109047037Y-84386420D02*
X108974466Y-84410610D01*
X108974466Y-84410610D02*
X108926085Y-84410610D01*
X108926085Y-84410610D02*
X108853513Y-84386420D01*
X108853513Y-84386420D02*
X108805132Y-84338039D01*
X108805132Y-84338039D02*
X108780942Y-84289658D01*
X108780942Y-84289658D02*
X108756751Y-84192896D01*
X108756751Y-84192896D02*
X108756751Y-84120324D01*
X108756751Y-84120324D02*
X108780942Y-84023562D01*
X108780942Y-84023562D02*
X108805132Y-83975181D01*
X108805132Y-83975181D02*
X108853513Y-83926800D01*
X108853513Y-83926800D02*
X108926085Y-83902610D01*
X108926085Y-83902610D02*
X108974466Y-83902610D01*
X108974466Y-83902610D02*
X109047037Y-83926800D01*
X109047037Y-83926800D02*
X109071228Y-83950991D01*
X109264751Y-83950991D02*
X109288942Y-83926800D01*
X109288942Y-83926800D02*
X109337323Y-83902610D01*
X109337323Y-83902610D02*
X109458275Y-83902610D01*
X109458275Y-83902610D02*
X109506656Y-83926800D01*
X109506656Y-83926800D02*
X109530847Y-83950991D01*
X109530847Y-83950991D02*
X109555037Y-83999372D01*
X109555037Y-83999372D02*
X109555037Y-84047753D01*
X109555037Y-84047753D02*
X109530847Y-84120324D01*
X109530847Y-84120324D02*
X109240561Y-84410610D01*
X109240561Y-84410610D02*
X109555037Y-84410610D01*
X109724371Y-83902610D02*
X110038847Y-83902610D01*
X110038847Y-83902610D02*
X109869514Y-84096134D01*
X109869514Y-84096134D02*
X109942085Y-84096134D01*
X109942085Y-84096134D02*
X109990466Y-84120324D01*
X109990466Y-84120324D02*
X110014657Y-84144515D01*
X110014657Y-84144515D02*
X110038847Y-84192896D01*
X110038847Y-84192896D02*
X110038847Y-84313848D01*
X110038847Y-84313848D02*
X110014657Y-84362229D01*
X110014657Y-84362229D02*
X109990466Y-84386420D01*
X109990466Y-84386420D02*
X109942085Y-84410610D01*
X109942085Y-84410610D02*
X109796942Y-84410610D01*
X109796942Y-84410610D02*
X109748561Y-84386420D01*
X109748561Y-84386420D02*
X109724371Y-84362229D01*
%TO.C,C21*%
X118164428Y-89061229D02*
X118140237Y-89085420D01*
X118140237Y-89085420D02*
X118067666Y-89109610D01*
X118067666Y-89109610D02*
X118019285Y-89109610D01*
X118019285Y-89109610D02*
X117946713Y-89085420D01*
X117946713Y-89085420D02*
X117898332Y-89037039D01*
X117898332Y-89037039D02*
X117874142Y-88988658D01*
X117874142Y-88988658D02*
X117849951Y-88891896D01*
X117849951Y-88891896D02*
X117849951Y-88819324D01*
X117849951Y-88819324D02*
X117874142Y-88722562D01*
X117874142Y-88722562D02*
X117898332Y-88674181D01*
X117898332Y-88674181D02*
X117946713Y-88625800D01*
X117946713Y-88625800D02*
X118019285Y-88601610D01*
X118019285Y-88601610D02*
X118067666Y-88601610D01*
X118067666Y-88601610D02*
X118140237Y-88625800D01*
X118140237Y-88625800D02*
X118164428Y-88649991D01*
X118357951Y-88649991D02*
X118382142Y-88625800D01*
X118382142Y-88625800D02*
X118430523Y-88601610D01*
X118430523Y-88601610D02*
X118551475Y-88601610D01*
X118551475Y-88601610D02*
X118599856Y-88625800D01*
X118599856Y-88625800D02*
X118624047Y-88649991D01*
X118624047Y-88649991D02*
X118648237Y-88698372D01*
X118648237Y-88698372D02*
X118648237Y-88746753D01*
X118648237Y-88746753D02*
X118624047Y-88819324D01*
X118624047Y-88819324D02*
X118333761Y-89109610D01*
X118333761Y-89109610D02*
X118648237Y-89109610D01*
X119132047Y-89109610D02*
X118841761Y-89109610D01*
X118986904Y-89109610D02*
X118986904Y-88601610D01*
X118986904Y-88601610D02*
X118938523Y-88674181D01*
X118938523Y-88674181D02*
X118890142Y-88722562D01*
X118890142Y-88722562D02*
X118841761Y-88746753D01*
%TO.C,R5*%
X155337933Y-72548810D02*
X155168599Y-72306905D01*
X155047647Y-72548810D02*
X155047647Y-72040810D01*
X155047647Y-72040810D02*
X155241171Y-72040810D01*
X155241171Y-72040810D02*
X155289552Y-72065000D01*
X155289552Y-72065000D02*
X155313742Y-72089191D01*
X155313742Y-72089191D02*
X155337933Y-72137572D01*
X155337933Y-72137572D02*
X155337933Y-72210143D01*
X155337933Y-72210143D02*
X155313742Y-72258524D01*
X155313742Y-72258524D02*
X155289552Y-72282715D01*
X155289552Y-72282715D02*
X155241171Y-72306905D01*
X155241171Y-72306905D02*
X155047647Y-72306905D01*
X155797552Y-72040810D02*
X155555647Y-72040810D01*
X155555647Y-72040810D02*
X155531456Y-72282715D01*
X155531456Y-72282715D02*
X155555647Y-72258524D01*
X155555647Y-72258524D02*
X155604028Y-72234334D01*
X155604028Y-72234334D02*
X155724980Y-72234334D01*
X155724980Y-72234334D02*
X155773361Y-72258524D01*
X155773361Y-72258524D02*
X155797552Y-72282715D01*
X155797552Y-72282715D02*
X155821742Y-72331096D01*
X155821742Y-72331096D02*
X155821742Y-72452048D01*
X155821742Y-72452048D02*
X155797552Y-72500429D01*
X155797552Y-72500429D02*
X155773361Y-72524620D01*
X155773361Y-72524620D02*
X155724980Y-72548810D01*
X155724980Y-72548810D02*
X155604028Y-72548810D01*
X155604028Y-72548810D02*
X155555647Y-72524620D01*
X155555647Y-72524620D02*
X155531456Y-72500429D01*
%TO.C,R28*%
X107394828Y-84791610D02*
X107225494Y-84549705D01*
X107104542Y-84791610D02*
X107104542Y-84283610D01*
X107104542Y-84283610D02*
X107298066Y-84283610D01*
X107298066Y-84283610D02*
X107346447Y-84307800D01*
X107346447Y-84307800D02*
X107370637Y-84331991D01*
X107370637Y-84331991D02*
X107394828Y-84380372D01*
X107394828Y-84380372D02*
X107394828Y-84452943D01*
X107394828Y-84452943D02*
X107370637Y-84501324D01*
X107370637Y-84501324D02*
X107346447Y-84525515D01*
X107346447Y-84525515D02*
X107298066Y-84549705D01*
X107298066Y-84549705D02*
X107104542Y-84549705D01*
X107588351Y-84331991D02*
X107612542Y-84307800D01*
X107612542Y-84307800D02*
X107660923Y-84283610D01*
X107660923Y-84283610D02*
X107781875Y-84283610D01*
X107781875Y-84283610D02*
X107830256Y-84307800D01*
X107830256Y-84307800D02*
X107854447Y-84331991D01*
X107854447Y-84331991D02*
X107878637Y-84380372D01*
X107878637Y-84380372D02*
X107878637Y-84428753D01*
X107878637Y-84428753D02*
X107854447Y-84501324D01*
X107854447Y-84501324D02*
X107564161Y-84791610D01*
X107564161Y-84791610D02*
X107878637Y-84791610D01*
X108168923Y-84501324D02*
X108120542Y-84477134D01*
X108120542Y-84477134D02*
X108096352Y-84452943D01*
X108096352Y-84452943D02*
X108072161Y-84404562D01*
X108072161Y-84404562D02*
X108072161Y-84380372D01*
X108072161Y-84380372D02*
X108096352Y-84331991D01*
X108096352Y-84331991D02*
X108120542Y-84307800D01*
X108120542Y-84307800D02*
X108168923Y-84283610D01*
X108168923Y-84283610D02*
X108265685Y-84283610D01*
X108265685Y-84283610D02*
X108314066Y-84307800D01*
X108314066Y-84307800D02*
X108338257Y-84331991D01*
X108338257Y-84331991D02*
X108362447Y-84380372D01*
X108362447Y-84380372D02*
X108362447Y-84404562D01*
X108362447Y-84404562D02*
X108338257Y-84452943D01*
X108338257Y-84452943D02*
X108314066Y-84477134D01*
X108314066Y-84477134D02*
X108265685Y-84501324D01*
X108265685Y-84501324D02*
X108168923Y-84501324D01*
X108168923Y-84501324D02*
X108120542Y-84525515D01*
X108120542Y-84525515D02*
X108096352Y-84549705D01*
X108096352Y-84549705D02*
X108072161Y-84598086D01*
X108072161Y-84598086D02*
X108072161Y-84694848D01*
X108072161Y-84694848D02*
X108096352Y-84743229D01*
X108096352Y-84743229D02*
X108120542Y-84767420D01*
X108120542Y-84767420D02*
X108168923Y-84791610D01*
X108168923Y-84791610D02*
X108265685Y-84791610D01*
X108265685Y-84791610D02*
X108314066Y-84767420D01*
X108314066Y-84767420D02*
X108338257Y-84743229D01*
X108338257Y-84743229D02*
X108362447Y-84694848D01*
X108362447Y-84694848D02*
X108362447Y-84598086D01*
X108362447Y-84598086D02*
X108338257Y-84549705D01*
X108338257Y-84549705D02*
X108314066Y-84525515D01*
X108314066Y-84525515D02*
X108265685Y-84501324D01*
%TO.C,R8*%
X128972733Y-99650610D02*
X128803399Y-99408705D01*
X128682447Y-99650610D02*
X128682447Y-99142610D01*
X128682447Y-99142610D02*
X128875971Y-99142610D01*
X128875971Y-99142610D02*
X128924352Y-99166800D01*
X128924352Y-99166800D02*
X128948542Y-99190991D01*
X128948542Y-99190991D02*
X128972733Y-99239372D01*
X128972733Y-99239372D02*
X128972733Y-99311943D01*
X128972733Y-99311943D02*
X128948542Y-99360324D01*
X128948542Y-99360324D02*
X128924352Y-99384515D01*
X128924352Y-99384515D02*
X128875971Y-99408705D01*
X128875971Y-99408705D02*
X128682447Y-99408705D01*
X129263018Y-99360324D02*
X129214637Y-99336134D01*
X129214637Y-99336134D02*
X129190447Y-99311943D01*
X129190447Y-99311943D02*
X129166256Y-99263562D01*
X129166256Y-99263562D02*
X129166256Y-99239372D01*
X129166256Y-99239372D02*
X129190447Y-99190991D01*
X129190447Y-99190991D02*
X129214637Y-99166800D01*
X129214637Y-99166800D02*
X129263018Y-99142610D01*
X129263018Y-99142610D02*
X129359780Y-99142610D01*
X129359780Y-99142610D02*
X129408161Y-99166800D01*
X129408161Y-99166800D02*
X129432352Y-99190991D01*
X129432352Y-99190991D02*
X129456542Y-99239372D01*
X129456542Y-99239372D02*
X129456542Y-99263562D01*
X129456542Y-99263562D02*
X129432352Y-99311943D01*
X129432352Y-99311943D02*
X129408161Y-99336134D01*
X129408161Y-99336134D02*
X129359780Y-99360324D01*
X129359780Y-99360324D02*
X129263018Y-99360324D01*
X129263018Y-99360324D02*
X129214637Y-99384515D01*
X129214637Y-99384515D02*
X129190447Y-99408705D01*
X129190447Y-99408705D02*
X129166256Y-99457086D01*
X129166256Y-99457086D02*
X129166256Y-99553848D01*
X129166256Y-99553848D02*
X129190447Y-99602229D01*
X129190447Y-99602229D02*
X129214637Y-99626420D01*
X129214637Y-99626420D02*
X129263018Y-99650610D01*
X129263018Y-99650610D02*
X129359780Y-99650610D01*
X129359780Y-99650610D02*
X129408161Y-99626420D01*
X129408161Y-99626420D02*
X129432352Y-99602229D01*
X129432352Y-99602229D02*
X129456542Y-99553848D01*
X129456542Y-99553848D02*
X129456542Y-99457086D01*
X129456542Y-99457086D02*
X129432352Y-99408705D01*
X129432352Y-99408705D02*
X129408161Y-99384515D01*
X129408161Y-99384515D02*
X129359780Y-99360324D01*
%TO.C,D5*%
X129977847Y-72396410D02*
X129977847Y-71888410D01*
X129977847Y-71888410D02*
X130098799Y-71888410D01*
X130098799Y-71888410D02*
X130171371Y-71912600D01*
X130171371Y-71912600D02*
X130219752Y-71960981D01*
X130219752Y-71960981D02*
X130243942Y-72009362D01*
X130243942Y-72009362D02*
X130268133Y-72106124D01*
X130268133Y-72106124D02*
X130268133Y-72178696D01*
X130268133Y-72178696D02*
X130243942Y-72275458D01*
X130243942Y-72275458D02*
X130219752Y-72323839D01*
X130219752Y-72323839D02*
X130171371Y-72372220D01*
X130171371Y-72372220D02*
X130098799Y-72396410D01*
X130098799Y-72396410D02*
X129977847Y-72396410D01*
X130727752Y-71888410D02*
X130485847Y-71888410D01*
X130485847Y-71888410D02*
X130461656Y-72130315D01*
X130461656Y-72130315D02*
X130485847Y-72106124D01*
X130485847Y-72106124D02*
X130534228Y-72081934D01*
X130534228Y-72081934D02*
X130655180Y-72081934D01*
X130655180Y-72081934D02*
X130703561Y-72106124D01*
X130703561Y-72106124D02*
X130727752Y-72130315D01*
X130727752Y-72130315D02*
X130751942Y-72178696D01*
X130751942Y-72178696D02*
X130751942Y-72299648D01*
X130751942Y-72299648D02*
X130727752Y-72348029D01*
X130727752Y-72348029D02*
X130703561Y-72372220D01*
X130703561Y-72372220D02*
X130655180Y-72396410D01*
X130655180Y-72396410D02*
X130534228Y-72396410D01*
X130534228Y-72396410D02*
X130485847Y-72372220D01*
X130485847Y-72372220D02*
X130461656Y-72348029D01*
D12*
%TO.C,J1*%
X136711266Y-75977810D02*
X136711266Y-76340667D01*
X136711266Y-76340667D02*
X136687075Y-76413239D01*
X136687075Y-76413239D02*
X136638694Y-76461620D01*
X136638694Y-76461620D02*
X136566123Y-76485810D01*
X136566123Y-76485810D02*
X136517742Y-76485810D01*
X137219266Y-76485810D02*
X136928980Y-76485810D01*
X137074123Y-76485810D02*
X137074123Y-75977810D01*
X137074123Y-75977810D02*
X137025742Y-76050381D01*
X137025742Y-76050381D02*
X136977361Y-76098762D01*
X136977361Y-76098762D02*
X136928980Y-76122953D01*
D10*
%TO.C,P5*%
X109221906Y-93347220D02*
X109221906Y-92347220D01*
X109221906Y-92347220D02*
X109602858Y-92347220D01*
X109602858Y-92347220D02*
X109698096Y-92394839D01*
X109698096Y-92394839D02*
X109745715Y-92442458D01*
X109745715Y-92442458D02*
X109793334Y-92537696D01*
X109793334Y-92537696D02*
X109793334Y-92680553D01*
X109793334Y-92680553D02*
X109745715Y-92775791D01*
X109745715Y-92775791D02*
X109698096Y-92823410D01*
X109698096Y-92823410D02*
X109602858Y-92871029D01*
X109602858Y-92871029D02*
X109221906Y-92871029D01*
X110698096Y-92347220D02*
X110221906Y-92347220D01*
X110221906Y-92347220D02*
X110174287Y-92823410D01*
X110174287Y-92823410D02*
X110221906Y-92775791D01*
X110221906Y-92775791D02*
X110317144Y-92728172D01*
X110317144Y-92728172D02*
X110555239Y-92728172D01*
X110555239Y-92728172D02*
X110650477Y-92775791D01*
X110650477Y-92775791D02*
X110698096Y-92823410D01*
X110698096Y-92823410D02*
X110745715Y-92918648D01*
X110745715Y-92918648D02*
X110745715Y-93156743D01*
X110745715Y-93156743D02*
X110698096Y-93251981D01*
X110698096Y-93251981D02*
X110650477Y-93299601D01*
X110650477Y-93299601D02*
X110555239Y-93347220D01*
X110555239Y-93347220D02*
X110317144Y-93347220D01*
X110317144Y-93347220D02*
X110221906Y-93299601D01*
X110221906Y-93299601D02*
X110174287Y-93251981D01*
D11*
%TO.C,R20*%
X96422028Y-94621410D02*
X96252694Y-94379505D01*
X96131742Y-94621410D02*
X96131742Y-94113410D01*
X96131742Y-94113410D02*
X96325266Y-94113410D01*
X96325266Y-94113410D02*
X96373647Y-94137600D01*
X96373647Y-94137600D02*
X96397837Y-94161791D01*
X96397837Y-94161791D02*
X96422028Y-94210172D01*
X96422028Y-94210172D02*
X96422028Y-94282743D01*
X96422028Y-94282743D02*
X96397837Y-94331124D01*
X96397837Y-94331124D02*
X96373647Y-94355315D01*
X96373647Y-94355315D02*
X96325266Y-94379505D01*
X96325266Y-94379505D02*
X96131742Y-94379505D01*
X96615551Y-94161791D02*
X96639742Y-94137600D01*
X96639742Y-94137600D02*
X96688123Y-94113410D01*
X96688123Y-94113410D02*
X96809075Y-94113410D01*
X96809075Y-94113410D02*
X96857456Y-94137600D01*
X96857456Y-94137600D02*
X96881647Y-94161791D01*
X96881647Y-94161791D02*
X96905837Y-94210172D01*
X96905837Y-94210172D02*
X96905837Y-94258553D01*
X96905837Y-94258553D02*
X96881647Y-94331124D01*
X96881647Y-94331124D02*
X96591361Y-94621410D01*
X96591361Y-94621410D02*
X96905837Y-94621410D01*
X97220314Y-94113410D02*
X97268695Y-94113410D01*
X97268695Y-94113410D02*
X97317076Y-94137600D01*
X97317076Y-94137600D02*
X97341266Y-94161791D01*
X97341266Y-94161791D02*
X97365457Y-94210172D01*
X97365457Y-94210172D02*
X97389647Y-94306934D01*
X97389647Y-94306934D02*
X97389647Y-94427886D01*
X97389647Y-94427886D02*
X97365457Y-94524648D01*
X97365457Y-94524648D02*
X97341266Y-94573029D01*
X97341266Y-94573029D02*
X97317076Y-94597220D01*
X97317076Y-94597220D02*
X97268695Y-94621410D01*
X97268695Y-94621410D02*
X97220314Y-94621410D01*
X97220314Y-94621410D02*
X97171933Y-94597220D01*
X97171933Y-94597220D02*
X97147742Y-94573029D01*
X97147742Y-94573029D02*
X97123552Y-94524648D01*
X97123552Y-94524648D02*
X97099361Y-94427886D01*
X97099361Y-94427886D02*
X97099361Y-94306934D01*
X97099361Y-94306934D02*
X97123552Y-94210172D01*
X97123552Y-94210172D02*
X97147742Y-94161791D01*
X97147742Y-94161791D02*
X97171933Y-94137600D01*
X97171933Y-94137600D02*
X97220314Y-94113410D01*
D12*
%TO.C,Q4*%
X112295819Y-85703591D02*
X112247438Y-85679400D01*
X112247438Y-85679400D02*
X112199057Y-85631020D01*
X112199057Y-85631020D02*
X112126485Y-85558448D01*
X112126485Y-85558448D02*
X112078104Y-85534258D01*
X112078104Y-85534258D02*
X112029723Y-85534258D01*
X112053914Y-85655210D02*
X112005533Y-85631020D01*
X112005533Y-85631020D02*
X111957152Y-85582639D01*
X111957152Y-85582639D02*
X111932961Y-85485877D01*
X111932961Y-85485877D02*
X111932961Y-85316543D01*
X111932961Y-85316543D02*
X111957152Y-85219781D01*
X111957152Y-85219781D02*
X112005533Y-85171400D01*
X112005533Y-85171400D02*
X112053914Y-85147210D01*
X112053914Y-85147210D02*
X112150676Y-85147210D01*
X112150676Y-85147210D02*
X112199057Y-85171400D01*
X112199057Y-85171400D02*
X112247438Y-85219781D01*
X112247438Y-85219781D02*
X112271628Y-85316543D01*
X112271628Y-85316543D02*
X112271628Y-85485877D01*
X112271628Y-85485877D02*
X112247438Y-85582639D01*
X112247438Y-85582639D02*
X112199057Y-85631020D01*
X112199057Y-85631020D02*
X112150676Y-85655210D01*
X112150676Y-85655210D02*
X112053914Y-85655210D01*
X112707056Y-85316543D02*
X112707056Y-85655210D01*
X112586104Y-85123020D02*
X112465151Y-85485877D01*
X112465151Y-85485877D02*
X112779628Y-85485877D01*
D11*
%TO.C,C3*%
X131131733Y-95335029D02*
X131107542Y-95359220D01*
X131107542Y-95359220D02*
X131034971Y-95383410D01*
X131034971Y-95383410D02*
X130986590Y-95383410D01*
X130986590Y-95383410D02*
X130914018Y-95359220D01*
X130914018Y-95359220D02*
X130865637Y-95310839D01*
X130865637Y-95310839D02*
X130841447Y-95262458D01*
X130841447Y-95262458D02*
X130817256Y-95165696D01*
X130817256Y-95165696D02*
X130817256Y-95093124D01*
X130817256Y-95093124D02*
X130841447Y-94996362D01*
X130841447Y-94996362D02*
X130865637Y-94947981D01*
X130865637Y-94947981D02*
X130914018Y-94899600D01*
X130914018Y-94899600D02*
X130986590Y-94875410D01*
X130986590Y-94875410D02*
X131034971Y-94875410D01*
X131034971Y-94875410D02*
X131107542Y-94899600D01*
X131107542Y-94899600D02*
X131131733Y-94923791D01*
X131301066Y-94875410D02*
X131615542Y-94875410D01*
X131615542Y-94875410D02*
X131446209Y-95068934D01*
X131446209Y-95068934D02*
X131518780Y-95068934D01*
X131518780Y-95068934D02*
X131567161Y-95093124D01*
X131567161Y-95093124D02*
X131591352Y-95117315D01*
X131591352Y-95117315D02*
X131615542Y-95165696D01*
X131615542Y-95165696D02*
X131615542Y-95286648D01*
X131615542Y-95286648D02*
X131591352Y-95335029D01*
X131591352Y-95335029D02*
X131567161Y-95359220D01*
X131567161Y-95359220D02*
X131518780Y-95383410D01*
X131518780Y-95383410D02*
X131373637Y-95383410D01*
X131373637Y-95383410D02*
X131325256Y-95359220D01*
X131325256Y-95359220D02*
X131301066Y-95335029D01*
%TO.C,R23*%
X164798828Y-87814210D02*
X164629494Y-87572305D01*
X164508542Y-87814210D02*
X164508542Y-87306210D01*
X164508542Y-87306210D02*
X164702066Y-87306210D01*
X164702066Y-87306210D02*
X164750447Y-87330400D01*
X164750447Y-87330400D02*
X164774637Y-87354591D01*
X164774637Y-87354591D02*
X164798828Y-87402972D01*
X164798828Y-87402972D02*
X164798828Y-87475543D01*
X164798828Y-87475543D02*
X164774637Y-87523924D01*
X164774637Y-87523924D02*
X164750447Y-87548115D01*
X164750447Y-87548115D02*
X164702066Y-87572305D01*
X164702066Y-87572305D02*
X164508542Y-87572305D01*
X164992351Y-87354591D02*
X165016542Y-87330400D01*
X165016542Y-87330400D02*
X165064923Y-87306210D01*
X165064923Y-87306210D02*
X165185875Y-87306210D01*
X165185875Y-87306210D02*
X165234256Y-87330400D01*
X165234256Y-87330400D02*
X165258447Y-87354591D01*
X165258447Y-87354591D02*
X165282637Y-87402972D01*
X165282637Y-87402972D02*
X165282637Y-87451353D01*
X165282637Y-87451353D02*
X165258447Y-87523924D01*
X165258447Y-87523924D02*
X164968161Y-87814210D01*
X164968161Y-87814210D02*
X165282637Y-87814210D01*
X165451971Y-87306210D02*
X165766447Y-87306210D01*
X165766447Y-87306210D02*
X165597114Y-87499734D01*
X165597114Y-87499734D02*
X165669685Y-87499734D01*
X165669685Y-87499734D02*
X165718066Y-87523924D01*
X165718066Y-87523924D02*
X165742257Y-87548115D01*
X165742257Y-87548115D02*
X165766447Y-87596496D01*
X165766447Y-87596496D02*
X165766447Y-87717448D01*
X165766447Y-87717448D02*
X165742257Y-87765829D01*
X165742257Y-87765829D02*
X165718066Y-87790020D01*
X165718066Y-87790020D02*
X165669685Y-87814210D01*
X165669685Y-87814210D02*
X165524542Y-87814210D01*
X165524542Y-87814210D02*
X165476161Y-87790020D01*
X165476161Y-87790020D02*
X165451971Y-87765829D01*
%TO.C,C12*%
X122939628Y-83371629D02*
X122915437Y-83395820D01*
X122915437Y-83395820D02*
X122842866Y-83420010D01*
X122842866Y-83420010D02*
X122794485Y-83420010D01*
X122794485Y-83420010D02*
X122721913Y-83395820D01*
X122721913Y-83395820D02*
X122673532Y-83347439D01*
X122673532Y-83347439D02*
X122649342Y-83299058D01*
X122649342Y-83299058D02*
X122625151Y-83202296D01*
X122625151Y-83202296D02*
X122625151Y-83129724D01*
X122625151Y-83129724D02*
X122649342Y-83032962D01*
X122649342Y-83032962D02*
X122673532Y-82984581D01*
X122673532Y-82984581D02*
X122721913Y-82936200D01*
X122721913Y-82936200D02*
X122794485Y-82912010D01*
X122794485Y-82912010D02*
X122842866Y-82912010D01*
X122842866Y-82912010D02*
X122915437Y-82936200D01*
X122915437Y-82936200D02*
X122939628Y-82960391D01*
X123423437Y-83420010D02*
X123133151Y-83420010D01*
X123278294Y-83420010D02*
X123278294Y-82912010D01*
X123278294Y-82912010D02*
X123229913Y-82984581D01*
X123229913Y-82984581D02*
X123181532Y-83032962D01*
X123181532Y-83032962D02*
X123133151Y-83057153D01*
X123616961Y-82960391D02*
X123641152Y-82936200D01*
X123641152Y-82936200D02*
X123689533Y-82912010D01*
X123689533Y-82912010D02*
X123810485Y-82912010D01*
X123810485Y-82912010D02*
X123858866Y-82936200D01*
X123858866Y-82936200D02*
X123883057Y-82960391D01*
X123883057Y-82960391D02*
X123907247Y-83008772D01*
X123907247Y-83008772D02*
X123907247Y-83057153D01*
X123907247Y-83057153D02*
X123883057Y-83129724D01*
X123883057Y-83129724D02*
X123592771Y-83420010D01*
X123592771Y-83420010D02*
X123907247Y-83420010D01*
%TO.C,R9*%
X159452733Y-96602610D02*
X159283399Y-96360705D01*
X159162447Y-96602610D02*
X159162447Y-96094610D01*
X159162447Y-96094610D02*
X159355971Y-96094610D01*
X159355971Y-96094610D02*
X159404352Y-96118800D01*
X159404352Y-96118800D02*
X159428542Y-96142991D01*
X159428542Y-96142991D02*
X159452733Y-96191372D01*
X159452733Y-96191372D02*
X159452733Y-96263943D01*
X159452733Y-96263943D02*
X159428542Y-96312324D01*
X159428542Y-96312324D02*
X159404352Y-96336515D01*
X159404352Y-96336515D02*
X159355971Y-96360705D01*
X159355971Y-96360705D02*
X159162447Y-96360705D01*
X159694637Y-96602610D02*
X159791399Y-96602610D01*
X159791399Y-96602610D02*
X159839780Y-96578420D01*
X159839780Y-96578420D02*
X159863971Y-96554229D01*
X159863971Y-96554229D02*
X159912352Y-96481658D01*
X159912352Y-96481658D02*
X159936542Y-96384896D01*
X159936542Y-96384896D02*
X159936542Y-96191372D01*
X159936542Y-96191372D02*
X159912352Y-96142991D01*
X159912352Y-96142991D02*
X159888161Y-96118800D01*
X159888161Y-96118800D02*
X159839780Y-96094610D01*
X159839780Y-96094610D02*
X159743018Y-96094610D01*
X159743018Y-96094610D02*
X159694637Y-96118800D01*
X159694637Y-96118800D02*
X159670447Y-96142991D01*
X159670447Y-96142991D02*
X159646256Y-96191372D01*
X159646256Y-96191372D02*
X159646256Y-96312324D01*
X159646256Y-96312324D02*
X159670447Y-96360705D01*
X159670447Y-96360705D02*
X159694637Y-96384896D01*
X159694637Y-96384896D02*
X159743018Y-96409086D01*
X159743018Y-96409086D02*
X159839780Y-96409086D01*
X159839780Y-96409086D02*
X159888161Y-96384896D01*
X159888161Y-96384896D02*
X159912352Y-96360705D01*
X159912352Y-96360705D02*
X159936542Y-96312324D01*
%TO.C,R16*%
X100562228Y-95815210D02*
X100392894Y-95573305D01*
X100271942Y-95815210D02*
X100271942Y-95307210D01*
X100271942Y-95307210D02*
X100465466Y-95307210D01*
X100465466Y-95307210D02*
X100513847Y-95331400D01*
X100513847Y-95331400D02*
X100538037Y-95355591D01*
X100538037Y-95355591D02*
X100562228Y-95403972D01*
X100562228Y-95403972D02*
X100562228Y-95476543D01*
X100562228Y-95476543D02*
X100538037Y-95524924D01*
X100538037Y-95524924D02*
X100513847Y-95549115D01*
X100513847Y-95549115D02*
X100465466Y-95573305D01*
X100465466Y-95573305D02*
X100271942Y-95573305D01*
X101046037Y-95815210D02*
X100755751Y-95815210D01*
X100900894Y-95815210D02*
X100900894Y-95307210D01*
X100900894Y-95307210D02*
X100852513Y-95379781D01*
X100852513Y-95379781D02*
X100804132Y-95428162D01*
X100804132Y-95428162D02*
X100755751Y-95452353D01*
X101481466Y-95307210D02*
X101384704Y-95307210D01*
X101384704Y-95307210D02*
X101336323Y-95331400D01*
X101336323Y-95331400D02*
X101312133Y-95355591D01*
X101312133Y-95355591D02*
X101263752Y-95428162D01*
X101263752Y-95428162D02*
X101239561Y-95524924D01*
X101239561Y-95524924D02*
X101239561Y-95718448D01*
X101239561Y-95718448D02*
X101263752Y-95766829D01*
X101263752Y-95766829D02*
X101287942Y-95791020D01*
X101287942Y-95791020D02*
X101336323Y-95815210D01*
X101336323Y-95815210D02*
X101433085Y-95815210D01*
X101433085Y-95815210D02*
X101481466Y-95791020D01*
X101481466Y-95791020D02*
X101505657Y-95766829D01*
X101505657Y-95766829D02*
X101529847Y-95718448D01*
X101529847Y-95718448D02*
X101529847Y-95597496D01*
X101529847Y-95597496D02*
X101505657Y-95549115D01*
X101505657Y-95549115D02*
X101481466Y-95524924D01*
X101481466Y-95524924D02*
X101433085Y-95500734D01*
X101433085Y-95500734D02*
X101336323Y-95500734D01*
X101336323Y-95500734D02*
X101287942Y-95524924D01*
X101287942Y-95524924D02*
X101263752Y-95549115D01*
X101263752Y-95549115D02*
X101239561Y-95597496D01*
%TO.C,C19*%
X166526028Y-87892829D02*
X166501837Y-87917020D01*
X166501837Y-87917020D02*
X166429266Y-87941210D01*
X166429266Y-87941210D02*
X166380885Y-87941210D01*
X166380885Y-87941210D02*
X166308313Y-87917020D01*
X166308313Y-87917020D02*
X166259932Y-87868639D01*
X166259932Y-87868639D02*
X166235742Y-87820258D01*
X166235742Y-87820258D02*
X166211551Y-87723496D01*
X166211551Y-87723496D02*
X166211551Y-87650924D01*
X166211551Y-87650924D02*
X166235742Y-87554162D01*
X166235742Y-87554162D02*
X166259932Y-87505781D01*
X166259932Y-87505781D02*
X166308313Y-87457400D01*
X166308313Y-87457400D02*
X166380885Y-87433210D01*
X166380885Y-87433210D02*
X166429266Y-87433210D01*
X166429266Y-87433210D02*
X166501837Y-87457400D01*
X166501837Y-87457400D02*
X166526028Y-87481591D01*
X167009837Y-87941210D02*
X166719551Y-87941210D01*
X166864694Y-87941210D02*
X166864694Y-87433210D01*
X166864694Y-87433210D02*
X166816313Y-87505781D01*
X166816313Y-87505781D02*
X166767932Y-87554162D01*
X166767932Y-87554162D02*
X166719551Y-87578353D01*
X167251742Y-87941210D02*
X167348504Y-87941210D01*
X167348504Y-87941210D02*
X167396885Y-87917020D01*
X167396885Y-87917020D02*
X167421076Y-87892829D01*
X167421076Y-87892829D02*
X167469457Y-87820258D01*
X167469457Y-87820258D02*
X167493647Y-87723496D01*
X167493647Y-87723496D02*
X167493647Y-87529972D01*
X167493647Y-87529972D02*
X167469457Y-87481591D01*
X167469457Y-87481591D02*
X167445266Y-87457400D01*
X167445266Y-87457400D02*
X167396885Y-87433210D01*
X167396885Y-87433210D02*
X167300123Y-87433210D01*
X167300123Y-87433210D02*
X167251742Y-87457400D01*
X167251742Y-87457400D02*
X167227552Y-87481591D01*
X167227552Y-87481591D02*
X167203361Y-87529972D01*
X167203361Y-87529972D02*
X167203361Y-87650924D01*
X167203361Y-87650924D02*
X167227552Y-87699305D01*
X167227552Y-87699305D02*
X167251742Y-87723496D01*
X167251742Y-87723496D02*
X167300123Y-87747686D01*
X167300123Y-87747686D02*
X167396885Y-87747686D01*
X167396885Y-87747686D02*
X167445266Y-87723496D01*
X167445266Y-87723496D02*
X167469457Y-87699305D01*
X167469457Y-87699305D02*
X167493647Y-87650924D01*
%TO.C,R7*%
X128794933Y-93503810D02*
X128625599Y-93261905D01*
X128504647Y-93503810D02*
X128504647Y-92995810D01*
X128504647Y-92995810D02*
X128698171Y-92995810D01*
X128698171Y-92995810D02*
X128746552Y-93020000D01*
X128746552Y-93020000D02*
X128770742Y-93044191D01*
X128770742Y-93044191D02*
X128794933Y-93092572D01*
X128794933Y-93092572D02*
X128794933Y-93165143D01*
X128794933Y-93165143D02*
X128770742Y-93213524D01*
X128770742Y-93213524D02*
X128746552Y-93237715D01*
X128746552Y-93237715D02*
X128698171Y-93261905D01*
X128698171Y-93261905D02*
X128504647Y-93261905D01*
X128964266Y-92995810D02*
X129302933Y-92995810D01*
X129302933Y-92995810D02*
X129085218Y-93503810D01*
%TO.C,D4*%
X102266447Y-94672210D02*
X102266447Y-94164210D01*
X102266447Y-94164210D02*
X102387399Y-94164210D01*
X102387399Y-94164210D02*
X102459971Y-94188400D01*
X102459971Y-94188400D02*
X102508352Y-94236781D01*
X102508352Y-94236781D02*
X102532542Y-94285162D01*
X102532542Y-94285162D02*
X102556733Y-94381924D01*
X102556733Y-94381924D02*
X102556733Y-94454496D01*
X102556733Y-94454496D02*
X102532542Y-94551258D01*
X102532542Y-94551258D02*
X102508352Y-94599639D01*
X102508352Y-94599639D02*
X102459971Y-94648020D01*
X102459971Y-94648020D02*
X102387399Y-94672210D01*
X102387399Y-94672210D02*
X102266447Y-94672210D01*
X102992161Y-94333543D02*
X102992161Y-94672210D01*
X102871209Y-94140020D02*
X102750256Y-94502877D01*
X102750256Y-94502877D02*
X103064733Y-94502877D01*
%TO.C,C1*%
X133849533Y-75675429D02*
X133825342Y-75699620D01*
X133825342Y-75699620D02*
X133752771Y-75723810D01*
X133752771Y-75723810D02*
X133704390Y-75723810D01*
X133704390Y-75723810D02*
X133631818Y-75699620D01*
X133631818Y-75699620D02*
X133583437Y-75651239D01*
X133583437Y-75651239D02*
X133559247Y-75602858D01*
X133559247Y-75602858D02*
X133535056Y-75506096D01*
X133535056Y-75506096D02*
X133535056Y-75433524D01*
X133535056Y-75433524D02*
X133559247Y-75336762D01*
X133559247Y-75336762D02*
X133583437Y-75288381D01*
X133583437Y-75288381D02*
X133631818Y-75240000D01*
X133631818Y-75240000D02*
X133704390Y-75215810D01*
X133704390Y-75215810D02*
X133752771Y-75215810D01*
X133752771Y-75215810D02*
X133825342Y-75240000D01*
X133825342Y-75240000D02*
X133849533Y-75264191D01*
X134333342Y-75723810D02*
X134043056Y-75723810D01*
X134188199Y-75723810D02*
X134188199Y-75215810D01*
X134188199Y-75215810D02*
X134139818Y-75288381D01*
X134139818Y-75288381D02*
X134091437Y-75336762D01*
X134091437Y-75336762D02*
X134043056Y-75360953D01*
%TO.C,R13*%
X125225628Y-100819010D02*
X125056294Y-100577105D01*
X124935342Y-100819010D02*
X124935342Y-100311010D01*
X124935342Y-100311010D02*
X125128866Y-100311010D01*
X125128866Y-100311010D02*
X125177247Y-100335200D01*
X125177247Y-100335200D02*
X125201437Y-100359391D01*
X125201437Y-100359391D02*
X125225628Y-100407772D01*
X125225628Y-100407772D02*
X125225628Y-100480343D01*
X125225628Y-100480343D02*
X125201437Y-100528724D01*
X125201437Y-100528724D02*
X125177247Y-100552915D01*
X125177247Y-100552915D02*
X125128866Y-100577105D01*
X125128866Y-100577105D02*
X124935342Y-100577105D01*
X125709437Y-100819010D02*
X125419151Y-100819010D01*
X125564294Y-100819010D02*
X125564294Y-100311010D01*
X125564294Y-100311010D02*
X125515913Y-100383581D01*
X125515913Y-100383581D02*
X125467532Y-100431962D01*
X125467532Y-100431962D02*
X125419151Y-100456153D01*
X125878771Y-100311010D02*
X126193247Y-100311010D01*
X126193247Y-100311010D02*
X126023914Y-100504534D01*
X126023914Y-100504534D02*
X126096485Y-100504534D01*
X126096485Y-100504534D02*
X126144866Y-100528724D01*
X126144866Y-100528724D02*
X126169057Y-100552915D01*
X126169057Y-100552915D02*
X126193247Y-100601296D01*
X126193247Y-100601296D02*
X126193247Y-100722248D01*
X126193247Y-100722248D02*
X126169057Y-100770629D01*
X126169057Y-100770629D02*
X126144866Y-100794820D01*
X126144866Y-100794820D02*
X126096485Y-100819010D01*
X126096485Y-100819010D02*
X125951342Y-100819010D01*
X125951342Y-100819010D02*
X125902961Y-100794820D01*
X125902961Y-100794820D02*
X125878771Y-100770629D01*
%TO.C,R24*%
X153648228Y-98863210D02*
X153478894Y-98621305D01*
X153357942Y-98863210D02*
X153357942Y-98355210D01*
X153357942Y-98355210D02*
X153551466Y-98355210D01*
X153551466Y-98355210D02*
X153599847Y-98379400D01*
X153599847Y-98379400D02*
X153624037Y-98403591D01*
X153624037Y-98403591D02*
X153648228Y-98451972D01*
X153648228Y-98451972D02*
X153648228Y-98524543D01*
X153648228Y-98524543D02*
X153624037Y-98572924D01*
X153624037Y-98572924D02*
X153599847Y-98597115D01*
X153599847Y-98597115D02*
X153551466Y-98621305D01*
X153551466Y-98621305D02*
X153357942Y-98621305D01*
X153841751Y-98403591D02*
X153865942Y-98379400D01*
X153865942Y-98379400D02*
X153914323Y-98355210D01*
X153914323Y-98355210D02*
X154035275Y-98355210D01*
X154035275Y-98355210D02*
X154083656Y-98379400D01*
X154083656Y-98379400D02*
X154107847Y-98403591D01*
X154107847Y-98403591D02*
X154132037Y-98451972D01*
X154132037Y-98451972D02*
X154132037Y-98500353D01*
X154132037Y-98500353D02*
X154107847Y-98572924D01*
X154107847Y-98572924D02*
X153817561Y-98863210D01*
X153817561Y-98863210D02*
X154132037Y-98863210D01*
X154567466Y-98524543D02*
X154567466Y-98863210D01*
X154446514Y-98331020D02*
X154325561Y-98693877D01*
X154325561Y-98693877D02*
X154640038Y-98693877D01*
%TO.C,R15*%
X104473828Y-73691810D02*
X104304494Y-73449905D01*
X104183542Y-73691810D02*
X104183542Y-73183810D01*
X104183542Y-73183810D02*
X104377066Y-73183810D01*
X104377066Y-73183810D02*
X104425447Y-73208000D01*
X104425447Y-73208000D02*
X104449637Y-73232191D01*
X104449637Y-73232191D02*
X104473828Y-73280572D01*
X104473828Y-73280572D02*
X104473828Y-73353143D01*
X104473828Y-73353143D02*
X104449637Y-73401524D01*
X104449637Y-73401524D02*
X104425447Y-73425715D01*
X104425447Y-73425715D02*
X104377066Y-73449905D01*
X104377066Y-73449905D02*
X104183542Y-73449905D01*
X104957637Y-73691810D02*
X104667351Y-73691810D01*
X104812494Y-73691810D02*
X104812494Y-73183810D01*
X104812494Y-73183810D02*
X104764113Y-73256381D01*
X104764113Y-73256381D02*
X104715732Y-73304762D01*
X104715732Y-73304762D02*
X104667351Y-73328953D01*
X105417257Y-73183810D02*
X105175352Y-73183810D01*
X105175352Y-73183810D02*
X105151161Y-73425715D01*
X105151161Y-73425715D02*
X105175352Y-73401524D01*
X105175352Y-73401524D02*
X105223733Y-73377334D01*
X105223733Y-73377334D02*
X105344685Y-73377334D01*
X105344685Y-73377334D02*
X105393066Y-73401524D01*
X105393066Y-73401524D02*
X105417257Y-73425715D01*
X105417257Y-73425715D02*
X105441447Y-73474096D01*
X105441447Y-73474096D02*
X105441447Y-73595048D01*
X105441447Y-73595048D02*
X105417257Y-73643429D01*
X105417257Y-73643429D02*
X105393066Y-73667620D01*
X105393066Y-73667620D02*
X105344685Y-73691810D01*
X105344685Y-73691810D02*
X105223733Y-73691810D01*
X105223733Y-73691810D02*
X105175352Y-73667620D01*
X105175352Y-73667620D02*
X105151161Y-73643429D01*
D12*
%TO.C,Q8*%
X105006019Y-93729991D02*
X104957638Y-93705800D01*
X104957638Y-93705800D02*
X104909257Y-93657420D01*
X104909257Y-93657420D02*
X104836685Y-93584848D01*
X104836685Y-93584848D02*
X104788304Y-93560658D01*
X104788304Y-93560658D02*
X104739923Y-93560658D01*
X104764114Y-93681610D02*
X104715733Y-93657420D01*
X104715733Y-93657420D02*
X104667352Y-93609039D01*
X104667352Y-93609039D02*
X104643161Y-93512277D01*
X104643161Y-93512277D02*
X104643161Y-93342943D01*
X104643161Y-93342943D02*
X104667352Y-93246181D01*
X104667352Y-93246181D02*
X104715733Y-93197800D01*
X104715733Y-93197800D02*
X104764114Y-93173610D01*
X104764114Y-93173610D02*
X104860876Y-93173610D01*
X104860876Y-93173610D02*
X104909257Y-93197800D01*
X104909257Y-93197800D02*
X104957638Y-93246181D01*
X104957638Y-93246181D02*
X104981828Y-93342943D01*
X104981828Y-93342943D02*
X104981828Y-93512277D01*
X104981828Y-93512277D02*
X104957638Y-93609039D01*
X104957638Y-93609039D02*
X104909257Y-93657420D01*
X104909257Y-93657420D02*
X104860876Y-93681610D01*
X104860876Y-93681610D02*
X104764114Y-93681610D01*
X105272113Y-93391324D02*
X105223732Y-93367134D01*
X105223732Y-93367134D02*
X105199542Y-93342943D01*
X105199542Y-93342943D02*
X105175351Y-93294562D01*
X105175351Y-93294562D02*
X105175351Y-93270372D01*
X105175351Y-93270372D02*
X105199542Y-93221991D01*
X105199542Y-93221991D02*
X105223732Y-93197800D01*
X105223732Y-93197800D02*
X105272113Y-93173610D01*
X105272113Y-93173610D02*
X105368875Y-93173610D01*
X105368875Y-93173610D02*
X105417256Y-93197800D01*
X105417256Y-93197800D02*
X105441447Y-93221991D01*
X105441447Y-93221991D02*
X105465637Y-93270372D01*
X105465637Y-93270372D02*
X105465637Y-93294562D01*
X105465637Y-93294562D02*
X105441447Y-93342943D01*
X105441447Y-93342943D02*
X105417256Y-93367134D01*
X105417256Y-93367134D02*
X105368875Y-93391324D01*
X105368875Y-93391324D02*
X105272113Y-93391324D01*
X105272113Y-93391324D02*
X105223732Y-93415515D01*
X105223732Y-93415515D02*
X105199542Y-93439705D01*
X105199542Y-93439705D02*
X105175351Y-93488086D01*
X105175351Y-93488086D02*
X105175351Y-93584848D01*
X105175351Y-93584848D02*
X105199542Y-93633229D01*
X105199542Y-93633229D02*
X105223732Y-93657420D01*
X105223732Y-93657420D02*
X105272113Y-93681610D01*
X105272113Y-93681610D02*
X105368875Y-93681610D01*
X105368875Y-93681610D02*
X105417256Y-93657420D01*
X105417256Y-93657420D02*
X105441447Y-93633229D01*
X105441447Y-93633229D02*
X105465637Y-93584848D01*
X105465637Y-93584848D02*
X105465637Y-93488086D01*
X105465637Y-93488086D02*
X105441447Y-93439705D01*
X105441447Y-93439705D02*
X105417256Y-93415515D01*
X105417256Y-93415515D02*
X105368875Y-93391324D01*
D11*
%TO.C,C15*%
X123752428Y-94065029D02*
X123728237Y-94089220D01*
X123728237Y-94089220D02*
X123655666Y-94113410D01*
X123655666Y-94113410D02*
X123607285Y-94113410D01*
X123607285Y-94113410D02*
X123534713Y-94089220D01*
X123534713Y-94089220D02*
X123486332Y-94040839D01*
X123486332Y-94040839D02*
X123462142Y-93992458D01*
X123462142Y-93992458D02*
X123437951Y-93895696D01*
X123437951Y-93895696D02*
X123437951Y-93823124D01*
X123437951Y-93823124D02*
X123462142Y-93726362D01*
X123462142Y-93726362D02*
X123486332Y-93677981D01*
X123486332Y-93677981D02*
X123534713Y-93629600D01*
X123534713Y-93629600D02*
X123607285Y-93605410D01*
X123607285Y-93605410D02*
X123655666Y-93605410D01*
X123655666Y-93605410D02*
X123728237Y-93629600D01*
X123728237Y-93629600D02*
X123752428Y-93653791D01*
X124236237Y-94113410D02*
X123945951Y-94113410D01*
X124091094Y-94113410D02*
X124091094Y-93605410D01*
X124091094Y-93605410D02*
X124042713Y-93677981D01*
X124042713Y-93677981D02*
X123994332Y-93726362D01*
X123994332Y-93726362D02*
X123945951Y-93750553D01*
X124695857Y-93605410D02*
X124453952Y-93605410D01*
X124453952Y-93605410D02*
X124429761Y-93847315D01*
X124429761Y-93847315D02*
X124453952Y-93823124D01*
X124453952Y-93823124D02*
X124502333Y-93798934D01*
X124502333Y-93798934D02*
X124623285Y-93798934D01*
X124623285Y-93798934D02*
X124671666Y-93823124D01*
X124671666Y-93823124D02*
X124695857Y-93847315D01*
X124695857Y-93847315D02*
X124720047Y-93895696D01*
X124720047Y-93895696D02*
X124720047Y-94016648D01*
X124720047Y-94016648D02*
X124695857Y-94065029D01*
X124695857Y-94065029D02*
X124671666Y-94089220D01*
X124671666Y-94089220D02*
X124623285Y-94113410D01*
X124623285Y-94113410D02*
X124502333Y-94113410D01*
X124502333Y-94113410D02*
X124453952Y-94089220D01*
X124453952Y-94089220D02*
X124429761Y-94065029D01*
D10*
%TO.C,P2*%
X102088019Y-98147094D02*
X101088019Y-98147094D01*
X101088019Y-98147094D02*
X101088019Y-97766142D01*
X101088019Y-97766142D02*
X101135638Y-97670904D01*
X101135638Y-97670904D02*
X101183257Y-97623285D01*
X101183257Y-97623285D02*
X101278495Y-97575666D01*
X101278495Y-97575666D02*
X101421352Y-97575666D01*
X101421352Y-97575666D02*
X101516590Y-97623285D01*
X101516590Y-97623285D02*
X101564209Y-97670904D01*
X101564209Y-97670904D02*
X101611828Y-97766142D01*
X101611828Y-97766142D02*
X101611828Y-98147094D01*
X101183257Y-97194713D02*
X101135638Y-97147094D01*
X101135638Y-97147094D02*
X101088019Y-97051856D01*
X101088019Y-97051856D02*
X101088019Y-96813761D01*
X101088019Y-96813761D02*
X101135638Y-96718523D01*
X101135638Y-96718523D02*
X101183257Y-96670904D01*
X101183257Y-96670904D02*
X101278495Y-96623285D01*
X101278495Y-96623285D02*
X101373733Y-96623285D01*
X101373733Y-96623285D02*
X101516590Y-96670904D01*
X101516590Y-96670904D02*
X102088019Y-97242332D01*
X102088019Y-97242332D02*
X102088019Y-96623285D01*
D11*
%TO.C,R21*%
X155070628Y-97796410D02*
X154901294Y-97554505D01*
X154780342Y-97796410D02*
X154780342Y-97288410D01*
X154780342Y-97288410D02*
X154973866Y-97288410D01*
X154973866Y-97288410D02*
X155022247Y-97312600D01*
X155022247Y-97312600D02*
X155046437Y-97336791D01*
X155046437Y-97336791D02*
X155070628Y-97385172D01*
X155070628Y-97385172D02*
X155070628Y-97457743D01*
X155070628Y-97457743D02*
X155046437Y-97506124D01*
X155046437Y-97506124D02*
X155022247Y-97530315D01*
X155022247Y-97530315D02*
X154973866Y-97554505D01*
X154973866Y-97554505D02*
X154780342Y-97554505D01*
X155264151Y-97336791D02*
X155288342Y-97312600D01*
X155288342Y-97312600D02*
X155336723Y-97288410D01*
X155336723Y-97288410D02*
X155457675Y-97288410D01*
X155457675Y-97288410D02*
X155506056Y-97312600D01*
X155506056Y-97312600D02*
X155530247Y-97336791D01*
X155530247Y-97336791D02*
X155554437Y-97385172D01*
X155554437Y-97385172D02*
X155554437Y-97433553D01*
X155554437Y-97433553D02*
X155530247Y-97506124D01*
X155530247Y-97506124D02*
X155239961Y-97796410D01*
X155239961Y-97796410D02*
X155554437Y-97796410D01*
X156038247Y-97796410D02*
X155747961Y-97796410D01*
X155893104Y-97796410D02*
X155893104Y-97288410D01*
X155893104Y-97288410D02*
X155844723Y-97360981D01*
X155844723Y-97360981D02*
X155796342Y-97409362D01*
X155796342Y-97409362D02*
X155747961Y-97433553D01*
%TO.C,C11*%
X103762628Y-83244629D02*
X103738437Y-83268820D01*
X103738437Y-83268820D02*
X103665866Y-83293010D01*
X103665866Y-83293010D02*
X103617485Y-83293010D01*
X103617485Y-83293010D02*
X103544913Y-83268820D01*
X103544913Y-83268820D02*
X103496532Y-83220439D01*
X103496532Y-83220439D02*
X103472342Y-83172058D01*
X103472342Y-83172058D02*
X103448151Y-83075296D01*
X103448151Y-83075296D02*
X103448151Y-83002724D01*
X103448151Y-83002724D02*
X103472342Y-82905962D01*
X103472342Y-82905962D02*
X103496532Y-82857581D01*
X103496532Y-82857581D02*
X103544913Y-82809200D01*
X103544913Y-82809200D02*
X103617485Y-82785010D01*
X103617485Y-82785010D02*
X103665866Y-82785010D01*
X103665866Y-82785010D02*
X103738437Y-82809200D01*
X103738437Y-82809200D02*
X103762628Y-82833391D01*
X104246437Y-83293010D02*
X103956151Y-83293010D01*
X104101294Y-83293010D02*
X104101294Y-82785010D01*
X104101294Y-82785010D02*
X104052913Y-82857581D01*
X104052913Y-82857581D02*
X104004532Y-82905962D01*
X104004532Y-82905962D02*
X103956151Y-82930153D01*
X104730247Y-83293010D02*
X104439961Y-83293010D01*
X104585104Y-83293010D02*
X104585104Y-82785010D01*
X104585104Y-82785010D02*
X104536723Y-82857581D01*
X104536723Y-82857581D02*
X104488342Y-82905962D01*
X104488342Y-82905962D02*
X104439961Y-82930153D01*
D12*
%TO.C,Q1*%
X108841419Y-88040391D02*
X108793038Y-88016200D01*
X108793038Y-88016200D02*
X108744657Y-87967820D01*
X108744657Y-87967820D02*
X108672085Y-87895248D01*
X108672085Y-87895248D02*
X108623704Y-87871058D01*
X108623704Y-87871058D02*
X108575323Y-87871058D01*
X108599514Y-87992010D02*
X108551133Y-87967820D01*
X108551133Y-87967820D02*
X108502752Y-87919439D01*
X108502752Y-87919439D02*
X108478561Y-87822677D01*
X108478561Y-87822677D02*
X108478561Y-87653343D01*
X108478561Y-87653343D02*
X108502752Y-87556581D01*
X108502752Y-87556581D02*
X108551133Y-87508200D01*
X108551133Y-87508200D02*
X108599514Y-87484010D01*
X108599514Y-87484010D02*
X108696276Y-87484010D01*
X108696276Y-87484010D02*
X108744657Y-87508200D01*
X108744657Y-87508200D02*
X108793038Y-87556581D01*
X108793038Y-87556581D02*
X108817228Y-87653343D01*
X108817228Y-87653343D02*
X108817228Y-87822677D01*
X108817228Y-87822677D02*
X108793038Y-87919439D01*
X108793038Y-87919439D02*
X108744657Y-87967820D01*
X108744657Y-87967820D02*
X108696276Y-87992010D01*
X108696276Y-87992010D02*
X108599514Y-87992010D01*
X109301037Y-87992010D02*
X109010751Y-87992010D01*
X109155894Y-87992010D02*
X109155894Y-87484010D01*
X109155894Y-87484010D02*
X109107513Y-87556581D01*
X109107513Y-87556581D02*
X109059132Y-87604962D01*
X109059132Y-87604962D02*
X109010751Y-87629153D01*
D11*
%TO.C,D2*%
X107041647Y-95612010D02*
X107041647Y-95104010D01*
X107041647Y-95104010D02*
X107162599Y-95104010D01*
X107162599Y-95104010D02*
X107235171Y-95128200D01*
X107235171Y-95128200D02*
X107283552Y-95176581D01*
X107283552Y-95176581D02*
X107307742Y-95224962D01*
X107307742Y-95224962D02*
X107331933Y-95321724D01*
X107331933Y-95321724D02*
X107331933Y-95394296D01*
X107331933Y-95394296D02*
X107307742Y-95491058D01*
X107307742Y-95491058D02*
X107283552Y-95539439D01*
X107283552Y-95539439D02*
X107235171Y-95587820D01*
X107235171Y-95587820D02*
X107162599Y-95612010D01*
X107162599Y-95612010D02*
X107041647Y-95612010D01*
X107525456Y-95152391D02*
X107549647Y-95128200D01*
X107549647Y-95128200D02*
X107598028Y-95104010D01*
X107598028Y-95104010D02*
X107718980Y-95104010D01*
X107718980Y-95104010D02*
X107767361Y-95128200D01*
X107767361Y-95128200D02*
X107791552Y-95152391D01*
X107791552Y-95152391D02*
X107815742Y-95200772D01*
X107815742Y-95200772D02*
X107815742Y-95249153D01*
X107815742Y-95249153D02*
X107791552Y-95321724D01*
X107791552Y-95321724D02*
X107501266Y-95612010D01*
X107501266Y-95612010D02*
X107815742Y-95612010D01*
D10*
%TO.C,U2*%
X107518276Y-76354295D02*
X107518276Y-77001914D01*
X107518276Y-77001914D02*
X107556371Y-77078104D01*
X107556371Y-77078104D02*
X107594466Y-77116200D01*
X107594466Y-77116200D02*
X107670657Y-77154295D01*
X107670657Y-77154295D02*
X107823038Y-77154295D01*
X107823038Y-77154295D02*
X107899228Y-77116200D01*
X107899228Y-77116200D02*
X107937323Y-77078104D01*
X107937323Y-77078104D02*
X107975419Y-77001914D01*
X107975419Y-77001914D02*
X107975419Y-76354295D01*
X108318275Y-76430485D02*
X108356371Y-76392390D01*
X108356371Y-76392390D02*
X108432561Y-76354295D01*
X108432561Y-76354295D02*
X108623037Y-76354295D01*
X108623037Y-76354295D02*
X108699228Y-76392390D01*
X108699228Y-76392390D02*
X108737323Y-76430485D01*
X108737323Y-76430485D02*
X108775418Y-76506676D01*
X108775418Y-76506676D02*
X108775418Y-76582866D01*
X108775418Y-76582866D02*
X108737323Y-76697152D01*
X108737323Y-76697152D02*
X108280180Y-77154295D01*
X108280180Y-77154295D02*
X108775418Y-77154295D01*
D11*
%TO.C,C25*%
X155959628Y-73897429D02*
X155935437Y-73921620D01*
X155935437Y-73921620D02*
X155862866Y-73945810D01*
X155862866Y-73945810D02*
X155814485Y-73945810D01*
X155814485Y-73945810D02*
X155741913Y-73921620D01*
X155741913Y-73921620D02*
X155693532Y-73873239D01*
X155693532Y-73873239D02*
X155669342Y-73824858D01*
X155669342Y-73824858D02*
X155645151Y-73728096D01*
X155645151Y-73728096D02*
X155645151Y-73655524D01*
X155645151Y-73655524D02*
X155669342Y-73558762D01*
X155669342Y-73558762D02*
X155693532Y-73510381D01*
X155693532Y-73510381D02*
X155741913Y-73462000D01*
X155741913Y-73462000D02*
X155814485Y-73437810D01*
X155814485Y-73437810D02*
X155862866Y-73437810D01*
X155862866Y-73437810D02*
X155935437Y-73462000D01*
X155935437Y-73462000D02*
X155959628Y-73486191D01*
X156153151Y-73486191D02*
X156177342Y-73462000D01*
X156177342Y-73462000D02*
X156225723Y-73437810D01*
X156225723Y-73437810D02*
X156346675Y-73437810D01*
X156346675Y-73437810D02*
X156395056Y-73462000D01*
X156395056Y-73462000D02*
X156419247Y-73486191D01*
X156419247Y-73486191D02*
X156443437Y-73534572D01*
X156443437Y-73534572D02*
X156443437Y-73582953D01*
X156443437Y-73582953D02*
X156419247Y-73655524D01*
X156419247Y-73655524D02*
X156128961Y-73945810D01*
X156128961Y-73945810D02*
X156443437Y-73945810D01*
X156903057Y-73437810D02*
X156661152Y-73437810D01*
X156661152Y-73437810D02*
X156636961Y-73679715D01*
X156636961Y-73679715D02*
X156661152Y-73655524D01*
X156661152Y-73655524D02*
X156709533Y-73631334D01*
X156709533Y-73631334D02*
X156830485Y-73631334D01*
X156830485Y-73631334D02*
X156878866Y-73655524D01*
X156878866Y-73655524D02*
X156903057Y-73679715D01*
X156903057Y-73679715D02*
X156927247Y-73728096D01*
X156927247Y-73728096D02*
X156927247Y-73849048D01*
X156927247Y-73849048D02*
X156903057Y-73897429D01*
X156903057Y-73897429D02*
X156878866Y-73921620D01*
X156878866Y-73921620D02*
X156830485Y-73945810D01*
X156830485Y-73945810D02*
X156709533Y-73945810D01*
X156709533Y-73945810D02*
X156661152Y-73921620D01*
X156661152Y-73921620D02*
X156636961Y-73897429D01*
%TO.C,R27*%
X147374428Y-74657010D02*
X147205094Y-74415105D01*
X147084142Y-74657010D02*
X147084142Y-74149010D01*
X147084142Y-74149010D02*
X147277666Y-74149010D01*
X147277666Y-74149010D02*
X147326047Y-74173200D01*
X147326047Y-74173200D02*
X147350237Y-74197391D01*
X147350237Y-74197391D02*
X147374428Y-74245772D01*
X147374428Y-74245772D02*
X147374428Y-74318343D01*
X147374428Y-74318343D02*
X147350237Y-74366724D01*
X147350237Y-74366724D02*
X147326047Y-74390915D01*
X147326047Y-74390915D02*
X147277666Y-74415105D01*
X147277666Y-74415105D02*
X147084142Y-74415105D01*
X147567951Y-74197391D02*
X147592142Y-74173200D01*
X147592142Y-74173200D02*
X147640523Y-74149010D01*
X147640523Y-74149010D02*
X147761475Y-74149010D01*
X147761475Y-74149010D02*
X147809856Y-74173200D01*
X147809856Y-74173200D02*
X147834047Y-74197391D01*
X147834047Y-74197391D02*
X147858237Y-74245772D01*
X147858237Y-74245772D02*
X147858237Y-74294153D01*
X147858237Y-74294153D02*
X147834047Y-74366724D01*
X147834047Y-74366724D02*
X147543761Y-74657010D01*
X147543761Y-74657010D02*
X147858237Y-74657010D01*
X148027571Y-74149010D02*
X148366238Y-74149010D01*
X148366238Y-74149010D02*
X148148523Y-74657010D01*
D10*
%TO.C,U1*%
X129184471Y-78863002D02*
X129184471Y-79672551D01*
X129184471Y-79672551D02*
X129232092Y-79767792D01*
X129232092Y-79767792D02*
X129279712Y-79815413D01*
X129279712Y-79815413D02*
X129374953Y-79863033D01*
X129374953Y-79863033D02*
X129565435Y-79863033D01*
X129565435Y-79863033D02*
X129660676Y-79815413D01*
X129660676Y-79815413D02*
X129708297Y-79767792D01*
X129708297Y-79767792D02*
X129755917Y-79672551D01*
X129755917Y-79672551D02*
X129755917Y-78863002D01*
X130755949Y-79863033D02*
X130184503Y-79863033D01*
X130470226Y-79863033D02*
X130470226Y-78863002D01*
X130470226Y-78863002D02*
X130374985Y-79005864D01*
X130374985Y-79005864D02*
X130279744Y-79101105D01*
X130279744Y-79101105D02*
X130184503Y-79148725D01*
D11*
%TO.C,C13*%
X107725028Y-75573829D02*
X107700837Y-75598020D01*
X107700837Y-75598020D02*
X107628266Y-75622210D01*
X107628266Y-75622210D02*
X107579885Y-75622210D01*
X107579885Y-75622210D02*
X107507313Y-75598020D01*
X107507313Y-75598020D02*
X107458932Y-75549639D01*
X107458932Y-75549639D02*
X107434742Y-75501258D01*
X107434742Y-75501258D02*
X107410551Y-75404496D01*
X107410551Y-75404496D02*
X107410551Y-75331924D01*
X107410551Y-75331924D02*
X107434742Y-75235162D01*
X107434742Y-75235162D02*
X107458932Y-75186781D01*
X107458932Y-75186781D02*
X107507313Y-75138400D01*
X107507313Y-75138400D02*
X107579885Y-75114210D01*
X107579885Y-75114210D02*
X107628266Y-75114210D01*
X107628266Y-75114210D02*
X107700837Y-75138400D01*
X107700837Y-75138400D02*
X107725028Y-75162591D01*
X108208837Y-75622210D02*
X107918551Y-75622210D01*
X108063694Y-75622210D02*
X108063694Y-75114210D01*
X108063694Y-75114210D02*
X108015313Y-75186781D01*
X108015313Y-75186781D02*
X107966932Y-75235162D01*
X107966932Y-75235162D02*
X107918551Y-75259353D01*
X108378171Y-75114210D02*
X108692647Y-75114210D01*
X108692647Y-75114210D02*
X108523314Y-75307734D01*
X108523314Y-75307734D02*
X108595885Y-75307734D01*
X108595885Y-75307734D02*
X108644266Y-75331924D01*
X108644266Y-75331924D02*
X108668457Y-75356115D01*
X108668457Y-75356115D02*
X108692647Y-75404496D01*
X108692647Y-75404496D02*
X108692647Y-75525448D01*
X108692647Y-75525448D02*
X108668457Y-75573829D01*
X108668457Y-75573829D02*
X108644266Y-75598020D01*
X108644266Y-75598020D02*
X108595885Y-75622210D01*
X108595885Y-75622210D02*
X108450742Y-75622210D01*
X108450742Y-75622210D02*
X108402361Y-75598020D01*
X108402361Y-75598020D02*
X108378171Y-75573829D01*
%TO.C,C2*%
X127880533Y-84768629D02*
X127856342Y-84792820D01*
X127856342Y-84792820D02*
X127783771Y-84817010D01*
X127783771Y-84817010D02*
X127735390Y-84817010D01*
X127735390Y-84817010D02*
X127662818Y-84792820D01*
X127662818Y-84792820D02*
X127614437Y-84744439D01*
X127614437Y-84744439D02*
X127590247Y-84696058D01*
X127590247Y-84696058D02*
X127566056Y-84599296D01*
X127566056Y-84599296D02*
X127566056Y-84526724D01*
X127566056Y-84526724D02*
X127590247Y-84429962D01*
X127590247Y-84429962D02*
X127614437Y-84381581D01*
X127614437Y-84381581D02*
X127662818Y-84333200D01*
X127662818Y-84333200D02*
X127735390Y-84309010D01*
X127735390Y-84309010D02*
X127783771Y-84309010D01*
X127783771Y-84309010D02*
X127856342Y-84333200D01*
X127856342Y-84333200D02*
X127880533Y-84357391D01*
X128074056Y-84357391D02*
X128098247Y-84333200D01*
X128098247Y-84333200D02*
X128146628Y-84309010D01*
X128146628Y-84309010D02*
X128267580Y-84309010D01*
X128267580Y-84309010D02*
X128315961Y-84333200D01*
X128315961Y-84333200D02*
X128340152Y-84357391D01*
X128340152Y-84357391D02*
X128364342Y-84405772D01*
X128364342Y-84405772D02*
X128364342Y-84454153D01*
X128364342Y-84454153D02*
X128340152Y-84526724D01*
X128340152Y-84526724D02*
X128049866Y-84817010D01*
X128049866Y-84817010D02*
X128364342Y-84817010D01*
%TO.C,R2*%
X141621933Y-101403210D02*
X141452599Y-101161305D01*
X141331647Y-101403210D02*
X141331647Y-100895210D01*
X141331647Y-100895210D02*
X141525171Y-100895210D01*
X141525171Y-100895210D02*
X141573552Y-100919400D01*
X141573552Y-100919400D02*
X141597742Y-100943591D01*
X141597742Y-100943591D02*
X141621933Y-100991972D01*
X141621933Y-100991972D02*
X141621933Y-101064543D01*
X141621933Y-101064543D02*
X141597742Y-101112924D01*
X141597742Y-101112924D02*
X141573552Y-101137115D01*
X141573552Y-101137115D02*
X141525171Y-101161305D01*
X141525171Y-101161305D02*
X141331647Y-101161305D01*
X141815456Y-100943591D02*
X141839647Y-100919400D01*
X141839647Y-100919400D02*
X141888028Y-100895210D01*
X141888028Y-100895210D02*
X142008980Y-100895210D01*
X142008980Y-100895210D02*
X142057361Y-100919400D01*
X142057361Y-100919400D02*
X142081552Y-100943591D01*
X142081552Y-100943591D02*
X142105742Y-100991972D01*
X142105742Y-100991972D02*
X142105742Y-101040353D01*
X142105742Y-101040353D02*
X142081552Y-101112924D01*
X142081552Y-101112924D02*
X141791266Y-101403210D01*
X141791266Y-101403210D02*
X142105742Y-101403210D01*
D10*
%TO.C,BZ1*%
X153982847Y-88635609D02*
X154125704Y-88683228D01*
X154125704Y-88683228D02*
X154173323Y-88730847D01*
X154173323Y-88730847D02*
X154220942Y-88826085D01*
X154220942Y-88826085D02*
X154220942Y-88968942D01*
X154220942Y-88968942D02*
X154173323Y-89064180D01*
X154173323Y-89064180D02*
X154125704Y-89111800D01*
X154125704Y-89111800D02*
X154030466Y-89159419D01*
X154030466Y-89159419D02*
X153649514Y-89159419D01*
X153649514Y-89159419D02*
X153649514Y-88159419D01*
X153649514Y-88159419D02*
X153982847Y-88159419D01*
X153982847Y-88159419D02*
X154078085Y-88207038D01*
X154078085Y-88207038D02*
X154125704Y-88254657D01*
X154125704Y-88254657D02*
X154173323Y-88349895D01*
X154173323Y-88349895D02*
X154173323Y-88445133D01*
X154173323Y-88445133D02*
X154125704Y-88540371D01*
X154125704Y-88540371D02*
X154078085Y-88587990D01*
X154078085Y-88587990D02*
X153982847Y-88635609D01*
X153982847Y-88635609D02*
X153649514Y-88635609D01*
X154554276Y-88159419D02*
X155220942Y-88159419D01*
X155220942Y-88159419D02*
X154554276Y-89159419D01*
X154554276Y-89159419D02*
X155220942Y-89159419D01*
X156125704Y-89159419D02*
X155554276Y-89159419D01*
X155839990Y-89159419D02*
X155839990Y-88159419D01*
X155839990Y-88159419D02*
X155744752Y-88302276D01*
X155744752Y-88302276D02*
X155649514Y-88397514D01*
X155649514Y-88397514D02*
X155554276Y-88445133D01*
D11*
%TO.C,R22*%
X164621028Y-88830210D02*
X164451694Y-88588305D01*
X164330742Y-88830210D02*
X164330742Y-88322210D01*
X164330742Y-88322210D02*
X164524266Y-88322210D01*
X164524266Y-88322210D02*
X164572647Y-88346400D01*
X164572647Y-88346400D02*
X164596837Y-88370591D01*
X164596837Y-88370591D02*
X164621028Y-88418972D01*
X164621028Y-88418972D02*
X164621028Y-88491543D01*
X164621028Y-88491543D02*
X164596837Y-88539924D01*
X164596837Y-88539924D02*
X164572647Y-88564115D01*
X164572647Y-88564115D02*
X164524266Y-88588305D01*
X164524266Y-88588305D02*
X164330742Y-88588305D01*
X164814551Y-88370591D02*
X164838742Y-88346400D01*
X164838742Y-88346400D02*
X164887123Y-88322210D01*
X164887123Y-88322210D02*
X165008075Y-88322210D01*
X165008075Y-88322210D02*
X165056456Y-88346400D01*
X165056456Y-88346400D02*
X165080647Y-88370591D01*
X165080647Y-88370591D02*
X165104837Y-88418972D01*
X165104837Y-88418972D02*
X165104837Y-88467353D01*
X165104837Y-88467353D02*
X165080647Y-88539924D01*
X165080647Y-88539924D02*
X164790361Y-88830210D01*
X164790361Y-88830210D02*
X165104837Y-88830210D01*
X165298361Y-88370591D02*
X165322552Y-88346400D01*
X165322552Y-88346400D02*
X165370933Y-88322210D01*
X165370933Y-88322210D02*
X165491885Y-88322210D01*
X165491885Y-88322210D02*
X165540266Y-88346400D01*
X165540266Y-88346400D02*
X165564457Y-88370591D01*
X165564457Y-88370591D02*
X165588647Y-88418972D01*
X165588647Y-88418972D02*
X165588647Y-88467353D01*
X165588647Y-88467353D02*
X165564457Y-88539924D01*
X165564457Y-88539924D02*
X165274171Y-88830210D01*
X165274171Y-88830210D02*
X165588647Y-88830210D01*
%TO.C,C5*%
X142282333Y-96071629D02*
X142258142Y-96095820D01*
X142258142Y-96095820D02*
X142185571Y-96120010D01*
X142185571Y-96120010D02*
X142137190Y-96120010D01*
X142137190Y-96120010D02*
X142064618Y-96095820D01*
X142064618Y-96095820D02*
X142016237Y-96047439D01*
X142016237Y-96047439D02*
X141992047Y-95999058D01*
X141992047Y-95999058D02*
X141967856Y-95902296D01*
X141967856Y-95902296D02*
X141967856Y-95829724D01*
X141967856Y-95829724D02*
X141992047Y-95732962D01*
X141992047Y-95732962D02*
X142016237Y-95684581D01*
X142016237Y-95684581D02*
X142064618Y-95636200D01*
X142064618Y-95636200D02*
X142137190Y-95612010D01*
X142137190Y-95612010D02*
X142185571Y-95612010D01*
X142185571Y-95612010D02*
X142258142Y-95636200D01*
X142258142Y-95636200D02*
X142282333Y-95660391D01*
X142741952Y-95612010D02*
X142500047Y-95612010D01*
X142500047Y-95612010D02*
X142475856Y-95853915D01*
X142475856Y-95853915D02*
X142500047Y-95829724D01*
X142500047Y-95829724D02*
X142548428Y-95805534D01*
X142548428Y-95805534D02*
X142669380Y-95805534D01*
X142669380Y-95805534D02*
X142717761Y-95829724D01*
X142717761Y-95829724D02*
X142741952Y-95853915D01*
X142741952Y-95853915D02*
X142766142Y-95902296D01*
X142766142Y-95902296D02*
X142766142Y-96023248D01*
X142766142Y-96023248D02*
X142741952Y-96071629D01*
X142741952Y-96071629D02*
X142717761Y-96095820D01*
X142717761Y-96095820D02*
X142669380Y-96120010D01*
X142669380Y-96120010D02*
X142548428Y-96120010D01*
X142548428Y-96120010D02*
X142500047Y-96095820D01*
X142500047Y-96095820D02*
X142475856Y-96071629D01*
D10*
%TO.C,P3*%
X100633305Y-80599619D02*
X100633305Y-79599619D01*
X100633305Y-79599619D02*
X101014257Y-79599619D01*
X101014257Y-79599619D02*
X101109495Y-79647238D01*
X101109495Y-79647238D02*
X101157114Y-79694857D01*
X101157114Y-79694857D02*
X101204733Y-79790095D01*
X101204733Y-79790095D02*
X101204733Y-79932952D01*
X101204733Y-79932952D02*
X101157114Y-80028190D01*
X101157114Y-80028190D02*
X101109495Y-80075809D01*
X101109495Y-80075809D02*
X101014257Y-80123428D01*
X101014257Y-80123428D02*
X100633305Y-80123428D01*
X101538067Y-79599619D02*
X102157114Y-79599619D01*
X102157114Y-79599619D02*
X101823781Y-79980571D01*
X101823781Y-79980571D02*
X101966638Y-79980571D01*
X101966638Y-79980571D02*
X102061876Y-80028190D01*
X102061876Y-80028190D02*
X102109495Y-80075809D01*
X102109495Y-80075809D02*
X102157114Y-80171047D01*
X102157114Y-80171047D02*
X102157114Y-80409142D01*
X102157114Y-80409142D02*
X102109495Y-80504380D01*
X102109495Y-80504380D02*
X102061876Y-80552000D01*
X102061876Y-80552000D02*
X101966638Y-80599619D01*
X101966638Y-80599619D02*
X101680924Y-80599619D01*
X101680924Y-80599619D02*
X101585686Y-80552000D01*
X101585686Y-80552000D02*
X101538067Y-80504380D01*
%TO.C,D6*%
X159597876Y-82697416D02*
X159597876Y-81884616D01*
X159597876Y-81884616D02*
X159791400Y-81884616D01*
X159791400Y-81884616D02*
X159907514Y-81923321D01*
X159907514Y-81923321D02*
X159984924Y-82000731D01*
X159984924Y-82000731D02*
X160023629Y-82078140D01*
X160023629Y-82078140D02*
X160062333Y-82232959D01*
X160062333Y-82232959D02*
X160062333Y-82349073D01*
X160062333Y-82349073D02*
X160023629Y-82503892D01*
X160023629Y-82503892D02*
X159984924Y-82581302D01*
X159984924Y-82581302D02*
X159907514Y-82658712D01*
X159907514Y-82658712D02*
X159791400Y-82697416D01*
X159791400Y-82697416D02*
X159597876Y-82697416D01*
X160759019Y-81884616D02*
X160604200Y-81884616D01*
X160604200Y-81884616D02*
X160526791Y-81923321D01*
X160526791Y-81923321D02*
X160488086Y-81962026D01*
X160488086Y-81962026D02*
X160410676Y-82078140D01*
X160410676Y-82078140D02*
X160371972Y-82232959D01*
X160371972Y-82232959D02*
X160371972Y-82542597D01*
X160371972Y-82542597D02*
X160410676Y-82620007D01*
X160410676Y-82620007D02*
X160449381Y-82658712D01*
X160449381Y-82658712D02*
X160526791Y-82697416D01*
X160526791Y-82697416D02*
X160681610Y-82697416D01*
X160681610Y-82697416D02*
X160759019Y-82658712D01*
X160759019Y-82658712D02*
X160797724Y-82620007D01*
X160797724Y-82620007D02*
X160836429Y-82542597D01*
X160836429Y-82542597D02*
X160836429Y-82349073D01*
X160836429Y-82349073D02*
X160797724Y-82271664D01*
X160797724Y-82271664D02*
X160759019Y-82232959D01*
X160759019Y-82232959D02*
X160681610Y-82194254D01*
X160681610Y-82194254D02*
X160526791Y-82194254D01*
X160526791Y-82194254D02*
X160449381Y-82232959D01*
X160449381Y-82232959D02*
X160410676Y-82271664D01*
X160410676Y-82271664D02*
X160371972Y-82349073D01*
D11*
%TO.C,R6*%
X126280333Y-73412410D02*
X126110999Y-73170505D01*
X125990047Y-73412410D02*
X125990047Y-72904410D01*
X125990047Y-72904410D02*
X126183571Y-72904410D01*
X126183571Y-72904410D02*
X126231952Y-72928600D01*
X126231952Y-72928600D02*
X126256142Y-72952791D01*
X126256142Y-72952791D02*
X126280333Y-73001172D01*
X126280333Y-73001172D02*
X126280333Y-73073743D01*
X126280333Y-73073743D02*
X126256142Y-73122124D01*
X126256142Y-73122124D02*
X126231952Y-73146315D01*
X126231952Y-73146315D02*
X126183571Y-73170505D01*
X126183571Y-73170505D02*
X125990047Y-73170505D01*
X126715761Y-72904410D02*
X126618999Y-72904410D01*
X126618999Y-72904410D02*
X126570618Y-72928600D01*
X126570618Y-72928600D02*
X126546428Y-72952791D01*
X126546428Y-72952791D02*
X126498047Y-73025362D01*
X126498047Y-73025362D02*
X126473856Y-73122124D01*
X126473856Y-73122124D02*
X126473856Y-73315648D01*
X126473856Y-73315648D02*
X126498047Y-73364029D01*
X126498047Y-73364029D02*
X126522237Y-73388220D01*
X126522237Y-73388220D02*
X126570618Y-73412410D01*
X126570618Y-73412410D02*
X126667380Y-73412410D01*
X126667380Y-73412410D02*
X126715761Y-73388220D01*
X126715761Y-73388220D02*
X126739952Y-73364029D01*
X126739952Y-73364029D02*
X126764142Y-73315648D01*
X126764142Y-73315648D02*
X126764142Y-73194696D01*
X126764142Y-73194696D02*
X126739952Y-73146315D01*
X126739952Y-73146315D02*
X126715761Y-73122124D01*
X126715761Y-73122124D02*
X126667380Y-73097934D01*
X126667380Y-73097934D02*
X126570618Y-73097934D01*
X126570618Y-73097934D02*
X126522237Y-73122124D01*
X126522237Y-73122124D02*
X126498047Y-73146315D01*
X126498047Y-73146315D02*
X126473856Y-73194696D01*
D10*
%TO.C,P6*%
X161287801Y-79152260D02*
X161287801Y-78151307D01*
X161287801Y-78151307D02*
X161669116Y-78151307D01*
X161669116Y-78151307D02*
X161764445Y-78198971D01*
X161764445Y-78198971D02*
X161812109Y-78246636D01*
X161812109Y-78246636D02*
X161859774Y-78341965D01*
X161859774Y-78341965D02*
X161859774Y-78484958D01*
X161859774Y-78484958D02*
X161812109Y-78580287D01*
X161812109Y-78580287D02*
X161764445Y-78627951D01*
X161764445Y-78627951D02*
X161669116Y-78675616D01*
X161669116Y-78675616D02*
X161287801Y-78675616D01*
X162717734Y-78151307D02*
X162527076Y-78151307D01*
X162527076Y-78151307D02*
X162431747Y-78198971D01*
X162431747Y-78198971D02*
X162384083Y-78246636D01*
X162384083Y-78246636D02*
X162288754Y-78389629D01*
X162288754Y-78389629D02*
X162241089Y-78580287D01*
X162241089Y-78580287D02*
X162241089Y-78961602D01*
X162241089Y-78961602D02*
X162288754Y-79056931D01*
X162288754Y-79056931D02*
X162336418Y-79104596D01*
X162336418Y-79104596D02*
X162431747Y-79152260D01*
X162431747Y-79152260D02*
X162622405Y-79152260D01*
X162622405Y-79152260D02*
X162717734Y-79104596D01*
X162717734Y-79104596D02*
X162765398Y-79056931D01*
X162765398Y-79056931D02*
X162813062Y-78961602D01*
X162813062Y-78961602D02*
X162813062Y-78723280D01*
X162813062Y-78723280D02*
X162765398Y-78627951D01*
X162765398Y-78627951D02*
X162717734Y-78580287D01*
X162717734Y-78580287D02*
X162622405Y-78532622D01*
X162622405Y-78532622D02*
X162431747Y-78532622D01*
X162431747Y-78532622D02*
X162336418Y-78580287D01*
X162336418Y-78580287D02*
X162288754Y-78627951D01*
X162288754Y-78627951D02*
X162241089Y-78723280D01*
D11*
%TO.C,C10*%
X127079828Y-92287029D02*
X127055637Y-92311220D01*
X127055637Y-92311220D02*
X126983066Y-92335410D01*
X126983066Y-92335410D02*
X126934685Y-92335410D01*
X126934685Y-92335410D02*
X126862113Y-92311220D01*
X126862113Y-92311220D02*
X126813732Y-92262839D01*
X126813732Y-92262839D02*
X126789542Y-92214458D01*
X126789542Y-92214458D02*
X126765351Y-92117696D01*
X126765351Y-92117696D02*
X126765351Y-92045124D01*
X126765351Y-92045124D02*
X126789542Y-91948362D01*
X126789542Y-91948362D02*
X126813732Y-91899981D01*
X126813732Y-91899981D02*
X126862113Y-91851600D01*
X126862113Y-91851600D02*
X126934685Y-91827410D01*
X126934685Y-91827410D02*
X126983066Y-91827410D01*
X126983066Y-91827410D02*
X127055637Y-91851600D01*
X127055637Y-91851600D02*
X127079828Y-91875791D01*
X127563637Y-92335410D02*
X127273351Y-92335410D01*
X127418494Y-92335410D02*
X127418494Y-91827410D01*
X127418494Y-91827410D02*
X127370113Y-91899981D01*
X127370113Y-91899981D02*
X127321732Y-91948362D01*
X127321732Y-91948362D02*
X127273351Y-91972553D01*
X127878114Y-91827410D02*
X127926495Y-91827410D01*
X127926495Y-91827410D02*
X127974876Y-91851600D01*
X127974876Y-91851600D02*
X127999066Y-91875791D01*
X127999066Y-91875791D02*
X128023257Y-91924172D01*
X128023257Y-91924172D02*
X128047447Y-92020934D01*
X128047447Y-92020934D02*
X128047447Y-92141886D01*
X128047447Y-92141886D02*
X128023257Y-92238648D01*
X128023257Y-92238648D02*
X127999066Y-92287029D01*
X127999066Y-92287029D02*
X127974876Y-92311220D01*
X127974876Y-92311220D02*
X127926495Y-92335410D01*
X127926495Y-92335410D02*
X127878114Y-92335410D01*
X127878114Y-92335410D02*
X127829733Y-92311220D01*
X127829733Y-92311220D02*
X127805542Y-92287029D01*
X127805542Y-92287029D02*
X127781352Y-92238648D01*
X127781352Y-92238648D02*
X127757161Y-92141886D01*
X127757161Y-92141886D02*
X127757161Y-92020934D01*
X127757161Y-92020934D02*
X127781352Y-91924172D01*
X127781352Y-91924172D02*
X127805542Y-91875791D01*
X127805542Y-91875791D02*
X127829733Y-91851600D01*
X127829733Y-91851600D02*
X127878114Y-91827410D01*
%TO.C,C14*%
X126444828Y-87130829D02*
X126420637Y-87155020D01*
X126420637Y-87155020D02*
X126348066Y-87179210D01*
X126348066Y-87179210D02*
X126299685Y-87179210D01*
X126299685Y-87179210D02*
X126227113Y-87155020D01*
X126227113Y-87155020D02*
X126178732Y-87106639D01*
X126178732Y-87106639D02*
X126154542Y-87058258D01*
X126154542Y-87058258D02*
X126130351Y-86961496D01*
X126130351Y-86961496D02*
X126130351Y-86888924D01*
X126130351Y-86888924D02*
X126154542Y-86792162D01*
X126154542Y-86792162D02*
X126178732Y-86743781D01*
X126178732Y-86743781D02*
X126227113Y-86695400D01*
X126227113Y-86695400D02*
X126299685Y-86671210D01*
X126299685Y-86671210D02*
X126348066Y-86671210D01*
X126348066Y-86671210D02*
X126420637Y-86695400D01*
X126420637Y-86695400D02*
X126444828Y-86719591D01*
X126928637Y-87179210D02*
X126638351Y-87179210D01*
X126783494Y-87179210D02*
X126783494Y-86671210D01*
X126783494Y-86671210D02*
X126735113Y-86743781D01*
X126735113Y-86743781D02*
X126686732Y-86792162D01*
X126686732Y-86792162D02*
X126638351Y-86816353D01*
X127364066Y-86840543D02*
X127364066Y-87179210D01*
X127243114Y-86647020D02*
X127122161Y-87009877D01*
X127122161Y-87009877D02*
X127436638Y-87009877D01*
D12*
%TO.C,Q9*%
X160022419Y-97743191D02*
X159974038Y-97719000D01*
X159974038Y-97719000D02*
X159925657Y-97670620D01*
X159925657Y-97670620D02*
X159853085Y-97598048D01*
X159853085Y-97598048D02*
X159804704Y-97573858D01*
X159804704Y-97573858D02*
X159756323Y-97573858D01*
X159780514Y-97694810D02*
X159732133Y-97670620D01*
X159732133Y-97670620D02*
X159683752Y-97622239D01*
X159683752Y-97622239D02*
X159659561Y-97525477D01*
X159659561Y-97525477D02*
X159659561Y-97356143D01*
X159659561Y-97356143D02*
X159683752Y-97259381D01*
X159683752Y-97259381D02*
X159732133Y-97211000D01*
X159732133Y-97211000D02*
X159780514Y-97186810D01*
X159780514Y-97186810D02*
X159877276Y-97186810D01*
X159877276Y-97186810D02*
X159925657Y-97211000D01*
X159925657Y-97211000D02*
X159974038Y-97259381D01*
X159974038Y-97259381D02*
X159998228Y-97356143D01*
X159998228Y-97356143D02*
X159998228Y-97525477D01*
X159998228Y-97525477D02*
X159974038Y-97622239D01*
X159974038Y-97622239D02*
X159925657Y-97670620D01*
X159925657Y-97670620D02*
X159877276Y-97694810D01*
X159877276Y-97694810D02*
X159780514Y-97694810D01*
X160240132Y-97694810D02*
X160336894Y-97694810D01*
X160336894Y-97694810D02*
X160385275Y-97670620D01*
X160385275Y-97670620D02*
X160409466Y-97646429D01*
X160409466Y-97646429D02*
X160457847Y-97573858D01*
X160457847Y-97573858D02*
X160482037Y-97477096D01*
X160482037Y-97477096D02*
X160482037Y-97283572D01*
X160482037Y-97283572D02*
X160457847Y-97235191D01*
X160457847Y-97235191D02*
X160433656Y-97211000D01*
X160433656Y-97211000D02*
X160385275Y-97186810D01*
X160385275Y-97186810D02*
X160288513Y-97186810D01*
X160288513Y-97186810D02*
X160240132Y-97211000D01*
X160240132Y-97211000D02*
X160215942Y-97235191D01*
X160215942Y-97235191D02*
X160191751Y-97283572D01*
X160191751Y-97283572D02*
X160191751Y-97404524D01*
X160191751Y-97404524D02*
X160215942Y-97452905D01*
X160215942Y-97452905D02*
X160240132Y-97477096D01*
X160240132Y-97477096D02*
X160288513Y-97501286D01*
X160288513Y-97501286D02*
X160385275Y-97501286D01*
X160385275Y-97501286D02*
X160433656Y-97477096D01*
X160433656Y-97477096D02*
X160457847Y-97452905D01*
X160457847Y-97452905D02*
X160482037Y-97404524D01*
D11*
%TO.C,R3*%
X134611533Y-99091810D02*
X134442199Y-98849905D01*
X134321247Y-99091810D02*
X134321247Y-98583810D01*
X134321247Y-98583810D02*
X134514771Y-98583810D01*
X134514771Y-98583810D02*
X134563152Y-98608000D01*
X134563152Y-98608000D02*
X134587342Y-98632191D01*
X134587342Y-98632191D02*
X134611533Y-98680572D01*
X134611533Y-98680572D02*
X134611533Y-98753143D01*
X134611533Y-98753143D02*
X134587342Y-98801524D01*
X134587342Y-98801524D02*
X134563152Y-98825715D01*
X134563152Y-98825715D02*
X134514771Y-98849905D01*
X134514771Y-98849905D02*
X134321247Y-98849905D01*
X134780866Y-98583810D02*
X135095342Y-98583810D01*
X135095342Y-98583810D02*
X134926009Y-98777334D01*
X134926009Y-98777334D02*
X134998580Y-98777334D01*
X134998580Y-98777334D02*
X135046961Y-98801524D01*
X135046961Y-98801524D02*
X135071152Y-98825715D01*
X135071152Y-98825715D02*
X135095342Y-98874096D01*
X135095342Y-98874096D02*
X135095342Y-98995048D01*
X135095342Y-98995048D02*
X135071152Y-99043429D01*
X135071152Y-99043429D02*
X135046961Y-99067620D01*
X135046961Y-99067620D02*
X134998580Y-99091810D01*
X134998580Y-99091810D02*
X134853437Y-99091810D01*
X134853437Y-99091810D02*
X134805056Y-99067620D01*
X134805056Y-99067620D02*
X134780866Y-99043429D01*
%TO.C,C22*%
X115192628Y-84489229D02*
X115168437Y-84513420D01*
X115168437Y-84513420D02*
X115095866Y-84537610D01*
X115095866Y-84537610D02*
X115047485Y-84537610D01*
X115047485Y-84537610D02*
X114974913Y-84513420D01*
X114974913Y-84513420D02*
X114926532Y-84465039D01*
X114926532Y-84465039D02*
X114902342Y-84416658D01*
X114902342Y-84416658D02*
X114878151Y-84319896D01*
X114878151Y-84319896D02*
X114878151Y-84247324D01*
X114878151Y-84247324D02*
X114902342Y-84150562D01*
X114902342Y-84150562D02*
X114926532Y-84102181D01*
X114926532Y-84102181D02*
X114974913Y-84053800D01*
X114974913Y-84053800D02*
X115047485Y-84029610D01*
X115047485Y-84029610D02*
X115095866Y-84029610D01*
X115095866Y-84029610D02*
X115168437Y-84053800D01*
X115168437Y-84053800D02*
X115192628Y-84077991D01*
X115386151Y-84077991D02*
X115410342Y-84053800D01*
X115410342Y-84053800D02*
X115458723Y-84029610D01*
X115458723Y-84029610D02*
X115579675Y-84029610D01*
X115579675Y-84029610D02*
X115628056Y-84053800D01*
X115628056Y-84053800D02*
X115652247Y-84077991D01*
X115652247Y-84077991D02*
X115676437Y-84126372D01*
X115676437Y-84126372D02*
X115676437Y-84174753D01*
X115676437Y-84174753D02*
X115652247Y-84247324D01*
X115652247Y-84247324D02*
X115361961Y-84537610D01*
X115361961Y-84537610D02*
X115676437Y-84537610D01*
X115869961Y-84077991D02*
X115894152Y-84053800D01*
X115894152Y-84053800D02*
X115942533Y-84029610D01*
X115942533Y-84029610D02*
X116063485Y-84029610D01*
X116063485Y-84029610D02*
X116111866Y-84053800D01*
X116111866Y-84053800D02*
X116136057Y-84077991D01*
X116136057Y-84077991D02*
X116160247Y-84126372D01*
X116160247Y-84126372D02*
X116160247Y-84174753D01*
X116160247Y-84174753D02*
X116136057Y-84247324D01*
X116136057Y-84247324D02*
X115845771Y-84537610D01*
X115845771Y-84537610D02*
X116160247Y-84537610D01*
D12*
%TO.C,Q7*%
X101729419Y-72520991D02*
X101681038Y-72496800D01*
X101681038Y-72496800D02*
X101632657Y-72448420D01*
X101632657Y-72448420D02*
X101560085Y-72375848D01*
X101560085Y-72375848D02*
X101511704Y-72351658D01*
X101511704Y-72351658D02*
X101463323Y-72351658D01*
X101487514Y-72472610D02*
X101439133Y-72448420D01*
X101439133Y-72448420D02*
X101390752Y-72400039D01*
X101390752Y-72400039D02*
X101366561Y-72303277D01*
X101366561Y-72303277D02*
X101366561Y-72133943D01*
X101366561Y-72133943D02*
X101390752Y-72037181D01*
X101390752Y-72037181D02*
X101439133Y-71988800D01*
X101439133Y-71988800D02*
X101487514Y-71964610D01*
X101487514Y-71964610D02*
X101584276Y-71964610D01*
X101584276Y-71964610D02*
X101632657Y-71988800D01*
X101632657Y-71988800D02*
X101681038Y-72037181D01*
X101681038Y-72037181D02*
X101705228Y-72133943D01*
X101705228Y-72133943D02*
X101705228Y-72303277D01*
X101705228Y-72303277D02*
X101681038Y-72400039D01*
X101681038Y-72400039D02*
X101632657Y-72448420D01*
X101632657Y-72448420D02*
X101584276Y-72472610D01*
X101584276Y-72472610D02*
X101487514Y-72472610D01*
X101874561Y-71964610D02*
X102213228Y-71964610D01*
X102213228Y-71964610D02*
X101995513Y-72472610D01*
D13*
%TO.C,U5*%
X126375190Y-76942438D02*
X126375190Y-77201485D01*
X126375190Y-77201485D02*
X126390428Y-77231961D01*
X126390428Y-77231961D02*
X126405666Y-77247200D01*
X126405666Y-77247200D02*
X126436142Y-77262438D01*
X126436142Y-77262438D02*
X126497095Y-77262438D01*
X126497095Y-77262438D02*
X126527571Y-77247200D01*
X126527571Y-77247200D02*
X126542809Y-77231961D01*
X126542809Y-77231961D02*
X126558047Y-77201485D01*
X126558047Y-77201485D02*
X126558047Y-76942438D01*
X126862809Y-76942438D02*
X126710428Y-76942438D01*
X126710428Y-76942438D02*
X126695190Y-77094819D01*
X126695190Y-77094819D02*
X126710428Y-77079580D01*
X126710428Y-77079580D02*
X126740904Y-77064342D01*
X126740904Y-77064342D02*
X126817095Y-77064342D01*
X126817095Y-77064342D02*
X126847571Y-77079580D01*
X126847571Y-77079580D02*
X126862809Y-77094819D01*
X126862809Y-77094819D02*
X126878047Y-77125295D01*
X126878047Y-77125295D02*
X126878047Y-77201485D01*
X126878047Y-77201485D02*
X126862809Y-77231961D01*
X126862809Y-77231961D02*
X126847571Y-77247200D01*
X126847571Y-77247200D02*
X126817095Y-77262438D01*
X126817095Y-77262438D02*
X126740904Y-77262438D01*
X126740904Y-77262438D02*
X126710428Y-77247200D01*
X126710428Y-77247200D02*
X126695190Y-77231961D01*
D10*
%TO.C,U8*%
X154219123Y-80233616D02*
X154219123Y-80891597D01*
X154219123Y-80891597D02*
X154257828Y-80969007D01*
X154257828Y-80969007D02*
X154296533Y-81007712D01*
X154296533Y-81007712D02*
X154373942Y-81046416D01*
X154373942Y-81046416D02*
X154528761Y-81046416D01*
X154528761Y-81046416D02*
X154606171Y-81007712D01*
X154606171Y-81007712D02*
X154644876Y-80969007D01*
X154644876Y-80969007D02*
X154683580Y-80891597D01*
X154683580Y-80891597D02*
X154683580Y-80233616D01*
X155186743Y-80581959D02*
X155109333Y-80543254D01*
X155109333Y-80543254D02*
X155070628Y-80504550D01*
X155070628Y-80504550D02*
X155031924Y-80427140D01*
X155031924Y-80427140D02*
X155031924Y-80388435D01*
X155031924Y-80388435D02*
X155070628Y-80311026D01*
X155070628Y-80311026D02*
X155109333Y-80272321D01*
X155109333Y-80272321D02*
X155186743Y-80233616D01*
X155186743Y-80233616D02*
X155341562Y-80233616D01*
X155341562Y-80233616D02*
X155418971Y-80272321D01*
X155418971Y-80272321D02*
X155457676Y-80311026D01*
X155457676Y-80311026D02*
X155496381Y-80388435D01*
X155496381Y-80388435D02*
X155496381Y-80427140D01*
X155496381Y-80427140D02*
X155457676Y-80504550D01*
X155457676Y-80504550D02*
X155418971Y-80543254D01*
X155418971Y-80543254D02*
X155341562Y-80581959D01*
X155341562Y-80581959D02*
X155186743Y-80581959D01*
X155186743Y-80581959D02*
X155109333Y-80620664D01*
X155109333Y-80620664D02*
X155070628Y-80659369D01*
X155070628Y-80659369D02*
X155031924Y-80736778D01*
X155031924Y-80736778D02*
X155031924Y-80891597D01*
X155031924Y-80891597D02*
X155070628Y-80969007D01*
X155070628Y-80969007D02*
X155109333Y-81007712D01*
X155109333Y-81007712D02*
X155186743Y-81046416D01*
X155186743Y-81046416D02*
X155341562Y-81046416D01*
X155341562Y-81046416D02*
X155418971Y-81007712D01*
X155418971Y-81007712D02*
X155457676Y-80969007D01*
X155457676Y-80969007D02*
X155496381Y-80891597D01*
X155496381Y-80891597D02*
X155496381Y-80736778D01*
X155496381Y-80736778D02*
X155457676Y-80659369D01*
X155457676Y-80659369D02*
X155418971Y-80620664D01*
X155418971Y-80620664D02*
X155341562Y-80581959D01*
D11*
%TO.C,C6*%
X130928533Y-76488229D02*
X130904342Y-76512420D01*
X130904342Y-76512420D02*
X130831771Y-76536610D01*
X130831771Y-76536610D02*
X130783390Y-76536610D01*
X130783390Y-76536610D02*
X130710818Y-76512420D01*
X130710818Y-76512420D02*
X130662437Y-76464039D01*
X130662437Y-76464039D02*
X130638247Y-76415658D01*
X130638247Y-76415658D02*
X130614056Y-76318896D01*
X130614056Y-76318896D02*
X130614056Y-76246324D01*
X130614056Y-76246324D02*
X130638247Y-76149562D01*
X130638247Y-76149562D02*
X130662437Y-76101181D01*
X130662437Y-76101181D02*
X130710818Y-76052800D01*
X130710818Y-76052800D02*
X130783390Y-76028610D01*
X130783390Y-76028610D02*
X130831771Y-76028610D01*
X130831771Y-76028610D02*
X130904342Y-76052800D01*
X130904342Y-76052800D02*
X130928533Y-76076991D01*
X131363961Y-76028610D02*
X131267199Y-76028610D01*
X131267199Y-76028610D02*
X131218818Y-76052800D01*
X131218818Y-76052800D02*
X131194628Y-76076991D01*
X131194628Y-76076991D02*
X131146247Y-76149562D01*
X131146247Y-76149562D02*
X131122056Y-76246324D01*
X131122056Y-76246324D02*
X131122056Y-76439848D01*
X131122056Y-76439848D02*
X131146247Y-76488229D01*
X131146247Y-76488229D02*
X131170437Y-76512420D01*
X131170437Y-76512420D02*
X131218818Y-76536610D01*
X131218818Y-76536610D02*
X131315580Y-76536610D01*
X131315580Y-76536610D02*
X131363961Y-76512420D01*
X131363961Y-76512420D02*
X131388152Y-76488229D01*
X131388152Y-76488229D02*
X131412342Y-76439848D01*
X131412342Y-76439848D02*
X131412342Y-76318896D01*
X131412342Y-76318896D02*
X131388152Y-76270515D01*
X131388152Y-76270515D02*
X131363961Y-76246324D01*
X131363961Y-76246324D02*
X131315580Y-76222134D01*
X131315580Y-76222134D02*
X131218818Y-76222134D01*
X131218818Y-76222134D02*
X131170437Y-76246324D01*
X131170437Y-76246324D02*
X131146247Y-76270515D01*
X131146247Y-76270515D02*
X131122056Y-76318896D01*
%TO.C,R25*%
X105616828Y-89439810D02*
X105447494Y-89197905D01*
X105326542Y-89439810D02*
X105326542Y-88931810D01*
X105326542Y-88931810D02*
X105520066Y-88931810D01*
X105520066Y-88931810D02*
X105568447Y-88956000D01*
X105568447Y-88956000D02*
X105592637Y-88980191D01*
X105592637Y-88980191D02*
X105616828Y-89028572D01*
X105616828Y-89028572D02*
X105616828Y-89101143D01*
X105616828Y-89101143D02*
X105592637Y-89149524D01*
X105592637Y-89149524D02*
X105568447Y-89173715D01*
X105568447Y-89173715D02*
X105520066Y-89197905D01*
X105520066Y-89197905D02*
X105326542Y-89197905D01*
X105810351Y-88980191D02*
X105834542Y-88956000D01*
X105834542Y-88956000D02*
X105882923Y-88931810D01*
X105882923Y-88931810D02*
X106003875Y-88931810D01*
X106003875Y-88931810D02*
X106052256Y-88956000D01*
X106052256Y-88956000D02*
X106076447Y-88980191D01*
X106076447Y-88980191D02*
X106100637Y-89028572D01*
X106100637Y-89028572D02*
X106100637Y-89076953D01*
X106100637Y-89076953D02*
X106076447Y-89149524D01*
X106076447Y-89149524D02*
X105786161Y-89439810D01*
X105786161Y-89439810D02*
X106100637Y-89439810D01*
X106560257Y-88931810D02*
X106318352Y-88931810D01*
X106318352Y-88931810D02*
X106294161Y-89173715D01*
X106294161Y-89173715D02*
X106318352Y-89149524D01*
X106318352Y-89149524D02*
X106366733Y-89125334D01*
X106366733Y-89125334D02*
X106487685Y-89125334D01*
X106487685Y-89125334D02*
X106536066Y-89149524D01*
X106536066Y-89149524D02*
X106560257Y-89173715D01*
X106560257Y-89173715D02*
X106584447Y-89222096D01*
X106584447Y-89222096D02*
X106584447Y-89343048D01*
X106584447Y-89343048D02*
X106560257Y-89391429D01*
X106560257Y-89391429D02*
X106536066Y-89415620D01*
X106536066Y-89415620D02*
X106487685Y-89439810D01*
X106487685Y-89439810D02*
X106366733Y-89439810D01*
X106366733Y-89439810D02*
X106318352Y-89415620D01*
X106318352Y-89415620D02*
X106294161Y-89391429D01*
D10*
%TO.C,U3*%
X125704695Y-98497219D02*
X125704695Y-99306742D01*
X125704695Y-99306742D02*
X125752314Y-99401980D01*
X125752314Y-99401980D02*
X125799933Y-99449600D01*
X125799933Y-99449600D02*
X125895171Y-99497219D01*
X125895171Y-99497219D02*
X126085647Y-99497219D01*
X126085647Y-99497219D02*
X126180885Y-99449600D01*
X126180885Y-99449600D02*
X126228504Y-99401980D01*
X126228504Y-99401980D02*
X126276123Y-99306742D01*
X126276123Y-99306742D02*
X126276123Y-98497219D01*
X126657076Y-98497219D02*
X127276123Y-98497219D01*
X127276123Y-98497219D02*
X126942790Y-98878171D01*
X126942790Y-98878171D02*
X127085647Y-98878171D01*
X127085647Y-98878171D02*
X127180885Y-98925790D01*
X127180885Y-98925790D02*
X127228504Y-98973409D01*
X127228504Y-98973409D02*
X127276123Y-99068647D01*
X127276123Y-99068647D02*
X127276123Y-99306742D01*
X127276123Y-99306742D02*
X127228504Y-99401980D01*
X127228504Y-99401980D02*
X127180885Y-99449600D01*
X127180885Y-99449600D02*
X127085647Y-99497219D01*
X127085647Y-99497219D02*
X126799933Y-99497219D01*
X126799933Y-99497219D02*
X126704695Y-99449600D01*
X126704695Y-99449600D02*
X126657076Y-99401980D01*
D11*
%TO.C,R4*%
X161179933Y-72625010D02*
X161010599Y-72383105D01*
X160889647Y-72625010D02*
X160889647Y-72117010D01*
X160889647Y-72117010D02*
X161083171Y-72117010D01*
X161083171Y-72117010D02*
X161131552Y-72141200D01*
X161131552Y-72141200D02*
X161155742Y-72165391D01*
X161155742Y-72165391D02*
X161179933Y-72213772D01*
X161179933Y-72213772D02*
X161179933Y-72286343D01*
X161179933Y-72286343D02*
X161155742Y-72334724D01*
X161155742Y-72334724D02*
X161131552Y-72358915D01*
X161131552Y-72358915D02*
X161083171Y-72383105D01*
X161083171Y-72383105D02*
X160889647Y-72383105D01*
X161615361Y-72286343D02*
X161615361Y-72625010D01*
X161494409Y-72092820D02*
X161373456Y-72455677D01*
X161373456Y-72455677D02*
X161687933Y-72455677D01*
%TO.C,R26*%
X148415828Y-72167810D02*
X148246494Y-71925905D01*
X148125542Y-72167810D02*
X148125542Y-71659810D01*
X148125542Y-71659810D02*
X148319066Y-71659810D01*
X148319066Y-71659810D02*
X148367447Y-71684000D01*
X148367447Y-71684000D02*
X148391637Y-71708191D01*
X148391637Y-71708191D02*
X148415828Y-71756572D01*
X148415828Y-71756572D02*
X148415828Y-71829143D01*
X148415828Y-71829143D02*
X148391637Y-71877524D01*
X148391637Y-71877524D02*
X148367447Y-71901715D01*
X148367447Y-71901715D02*
X148319066Y-71925905D01*
X148319066Y-71925905D02*
X148125542Y-71925905D01*
X148609351Y-71708191D02*
X148633542Y-71684000D01*
X148633542Y-71684000D02*
X148681923Y-71659810D01*
X148681923Y-71659810D02*
X148802875Y-71659810D01*
X148802875Y-71659810D02*
X148851256Y-71684000D01*
X148851256Y-71684000D02*
X148875447Y-71708191D01*
X148875447Y-71708191D02*
X148899637Y-71756572D01*
X148899637Y-71756572D02*
X148899637Y-71804953D01*
X148899637Y-71804953D02*
X148875447Y-71877524D01*
X148875447Y-71877524D02*
X148585161Y-72167810D01*
X148585161Y-72167810D02*
X148899637Y-72167810D01*
X149335066Y-71659810D02*
X149238304Y-71659810D01*
X149238304Y-71659810D02*
X149189923Y-71684000D01*
X149189923Y-71684000D02*
X149165733Y-71708191D01*
X149165733Y-71708191D02*
X149117352Y-71780762D01*
X149117352Y-71780762D02*
X149093161Y-71877524D01*
X149093161Y-71877524D02*
X149093161Y-72071048D01*
X149093161Y-72071048D02*
X149117352Y-72119429D01*
X149117352Y-72119429D02*
X149141542Y-72143620D01*
X149141542Y-72143620D02*
X149189923Y-72167810D01*
X149189923Y-72167810D02*
X149286685Y-72167810D01*
X149286685Y-72167810D02*
X149335066Y-72143620D01*
X149335066Y-72143620D02*
X149359257Y-72119429D01*
X149359257Y-72119429D02*
X149383447Y-72071048D01*
X149383447Y-72071048D02*
X149383447Y-71950096D01*
X149383447Y-71950096D02*
X149359257Y-71901715D01*
X149359257Y-71901715D02*
X149335066Y-71877524D01*
X149335066Y-71877524D02*
X149286685Y-71853334D01*
X149286685Y-71853334D02*
X149189923Y-71853334D01*
X149189923Y-71853334D02*
X149141542Y-71877524D01*
X149141542Y-71877524D02*
X149117352Y-71901715D01*
X149117352Y-71901715D02*
X149093161Y-71950096D01*
D12*
%TO.C,Q3*%
X118493419Y-85754391D02*
X118445038Y-85730200D01*
X118445038Y-85730200D02*
X118396657Y-85681820D01*
X118396657Y-85681820D02*
X118324085Y-85609248D01*
X118324085Y-85609248D02*
X118275704Y-85585058D01*
X118275704Y-85585058D02*
X118227323Y-85585058D01*
X118251514Y-85706010D02*
X118203133Y-85681820D01*
X118203133Y-85681820D02*
X118154752Y-85633439D01*
X118154752Y-85633439D02*
X118130561Y-85536677D01*
X118130561Y-85536677D02*
X118130561Y-85367343D01*
X118130561Y-85367343D02*
X118154752Y-85270581D01*
X118154752Y-85270581D02*
X118203133Y-85222200D01*
X118203133Y-85222200D02*
X118251514Y-85198010D01*
X118251514Y-85198010D02*
X118348276Y-85198010D01*
X118348276Y-85198010D02*
X118396657Y-85222200D01*
X118396657Y-85222200D02*
X118445038Y-85270581D01*
X118445038Y-85270581D02*
X118469228Y-85367343D01*
X118469228Y-85367343D02*
X118469228Y-85536677D01*
X118469228Y-85536677D02*
X118445038Y-85633439D01*
X118445038Y-85633439D02*
X118396657Y-85681820D01*
X118396657Y-85681820D02*
X118348276Y-85706010D01*
X118348276Y-85706010D02*
X118251514Y-85706010D01*
X118638561Y-85198010D02*
X118953037Y-85198010D01*
X118953037Y-85198010D02*
X118783704Y-85391534D01*
X118783704Y-85391534D02*
X118856275Y-85391534D01*
X118856275Y-85391534D02*
X118904656Y-85415724D01*
X118904656Y-85415724D02*
X118928847Y-85439915D01*
X118928847Y-85439915D02*
X118953037Y-85488296D01*
X118953037Y-85488296D02*
X118953037Y-85609248D01*
X118953037Y-85609248D02*
X118928847Y-85657629D01*
X118928847Y-85657629D02*
X118904656Y-85681820D01*
X118904656Y-85681820D02*
X118856275Y-85706010D01*
X118856275Y-85706010D02*
X118711132Y-85706010D01*
X118711132Y-85706010D02*
X118662751Y-85681820D01*
X118662751Y-85681820D02*
X118638561Y-85657629D01*
D11*
%TO.C,C18*%
X124920828Y-81034829D02*
X124896637Y-81059020D01*
X124896637Y-81059020D02*
X124824066Y-81083210D01*
X124824066Y-81083210D02*
X124775685Y-81083210D01*
X124775685Y-81083210D02*
X124703113Y-81059020D01*
X124703113Y-81059020D02*
X124654732Y-81010639D01*
X124654732Y-81010639D02*
X124630542Y-80962258D01*
X124630542Y-80962258D02*
X124606351Y-80865496D01*
X124606351Y-80865496D02*
X124606351Y-80792924D01*
X124606351Y-80792924D02*
X124630542Y-80696162D01*
X124630542Y-80696162D02*
X124654732Y-80647781D01*
X124654732Y-80647781D02*
X124703113Y-80599400D01*
X124703113Y-80599400D02*
X124775685Y-80575210D01*
X124775685Y-80575210D02*
X124824066Y-80575210D01*
X124824066Y-80575210D02*
X124896637Y-80599400D01*
X124896637Y-80599400D02*
X124920828Y-80623591D01*
X125404637Y-81083210D02*
X125114351Y-81083210D01*
X125259494Y-81083210D02*
X125259494Y-80575210D01*
X125259494Y-80575210D02*
X125211113Y-80647781D01*
X125211113Y-80647781D02*
X125162732Y-80696162D01*
X125162732Y-80696162D02*
X125114351Y-80720353D01*
X125694923Y-80792924D02*
X125646542Y-80768734D01*
X125646542Y-80768734D02*
X125622352Y-80744543D01*
X125622352Y-80744543D02*
X125598161Y-80696162D01*
X125598161Y-80696162D02*
X125598161Y-80671972D01*
X125598161Y-80671972D02*
X125622352Y-80623591D01*
X125622352Y-80623591D02*
X125646542Y-80599400D01*
X125646542Y-80599400D02*
X125694923Y-80575210D01*
X125694923Y-80575210D02*
X125791685Y-80575210D01*
X125791685Y-80575210D02*
X125840066Y-80599400D01*
X125840066Y-80599400D02*
X125864257Y-80623591D01*
X125864257Y-80623591D02*
X125888447Y-80671972D01*
X125888447Y-80671972D02*
X125888447Y-80696162D01*
X125888447Y-80696162D02*
X125864257Y-80744543D01*
X125864257Y-80744543D02*
X125840066Y-80768734D01*
X125840066Y-80768734D02*
X125791685Y-80792924D01*
X125791685Y-80792924D02*
X125694923Y-80792924D01*
X125694923Y-80792924D02*
X125646542Y-80817115D01*
X125646542Y-80817115D02*
X125622352Y-80841305D01*
X125622352Y-80841305D02*
X125598161Y-80889686D01*
X125598161Y-80889686D02*
X125598161Y-80986448D01*
X125598161Y-80986448D02*
X125622352Y-81034829D01*
X125622352Y-81034829D02*
X125646542Y-81059020D01*
X125646542Y-81059020D02*
X125694923Y-81083210D01*
X125694923Y-81083210D02*
X125791685Y-81083210D01*
X125791685Y-81083210D02*
X125840066Y-81059020D01*
X125840066Y-81059020D02*
X125864257Y-81034829D01*
X125864257Y-81034829D02*
X125888447Y-80986448D01*
X125888447Y-80986448D02*
X125888447Y-80889686D01*
X125888447Y-80889686D02*
X125864257Y-80841305D01*
X125864257Y-80841305D02*
X125840066Y-80817115D01*
X125840066Y-80817115D02*
X125791685Y-80792924D01*
%TO.C,C17*%
X128629228Y-75827829D02*
X128605037Y-75852020D01*
X128605037Y-75852020D02*
X128532466Y-75876210D01*
X128532466Y-75876210D02*
X128484085Y-75876210D01*
X128484085Y-75876210D02*
X128411513Y-75852020D01*
X128411513Y-75852020D02*
X128363132Y-75803639D01*
X128363132Y-75803639D02*
X128338942Y-75755258D01*
X128338942Y-75755258D02*
X128314751Y-75658496D01*
X128314751Y-75658496D02*
X128314751Y-75585924D01*
X128314751Y-75585924D02*
X128338942Y-75489162D01*
X128338942Y-75489162D02*
X128363132Y-75440781D01*
X128363132Y-75440781D02*
X128411513Y-75392400D01*
X128411513Y-75392400D02*
X128484085Y-75368210D01*
X128484085Y-75368210D02*
X128532466Y-75368210D01*
X128532466Y-75368210D02*
X128605037Y-75392400D01*
X128605037Y-75392400D02*
X128629228Y-75416591D01*
X129113037Y-75876210D02*
X128822751Y-75876210D01*
X128967894Y-75876210D02*
X128967894Y-75368210D01*
X128967894Y-75368210D02*
X128919513Y-75440781D01*
X128919513Y-75440781D02*
X128871132Y-75489162D01*
X128871132Y-75489162D02*
X128822751Y-75513353D01*
X129282371Y-75368210D02*
X129621038Y-75368210D01*
X129621038Y-75368210D02*
X129403323Y-75876210D01*
D10*
%TO.C,P1*%
X134410524Y-72683895D02*
X134410524Y-71883895D01*
X134410524Y-71883895D02*
X134715286Y-71883895D01*
X134715286Y-71883895D02*
X134791476Y-71921990D01*
X134791476Y-71921990D02*
X134829571Y-71960085D01*
X134829571Y-71960085D02*
X134867667Y-72036276D01*
X134867667Y-72036276D02*
X134867667Y-72150561D01*
X134867667Y-72150561D02*
X134829571Y-72226752D01*
X134829571Y-72226752D02*
X134791476Y-72264847D01*
X134791476Y-72264847D02*
X134715286Y-72302942D01*
X134715286Y-72302942D02*
X134410524Y-72302942D01*
X135629571Y-72683895D02*
X135172428Y-72683895D01*
X135401000Y-72683895D02*
X135401000Y-71883895D01*
X135401000Y-71883895D02*
X135324809Y-71998180D01*
X135324809Y-71998180D02*
X135248619Y-72074371D01*
X135248619Y-72074371D02*
X135172428Y-72112466D01*
D11*
%TO.C,R1*%
X139767733Y-101276210D02*
X139598399Y-101034305D01*
X139477447Y-101276210D02*
X139477447Y-100768210D01*
X139477447Y-100768210D02*
X139670971Y-100768210D01*
X139670971Y-100768210D02*
X139719352Y-100792400D01*
X139719352Y-100792400D02*
X139743542Y-100816591D01*
X139743542Y-100816591D02*
X139767733Y-100864972D01*
X139767733Y-100864972D02*
X139767733Y-100937543D01*
X139767733Y-100937543D02*
X139743542Y-100985924D01*
X139743542Y-100985924D02*
X139719352Y-101010115D01*
X139719352Y-101010115D02*
X139670971Y-101034305D01*
X139670971Y-101034305D02*
X139477447Y-101034305D01*
X140251542Y-101276210D02*
X139961256Y-101276210D01*
X140106399Y-101276210D02*
X140106399Y-100768210D01*
X140106399Y-100768210D02*
X140058018Y-100840781D01*
X140058018Y-100840781D02*
X140009637Y-100889162D01*
X140009637Y-100889162D02*
X139961256Y-100913353D01*
%TO.C,C9*%
X147971933Y-80501429D02*
X147947742Y-80525620D01*
X147947742Y-80525620D02*
X147875171Y-80549810D01*
X147875171Y-80549810D02*
X147826790Y-80549810D01*
X147826790Y-80549810D02*
X147754218Y-80525620D01*
X147754218Y-80525620D02*
X147705837Y-80477239D01*
X147705837Y-80477239D02*
X147681647Y-80428858D01*
X147681647Y-80428858D02*
X147657456Y-80332096D01*
X147657456Y-80332096D02*
X147657456Y-80259524D01*
X147657456Y-80259524D02*
X147681647Y-80162762D01*
X147681647Y-80162762D02*
X147705837Y-80114381D01*
X147705837Y-80114381D02*
X147754218Y-80066000D01*
X147754218Y-80066000D02*
X147826790Y-80041810D01*
X147826790Y-80041810D02*
X147875171Y-80041810D01*
X147875171Y-80041810D02*
X147947742Y-80066000D01*
X147947742Y-80066000D02*
X147971933Y-80090191D01*
X148213837Y-80549810D02*
X148310599Y-80549810D01*
X148310599Y-80549810D02*
X148358980Y-80525620D01*
X148358980Y-80525620D02*
X148383171Y-80501429D01*
X148383171Y-80501429D02*
X148431552Y-80428858D01*
X148431552Y-80428858D02*
X148455742Y-80332096D01*
X148455742Y-80332096D02*
X148455742Y-80138572D01*
X148455742Y-80138572D02*
X148431552Y-80090191D01*
X148431552Y-80090191D02*
X148407361Y-80066000D01*
X148407361Y-80066000D02*
X148358980Y-80041810D01*
X148358980Y-80041810D02*
X148262218Y-80041810D01*
X148262218Y-80041810D02*
X148213837Y-80066000D01*
X148213837Y-80066000D02*
X148189647Y-80090191D01*
X148189647Y-80090191D02*
X148165456Y-80138572D01*
X148165456Y-80138572D02*
X148165456Y-80259524D01*
X148165456Y-80259524D02*
X148189647Y-80307905D01*
X148189647Y-80307905D02*
X148213837Y-80332096D01*
X148213837Y-80332096D02*
X148262218Y-80356286D01*
X148262218Y-80356286D02*
X148358980Y-80356286D01*
X148358980Y-80356286D02*
X148407361Y-80332096D01*
X148407361Y-80332096D02*
X148431552Y-80307905D01*
X148431552Y-80307905D02*
X148455742Y-80259524D01*
D12*
%TO.C,Q6*%
X120322219Y-89335791D02*
X120273838Y-89311600D01*
X120273838Y-89311600D02*
X120225457Y-89263220D01*
X120225457Y-89263220D02*
X120152885Y-89190648D01*
X120152885Y-89190648D02*
X120104504Y-89166458D01*
X120104504Y-89166458D02*
X120056123Y-89166458D01*
X120080314Y-89287410D02*
X120031933Y-89263220D01*
X120031933Y-89263220D02*
X119983552Y-89214839D01*
X119983552Y-89214839D02*
X119959361Y-89118077D01*
X119959361Y-89118077D02*
X119959361Y-88948743D01*
X119959361Y-88948743D02*
X119983552Y-88851981D01*
X119983552Y-88851981D02*
X120031933Y-88803600D01*
X120031933Y-88803600D02*
X120080314Y-88779410D01*
X120080314Y-88779410D02*
X120177076Y-88779410D01*
X120177076Y-88779410D02*
X120225457Y-88803600D01*
X120225457Y-88803600D02*
X120273838Y-88851981D01*
X120273838Y-88851981D02*
X120298028Y-88948743D01*
X120298028Y-88948743D02*
X120298028Y-89118077D01*
X120298028Y-89118077D02*
X120273838Y-89214839D01*
X120273838Y-89214839D02*
X120225457Y-89263220D01*
X120225457Y-89263220D02*
X120177076Y-89287410D01*
X120177076Y-89287410D02*
X120080314Y-89287410D01*
X120733456Y-88779410D02*
X120636694Y-88779410D01*
X120636694Y-88779410D02*
X120588313Y-88803600D01*
X120588313Y-88803600D02*
X120564123Y-88827791D01*
X120564123Y-88827791D02*
X120515742Y-88900362D01*
X120515742Y-88900362D02*
X120491551Y-88997124D01*
X120491551Y-88997124D02*
X120491551Y-89190648D01*
X120491551Y-89190648D02*
X120515742Y-89239029D01*
X120515742Y-89239029D02*
X120539932Y-89263220D01*
X120539932Y-89263220D02*
X120588313Y-89287410D01*
X120588313Y-89287410D02*
X120685075Y-89287410D01*
X120685075Y-89287410D02*
X120733456Y-89263220D01*
X120733456Y-89263220D02*
X120757647Y-89239029D01*
X120757647Y-89239029D02*
X120781837Y-89190648D01*
X120781837Y-89190648D02*
X120781837Y-89069696D01*
X120781837Y-89069696D02*
X120757647Y-89021315D01*
X120757647Y-89021315D02*
X120733456Y-88997124D01*
X120733456Y-88997124D02*
X120685075Y-88972934D01*
X120685075Y-88972934D02*
X120588313Y-88972934D01*
X120588313Y-88972934D02*
X120539932Y-88997124D01*
X120539932Y-88997124D02*
X120515742Y-89021315D01*
X120515742Y-89021315D02*
X120491551Y-89069696D01*
D11*
%TO.C,C24*%
X153800628Y-72068629D02*
X153776437Y-72092820D01*
X153776437Y-72092820D02*
X153703866Y-72117010D01*
X153703866Y-72117010D02*
X153655485Y-72117010D01*
X153655485Y-72117010D02*
X153582913Y-72092820D01*
X153582913Y-72092820D02*
X153534532Y-72044439D01*
X153534532Y-72044439D02*
X153510342Y-71996058D01*
X153510342Y-71996058D02*
X153486151Y-71899296D01*
X153486151Y-71899296D02*
X153486151Y-71826724D01*
X153486151Y-71826724D02*
X153510342Y-71729962D01*
X153510342Y-71729962D02*
X153534532Y-71681581D01*
X153534532Y-71681581D02*
X153582913Y-71633200D01*
X153582913Y-71633200D02*
X153655485Y-71609010D01*
X153655485Y-71609010D02*
X153703866Y-71609010D01*
X153703866Y-71609010D02*
X153776437Y-71633200D01*
X153776437Y-71633200D02*
X153800628Y-71657391D01*
X153994151Y-71657391D02*
X154018342Y-71633200D01*
X154018342Y-71633200D02*
X154066723Y-71609010D01*
X154066723Y-71609010D02*
X154187675Y-71609010D01*
X154187675Y-71609010D02*
X154236056Y-71633200D01*
X154236056Y-71633200D02*
X154260247Y-71657391D01*
X154260247Y-71657391D02*
X154284437Y-71705772D01*
X154284437Y-71705772D02*
X154284437Y-71754153D01*
X154284437Y-71754153D02*
X154260247Y-71826724D01*
X154260247Y-71826724D02*
X153969961Y-72117010D01*
X153969961Y-72117010D02*
X154284437Y-72117010D01*
X154719866Y-71778343D02*
X154719866Y-72117010D01*
X154598914Y-71584820D02*
X154477961Y-71947677D01*
X154477961Y-71947677D02*
X154792438Y-71947677D01*
%TO.C,R18*%
X121212428Y-83216810D02*
X121043094Y-82974905D01*
X120922142Y-83216810D02*
X120922142Y-82708810D01*
X120922142Y-82708810D02*
X121115666Y-82708810D01*
X121115666Y-82708810D02*
X121164047Y-82733000D01*
X121164047Y-82733000D02*
X121188237Y-82757191D01*
X121188237Y-82757191D02*
X121212428Y-82805572D01*
X121212428Y-82805572D02*
X121212428Y-82878143D01*
X121212428Y-82878143D02*
X121188237Y-82926524D01*
X121188237Y-82926524D02*
X121164047Y-82950715D01*
X121164047Y-82950715D02*
X121115666Y-82974905D01*
X121115666Y-82974905D02*
X120922142Y-82974905D01*
X121696237Y-83216810D02*
X121405951Y-83216810D01*
X121551094Y-83216810D02*
X121551094Y-82708810D01*
X121551094Y-82708810D02*
X121502713Y-82781381D01*
X121502713Y-82781381D02*
X121454332Y-82829762D01*
X121454332Y-82829762D02*
X121405951Y-82853953D01*
X121986523Y-82926524D02*
X121938142Y-82902334D01*
X121938142Y-82902334D02*
X121913952Y-82878143D01*
X121913952Y-82878143D02*
X121889761Y-82829762D01*
X121889761Y-82829762D02*
X121889761Y-82805572D01*
X121889761Y-82805572D02*
X121913952Y-82757191D01*
X121913952Y-82757191D02*
X121938142Y-82733000D01*
X121938142Y-82733000D02*
X121986523Y-82708810D01*
X121986523Y-82708810D02*
X122083285Y-82708810D01*
X122083285Y-82708810D02*
X122131666Y-82733000D01*
X122131666Y-82733000D02*
X122155857Y-82757191D01*
X122155857Y-82757191D02*
X122180047Y-82805572D01*
X122180047Y-82805572D02*
X122180047Y-82829762D01*
X122180047Y-82829762D02*
X122155857Y-82878143D01*
X122155857Y-82878143D02*
X122131666Y-82902334D01*
X122131666Y-82902334D02*
X122083285Y-82926524D01*
X122083285Y-82926524D02*
X121986523Y-82926524D01*
X121986523Y-82926524D02*
X121938142Y-82950715D01*
X121938142Y-82950715D02*
X121913952Y-82974905D01*
X121913952Y-82974905D02*
X121889761Y-83023286D01*
X121889761Y-83023286D02*
X121889761Y-83120048D01*
X121889761Y-83120048D02*
X121913952Y-83168429D01*
X121913952Y-83168429D02*
X121938142Y-83192620D01*
X121938142Y-83192620D02*
X121986523Y-83216810D01*
X121986523Y-83216810D02*
X122083285Y-83216810D01*
X122083285Y-83216810D02*
X122131666Y-83192620D01*
X122131666Y-83192620D02*
X122155857Y-83168429D01*
X122155857Y-83168429D02*
X122180047Y-83120048D01*
X122180047Y-83120048D02*
X122180047Y-83023286D01*
X122180047Y-83023286D02*
X122155857Y-82974905D01*
X122155857Y-82974905D02*
X122131666Y-82950715D01*
X122131666Y-82950715D02*
X122083285Y-82926524D01*
D12*
%TO.C,Q2*%
X115521619Y-87887991D02*
X115473238Y-87863800D01*
X115473238Y-87863800D02*
X115424857Y-87815420D01*
X115424857Y-87815420D02*
X115352285Y-87742848D01*
X115352285Y-87742848D02*
X115303904Y-87718658D01*
X115303904Y-87718658D02*
X115255523Y-87718658D01*
X115279714Y-87839610D02*
X115231333Y-87815420D01*
X115231333Y-87815420D02*
X115182952Y-87767039D01*
X115182952Y-87767039D02*
X115158761Y-87670277D01*
X115158761Y-87670277D02*
X115158761Y-87500943D01*
X115158761Y-87500943D02*
X115182952Y-87404181D01*
X115182952Y-87404181D02*
X115231333Y-87355800D01*
X115231333Y-87355800D02*
X115279714Y-87331610D01*
X115279714Y-87331610D02*
X115376476Y-87331610D01*
X115376476Y-87331610D02*
X115424857Y-87355800D01*
X115424857Y-87355800D02*
X115473238Y-87404181D01*
X115473238Y-87404181D02*
X115497428Y-87500943D01*
X115497428Y-87500943D02*
X115497428Y-87670277D01*
X115497428Y-87670277D02*
X115473238Y-87767039D01*
X115473238Y-87767039D02*
X115424857Y-87815420D01*
X115424857Y-87815420D02*
X115376476Y-87839610D01*
X115376476Y-87839610D02*
X115279714Y-87839610D01*
X115690951Y-87379991D02*
X115715142Y-87355800D01*
X115715142Y-87355800D02*
X115763523Y-87331610D01*
X115763523Y-87331610D02*
X115884475Y-87331610D01*
X115884475Y-87331610D02*
X115932856Y-87355800D01*
X115932856Y-87355800D02*
X115957047Y-87379991D01*
X115957047Y-87379991D02*
X115981237Y-87428372D01*
X115981237Y-87428372D02*
X115981237Y-87476753D01*
X115981237Y-87476753D02*
X115957047Y-87549324D01*
X115957047Y-87549324D02*
X115666761Y-87839610D01*
X115666761Y-87839610D02*
X115981237Y-87839610D01*
D11*
%TO.C,C20*%
X111560428Y-89112029D02*
X111536237Y-89136220D01*
X111536237Y-89136220D02*
X111463666Y-89160410D01*
X111463666Y-89160410D02*
X111415285Y-89160410D01*
X111415285Y-89160410D02*
X111342713Y-89136220D01*
X111342713Y-89136220D02*
X111294332Y-89087839D01*
X111294332Y-89087839D02*
X111270142Y-89039458D01*
X111270142Y-89039458D02*
X111245951Y-88942696D01*
X111245951Y-88942696D02*
X111245951Y-88870124D01*
X111245951Y-88870124D02*
X111270142Y-88773362D01*
X111270142Y-88773362D02*
X111294332Y-88724981D01*
X111294332Y-88724981D02*
X111342713Y-88676600D01*
X111342713Y-88676600D02*
X111415285Y-88652410D01*
X111415285Y-88652410D02*
X111463666Y-88652410D01*
X111463666Y-88652410D02*
X111536237Y-88676600D01*
X111536237Y-88676600D02*
X111560428Y-88700791D01*
X111753951Y-88700791D02*
X111778142Y-88676600D01*
X111778142Y-88676600D02*
X111826523Y-88652410D01*
X111826523Y-88652410D02*
X111947475Y-88652410D01*
X111947475Y-88652410D02*
X111995856Y-88676600D01*
X111995856Y-88676600D02*
X112020047Y-88700791D01*
X112020047Y-88700791D02*
X112044237Y-88749172D01*
X112044237Y-88749172D02*
X112044237Y-88797553D01*
X112044237Y-88797553D02*
X112020047Y-88870124D01*
X112020047Y-88870124D02*
X111729761Y-89160410D01*
X111729761Y-89160410D02*
X112044237Y-89160410D01*
X112358714Y-88652410D02*
X112407095Y-88652410D01*
X112407095Y-88652410D02*
X112455476Y-88676600D01*
X112455476Y-88676600D02*
X112479666Y-88700791D01*
X112479666Y-88700791D02*
X112503857Y-88749172D01*
X112503857Y-88749172D02*
X112528047Y-88845934D01*
X112528047Y-88845934D02*
X112528047Y-88966886D01*
X112528047Y-88966886D02*
X112503857Y-89063648D01*
X112503857Y-89063648D02*
X112479666Y-89112029D01*
X112479666Y-89112029D02*
X112455476Y-89136220D01*
X112455476Y-89136220D02*
X112407095Y-89160410D01*
X112407095Y-89160410D02*
X112358714Y-89160410D01*
X112358714Y-89160410D02*
X112310333Y-89136220D01*
X112310333Y-89136220D02*
X112286142Y-89112029D01*
X112286142Y-89112029D02*
X112261952Y-89063648D01*
X112261952Y-89063648D02*
X112237761Y-88966886D01*
X112237761Y-88966886D02*
X112237761Y-88845934D01*
X112237761Y-88845934D02*
X112261952Y-88749172D01*
X112261952Y-88749172D02*
X112286142Y-88700791D01*
X112286142Y-88700791D02*
X112310333Y-88676600D01*
X112310333Y-88676600D02*
X112358714Y-88652410D01*
D10*
%TO.C,U6*%
X165709695Y-94204619D02*
X165709695Y-95014142D01*
X165709695Y-95014142D02*
X165757314Y-95109380D01*
X165757314Y-95109380D02*
X165804933Y-95157000D01*
X165804933Y-95157000D02*
X165900171Y-95204619D01*
X165900171Y-95204619D02*
X166090647Y-95204619D01*
X166090647Y-95204619D02*
X166185885Y-95157000D01*
X166185885Y-95157000D02*
X166233504Y-95109380D01*
X166233504Y-95109380D02*
X166281123Y-95014142D01*
X166281123Y-95014142D02*
X166281123Y-94204619D01*
X167185885Y-94204619D02*
X166995409Y-94204619D01*
X166995409Y-94204619D02*
X166900171Y-94252238D01*
X166900171Y-94252238D02*
X166852552Y-94299857D01*
X166852552Y-94299857D02*
X166757314Y-94442714D01*
X166757314Y-94442714D02*
X166709695Y-94633190D01*
X166709695Y-94633190D02*
X166709695Y-95014142D01*
X166709695Y-95014142D02*
X166757314Y-95109380D01*
X166757314Y-95109380D02*
X166804933Y-95157000D01*
X166804933Y-95157000D02*
X166900171Y-95204619D01*
X166900171Y-95204619D02*
X167090647Y-95204619D01*
X167090647Y-95204619D02*
X167185885Y-95157000D01*
X167185885Y-95157000D02*
X167233504Y-95109380D01*
X167233504Y-95109380D02*
X167281123Y-95014142D01*
X167281123Y-95014142D02*
X167281123Y-94776047D01*
X167281123Y-94776047D02*
X167233504Y-94680809D01*
X167233504Y-94680809D02*
X167185885Y-94633190D01*
X167185885Y-94633190D02*
X167090647Y-94585571D01*
X167090647Y-94585571D02*
X166900171Y-94585571D01*
X166900171Y-94585571D02*
X166804933Y-94633190D01*
X166804933Y-94633190D02*
X166757314Y-94680809D01*
X166757314Y-94680809D02*
X166709695Y-94776047D01*
D11*
%TO.C,R11*%
X161471428Y-92894210D02*
X161302094Y-92652305D01*
X161181142Y-92894210D02*
X161181142Y-92386210D01*
X161181142Y-92386210D02*
X161374666Y-92386210D01*
X161374666Y-92386210D02*
X161423047Y-92410400D01*
X161423047Y-92410400D02*
X161447237Y-92434591D01*
X161447237Y-92434591D02*
X161471428Y-92482972D01*
X161471428Y-92482972D02*
X161471428Y-92555543D01*
X161471428Y-92555543D02*
X161447237Y-92603924D01*
X161447237Y-92603924D02*
X161423047Y-92628115D01*
X161423047Y-92628115D02*
X161374666Y-92652305D01*
X161374666Y-92652305D02*
X161181142Y-92652305D01*
X161955237Y-92894210D02*
X161664951Y-92894210D01*
X161810094Y-92894210D02*
X161810094Y-92386210D01*
X161810094Y-92386210D02*
X161761713Y-92458781D01*
X161761713Y-92458781D02*
X161713332Y-92507162D01*
X161713332Y-92507162D02*
X161664951Y-92531353D01*
X162439047Y-92894210D02*
X162148761Y-92894210D01*
X162293904Y-92894210D02*
X162293904Y-92386210D01*
X162293904Y-92386210D02*
X162245523Y-92458781D01*
X162245523Y-92458781D02*
X162197142Y-92507162D01*
X162197142Y-92507162D02*
X162148761Y-92531353D01*
D10*
%TO.C,P4*%
X110051505Y-80447219D02*
X110051505Y-79447219D01*
X110051505Y-79447219D02*
X110432457Y-79447219D01*
X110432457Y-79447219D02*
X110527695Y-79494838D01*
X110527695Y-79494838D02*
X110575314Y-79542457D01*
X110575314Y-79542457D02*
X110622933Y-79637695D01*
X110622933Y-79637695D02*
X110622933Y-79780552D01*
X110622933Y-79780552D02*
X110575314Y-79875790D01*
X110575314Y-79875790D02*
X110527695Y-79923409D01*
X110527695Y-79923409D02*
X110432457Y-79971028D01*
X110432457Y-79971028D02*
X110051505Y-79971028D01*
X111480076Y-79780552D02*
X111480076Y-80447219D01*
X111241981Y-79399600D02*
X111003886Y-80113885D01*
X111003886Y-80113885D02*
X111622933Y-80113885D01*
D11*
%TO.C,R12*%
X124362028Y-77171610D02*
X124192694Y-76929705D01*
X124071742Y-77171610D02*
X124071742Y-76663610D01*
X124071742Y-76663610D02*
X124265266Y-76663610D01*
X124265266Y-76663610D02*
X124313647Y-76687800D01*
X124313647Y-76687800D02*
X124337837Y-76711991D01*
X124337837Y-76711991D02*
X124362028Y-76760372D01*
X124362028Y-76760372D02*
X124362028Y-76832943D01*
X124362028Y-76832943D02*
X124337837Y-76881324D01*
X124337837Y-76881324D02*
X124313647Y-76905515D01*
X124313647Y-76905515D02*
X124265266Y-76929705D01*
X124265266Y-76929705D02*
X124071742Y-76929705D01*
X124845837Y-77171610D02*
X124555551Y-77171610D01*
X124700694Y-77171610D02*
X124700694Y-76663610D01*
X124700694Y-76663610D02*
X124652313Y-76736181D01*
X124652313Y-76736181D02*
X124603932Y-76784562D01*
X124603932Y-76784562D02*
X124555551Y-76808753D01*
X125039361Y-76711991D02*
X125063552Y-76687800D01*
X125063552Y-76687800D02*
X125111933Y-76663610D01*
X125111933Y-76663610D02*
X125232885Y-76663610D01*
X125232885Y-76663610D02*
X125281266Y-76687800D01*
X125281266Y-76687800D02*
X125305457Y-76711991D01*
X125305457Y-76711991D02*
X125329647Y-76760372D01*
X125329647Y-76760372D02*
X125329647Y-76808753D01*
X125329647Y-76808753D02*
X125305457Y-76881324D01*
X125305457Y-76881324D02*
X125015171Y-77171610D01*
X125015171Y-77171610D02*
X125329647Y-77171610D01*
%TO.C,R10*%
X126470428Y-75038010D02*
X126301094Y-74796105D01*
X126180142Y-75038010D02*
X126180142Y-74530010D01*
X126180142Y-74530010D02*
X126373666Y-74530010D01*
X126373666Y-74530010D02*
X126422047Y-74554200D01*
X126422047Y-74554200D02*
X126446237Y-74578391D01*
X126446237Y-74578391D02*
X126470428Y-74626772D01*
X126470428Y-74626772D02*
X126470428Y-74699343D01*
X126470428Y-74699343D02*
X126446237Y-74747724D01*
X126446237Y-74747724D02*
X126422047Y-74771915D01*
X126422047Y-74771915D02*
X126373666Y-74796105D01*
X126373666Y-74796105D02*
X126180142Y-74796105D01*
X126954237Y-75038010D02*
X126663951Y-75038010D01*
X126809094Y-75038010D02*
X126809094Y-74530010D01*
X126809094Y-74530010D02*
X126760713Y-74602581D01*
X126760713Y-74602581D02*
X126712332Y-74650962D01*
X126712332Y-74650962D02*
X126663951Y-74675153D01*
X127268714Y-74530010D02*
X127317095Y-74530010D01*
X127317095Y-74530010D02*
X127365476Y-74554200D01*
X127365476Y-74554200D02*
X127389666Y-74578391D01*
X127389666Y-74578391D02*
X127413857Y-74626772D01*
X127413857Y-74626772D02*
X127438047Y-74723534D01*
X127438047Y-74723534D02*
X127438047Y-74844486D01*
X127438047Y-74844486D02*
X127413857Y-74941248D01*
X127413857Y-74941248D02*
X127389666Y-74989629D01*
X127389666Y-74989629D02*
X127365476Y-75013820D01*
X127365476Y-75013820D02*
X127317095Y-75038010D01*
X127317095Y-75038010D02*
X127268714Y-75038010D01*
X127268714Y-75038010D02*
X127220333Y-75013820D01*
X127220333Y-75013820D02*
X127196142Y-74989629D01*
X127196142Y-74989629D02*
X127171952Y-74941248D01*
X127171952Y-74941248D02*
X127147761Y-74844486D01*
X127147761Y-74844486D02*
X127147761Y-74723534D01*
X127147761Y-74723534D02*
X127171952Y-74626772D01*
X127171952Y-74626772D02*
X127196142Y-74578391D01*
X127196142Y-74578391D02*
X127220333Y-74554200D01*
X127220333Y-74554200D02*
X127268714Y-74530010D01*
%TO.C,C4*%
X140936133Y-96046229D02*
X140911942Y-96070420D01*
X140911942Y-96070420D02*
X140839371Y-96094610D01*
X140839371Y-96094610D02*
X140790990Y-96094610D01*
X140790990Y-96094610D02*
X140718418Y-96070420D01*
X140718418Y-96070420D02*
X140670037Y-96022039D01*
X140670037Y-96022039D02*
X140645847Y-95973658D01*
X140645847Y-95973658D02*
X140621656Y-95876896D01*
X140621656Y-95876896D02*
X140621656Y-95804324D01*
X140621656Y-95804324D02*
X140645847Y-95707562D01*
X140645847Y-95707562D02*
X140670037Y-95659181D01*
X140670037Y-95659181D02*
X140718418Y-95610800D01*
X140718418Y-95610800D02*
X140790990Y-95586610D01*
X140790990Y-95586610D02*
X140839371Y-95586610D01*
X140839371Y-95586610D02*
X140911942Y-95610800D01*
X140911942Y-95610800D02*
X140936133Y-95634991D01*
X141371561Y-95755943D02*
X141371561Y-96094610D01*
X141250609Y-95562420D02*
X141129656Y-95925277D01*
X141129656Y-95925277D02*
X141444133Y-95925277D01*
%TO.C,D3*%
X158324247Y-75520610D02*
X158324247Y-75012610D01*
X158324247Y-75012610D02*
X158445199Y-75012610D01*
X158445199Y-75012610D02*
X158517771Y-75036800D01*
X158517771Y-75036800D02*
X158566152Y-75085181D01*
X158566152Y-75085181D02*
X158590342Y-75133562D01*
X158590342Y-75133562D02*
X158614533Y-75230324D01*
X158614533Y-75230324D02*
X158614533Y-75302896D01*
X158614533Y-75302896D02*
X158590342Y-75399658D01*
X158590342Y-75399658D02*
X158566152Y-75448039D01*
X158566152Y-75448039D02*
X158517771Y-75496420D01*
X158517771Y-75496420D02*
X158445199Y-75520610D01*
X158445199Y-75520610D02*
X158324247Y-75520610D01*
X158783866Y-75012610D02*
X159098342Y-75012610D01*
X159098342Y-75012610D02*
X158929009Y-75206134D01*
X158929009Y-75206134D02*
X159001580Y-75206134D01*
X159001580Y-75206134D02*
X159049961Y-75230324D01*
X159049961Y-75230324D02*
X159074152Y-75254515D01*
X159074152Y-75254515D02*
X159098342Y-75302896D01*
X159098342Y-75302896D02*
X159098342Y-75423848D01*
X159098342Y-75423848D02*
X159074152Y-75472229D01*
X159074152Y-75472229D02*
X159049961Y-75496420D01*
X159049961Y-75496420D02*
X159001580Y-75520610D01*
X159001580Y-75520610D02*
X158856437Y-75520610D01*
X158856437Y-75520610D02*
X158808056Y-75496420D01*
X158808056Y-75496420D02*
X158783866Y-75472229D01*
D14*
%TO.C,Y1*%
X126364621Y-83534074D02*
X126364621Y-83763053D01*
X126204335Y-83282197D02*
X126364621Y-83534074D01*
X126364621Y-83534074D02*
X126524906Y-83282197D01*
X126937068Y-83763053D02*
X126662293Y-83763053D01*
X126799681Y-83763053D02*
X126799681Y-83282197D01*
X126799681Y-83282197D02*
X126753885Y-83350891D01*
X126753885Y-83350891D02*
X126708089Y-83396687D01*
X126708089Y-83396687D02*
X126662293Y-83419585D01*
D11*
%TO.C,R14*%
X115345028Y-86722010D02*
X115175694Y-86480105D01*
X115054742Y-86722010D02*
X115054742Y-86214010D01*
X115054742Y-86214010D02*
X115248266Y-86214010D01*
X115248266Y-86214010D02*
X115296647Y-86238200D01*
X115296647Y-86238200D02*
X115320837Y-86262391D01*
X115320837Y-86262391D02*
X115345028Y-86310772D01*
X115345028Y-86310772D02*
X115345028Y-86383343D01*
X115345028Y-86383343D02*
X115320837Y-86431724D01*
X115320837Y-86431724D02*
X115296647Y-86455915D01*
X115296647Y-86455915D02*
X115248266Y-86480105D01*
X115248266Y-86480105D02*
X115054742Y-86480105D01*
X115828837Y-86722010D02*
X115538551Y-86722010D01*
X115683694Y-86722010D02*
X115683694Y-86214010D01*
X115683694Y-86214010D02*
X115635313Y-86286581D01*
X115635313Y-86286581D02*
X115586932Y-86334962D01*
X115586932Y-86334962D02*
X115538551Y-86359153D01*
X116264266Y-86383343D02*
X116264266Y-86722010D01*
X116143314Y-86189820D02*
X116022361Y-86552677D01*
X116022361Y-86552677D02*
X116336838Y-86552677D01*
%TO.C,C16*%
X123803228Y-98814829D02*
X123779037Y-98839020D01*
X123779037Y-98839020D02*
X123706466Y-98863210D01*
X123706466Y-98863210D02*
X123658085Y-98863210D01*
X123658085Y-98863210D02*
X123585513Y-98839020D01*
X123585513Y-98839020D02*
X123537132Y-98790639D01*
X123537132Y-98790639D02*
X123512942Y-98742258D01*
X123512942Y-98742258D02*
X123488751Y-98645496D01*
X123488751Y-98645496D02*
X123488751Y-98572924D01*
X123488751Y-98572924D02*
X123512942Y-98476162D01*
X123512942Y-98476162D02*
X123537132Y-98427781D01*
X123537132Y-98427781D02*
X123585513Y-98379400D01*
X123585513Y-98379400D02*
X123658085Y-98355210D01*
X123658085Y-98355210D02*
X123706466Y-98355210D01*
X123706466Y-98355210D02*
X123779037Y-98379400D01*
X123779037Y-98379400D02*
X123803228Y-98403591D01*
X124287037Y-98863210D02*
X123996751Y-98863210D01*
X124141894Y-98863210D02*
X124141894Y-98355210D01*
X124141894Y-98355210D02*
X124093513Y-98427781D01*
X124093513Y-98427781D02*
X124045132Y-98476162D01*
X124045132Y-98476162D02*
X123996751Y-98500353D01*
X124722466Y-98355210D02*
X124625704Y-98355210D01*
X124625704Y-98355210D02*
X124577323Y-98379400D01*
X124577323Y-98379400D02*
X124553133Y-98403591D01*
X124553133Y-98403591D02*
X124504752Y-98476162D01*
X124504752Y-98476162D02*
X124480561Y-98572924D01*
X124480561Y-98572924D02*
X124480561Y-98766448D01*
X124480561Y-98766448D02*
X124504752Y-98814829D01*
X124504752Y-98814829D02*
X124528942Y-98839020D01*
X124528942Y-98839020D02*
X124577323Y-98863210D01*
X124577323Y-98863210D02*
X124674085Y-98863210D01*
X124674085Y-98863210D02*
X124722466Y-98839020D01*
X124722466Y-98839020D02*
X124746657Y-98814829D01*
X124746657Y-98814829D02*
X124770847Y-98766448D01*
X124770847Y-98766448D02*
X124770847Y-98645496D01*
X124770847Y-98645496D02*
X124746657Y-98597115D01*
X124746657Y-98597115D02*
X124722466Y-98572924D01*
X124722466Y-98572924D02*
X124674085Y-98548734D01*
X124674085Y-98548734D02*
X124577323Y-98548734D01*
X124577323Y-98548734D02*
X124528942Y-98572924D01*
X124528942Y-98572924D02*
X124504752Y-98597115D01*
X124504752Y-98597115D02*
X124480561Y-98645496D01*
%TO.C,R19*%
X101044828Y-76358810D02*
X100875494Y-76116905D01*
X100754542Y-76358810D02*
X100754542Y-75850810D01*
X100754542Y-75850810D02*
X100948066Y-75850810D01*
X100948066Y-75850810D02*
X100996447Y-75875000D01*
X100996447Y-75875000D02*
X101020637Y-75899191D01*
X101020637Y-75899191D02*
X101044828Y-75947572D01*
X101044828Y-75947572D02*
X101044828Y-76020143D01*
X101044828Y-76020143D02*
X101020637Y-76068524D01*
X101020637Y-76068524D02*
X100996447Y-76092715D01*
X100996447Y-76092715D02*
X100948066Y-76116905D01*
X100948066Y-76116905D02*
X100754542Y-76116905D01*
X101528637Y-76358810D02*
X101238351Y-76358810D01*
X101383494Y-76358810D02*
X101383494Y-75850810D01*
X101383494Y-75850810D02*
X101335113Y-75923381D01*
X101335113Y-75923381D02*
X101286732Y-75971762D01*
X101286732Y-75971762D02*
X101238351Y-75995953D01*
X101770542Y-76358810D02*
X101867304Y-76358810D01*
X101867304Y-76358810D02*
X101915685Y-76334620D01*
X101915685Y-76334620D02*
X101939876Y-76310429D01*
X101939876Y-76310429D02*
X101988257Y-76237858D01*
X101988257Y-76237858D02*
X102012447Y-76141096D01*
X102012447Y-76141096D02*
X102012447Y-75947572D01*
X102012447Y-75947572D02*
X101988257Y-75899191D01*
X101988257Y-75899191D02*
X101964066Y-75875000D01*
X101964066Y-75875000D02*
X101915685Y-75850810D01*
X101915685Y-75850810D02*
X101818923Y-75850810D01*
X101818923Y-75850810D02*
X101770542Y-75875000D01*
X101770542Y-75875000D02*
X101746352Y-75899191D01*
X101746352Y-75899191D02*
X101722161Y-75947572D01*
X101722161Y-75947572D02*
X101722161Y-76068524D01*
X101722161Y-76068524D02*
X101746352Y-76116905D01*
X101746352Y-76116905D02*
X101770542Y-76141096D01*
X101770542Y-76141096D02*
X101818923Y-76165286D01*
X101818923Y-76165286D02*
X101915685Y-76165286D01*
X101915685Y-76165286D02*
X101964066Y-76141096D01*
X101964066Y-76141096D02*
X101988257Y-76116905D01*
X101988257Y-76116905D02*
X102012447Y-76068524D01*
%TO.C,C8*%
X128007533Y-89086629D02*
X127983342Y-89110820D01*
X127983342Y-89110820D02*
X127910771Y-89135010D01*
X127910771Y-89135010D02*
X127862390Y-89135010D01*
X127862390Y-89135010D02*
X127789818Y-89110820D01*
X127789818Y-89110820D02*
X127741437Y-89062439D01*
X127741437Y-89062439D02*
X127717247Y-89014058D01*
X127717247Y-89014058D02*
X127693056Y-88917296D01*
X127693056Y-88917296D02*
X127693056Y-88844724D01*
X127693056Y-88844724D02*
X127717247Y-88747962D01*
X127717247Y-88747962D02*
X127741437Y-88699581D01*
X127741437Y-88699581D02*
X127789818Y-88651200D01*
X127789818Y-88651200D02*
X127862390Y-88627010D01*
X127862390Y-88627010D02*
X127910771Y-88627010D01*
X127910771Y-88627010D02*
X127983342Y-88651200D01*
X127983342Y-88651200D02*
X128007533Y-88675391D01*
X128297818Y-88844724D02*
X128249437Y-88820534D01*
X128249437Y-88820534D02*
X128225247Y-88796343D01*
X128225247Y-88796343D02*
X128201056Y-88747962D01*
X128201056Y-88747962D02*
X128201056Y-88723772D01*
X128201056Y-88723772D02*
X128225247Y-88675391D01*
X128225247Y-88675391D02*
X128249437Y-88651200D01*
X128249437Y-88651200D02*
X128297818Y-88627010D01*
X128297818Y-88627010D02*
X128394580Y-88627010D01*
X128394580Y-88627010D02*
X128442961Y-88651200D01*
X128442961Y-88651200D02*
X128467152Y-88675391D01*
X128467152Y-88675391D02*
X128491342Y-88723772D01*
X128491342Y-88723772D02*
X128491342Y-88747962D01*
X128491342Y-88747962D02*
X128467152Y-88796343D01*
X128467152Y-88796343D02*
X128442961Y-88820534D01*
X128442961Y-88820534D02*
X128394580Y-88844724D01*
X128394580Y-88844724D02*
X128297818Y-88844724D01*
X128297818Y-88844724D02*
X128249437Y-88868915D01*
X128249437Y-88868915D02*
X128225247Y-88893105D01*
X128225247Y-88893105D02*
X128201056Y-88941486D01*
X128201056Y-88941486D02*
X128201056Y-89038248D01*
X128201056Y-89038248D02*
X128225247Y-89086629D01*
X128225247Y-89086629D02*
X128249437Y-89110820D01*
X128249437Y-89110820D02*
X128297818Y-89135010D01*
X128297818Y-89135010D02*
X128394580Y-89135010D01*
X128394580Y-89135010D02*
X128442961Y-89110820D01*
X128442961Y-89110820D02*
X128467152Y-89086629D01*
X128467152Y-89086629D02*
X128491342Y-89038248D01*
X128491342Y-89038248D02*
X128491342Y-88941486D01*
X128491342Y-88941486D02*
X128467152Y-88893105D01*
X128467152Y-88893105D02*
X128442961Y-88868915D01*
X128442961Y-88868915D02*
X128394580Y-88844724D01*
D12*
%TO.C,Q5*%
X123802019Y-90529591D02*
X123753638Y-90505400D01*
X123753638Y-90505400D02*
X123705257Y-90457020D01*
X123705257Y-90457020D02*
X123632685Y-90384448D01*
X123632685Y-90384448D02*
X123584304Y-90360258D01*
X123584304Y-90360258D02*
X123535923Y-90360258D01*
X123560114Y-90481210D02*
X123511733Y-90457020D01*
X123511733Y-90457020D02*
X123463352Y-90408639D01*
X123463352Y-90408639D02*
X123439161Y-90311877D01*
X123439161Y-90311877D02*
X123439161Y-90142543D01*
X123439161Y-90142543D02*
X123463352Y-90045781D01*
X123463352Y-90045781D02*
X123511733Y-89997400D01*
X123511733Y-89997400D02*
X123560114Y-89973210D01*
X123560114Y-89973210D02*
X123656876Y-89973210D01*
X123656876Y-89973210D02*
X123705257Y-89997400D01*
X123705257Y-89997400D02*
X123753638Y-90045781D01*
X123753638Y-90045781D02*
X123777828Y-90142543D01*
X123777828Y-90142543D02*
X123777828Y-90311877D01*
X123777828Y-90311877D02*
X123753638Y-90408639D01*
X123753638Y-90408639D02*
X123705257Y-90457020D01*
X123705257Y-90457020D02*
X123656876Y-90481210D01*
X123656876Y-90481210D02*
X123560114Y-90481210D01*
X124237447Y-89973210D02*
X123995542Y-89973210D01*
X123995542Y-89973210D02*
X123971351Y-90215115D01*
X123971351Y-90215115D02*
X123995542Y-90190924D01*
X123995542Y-90190924D02*
X124043923Y-90166734D01*
X124043923Y-90166734D02*
X124164875Y-90166734D01*
X124164875Y-90166734D02*
X124213256Y-90190924D01*
X124213256Y-90190924D02*
X124237447Y-90215115D01*
X124237447Y-90215115D02*
X124261637Y-90263496D01*
X124261637Y-90263496D02*
X124261637Y-90384448D01*
X124261637Y-90384448D02*
X124237447Y-90432829D01*
X124237447Y-90432829D02*
X124213256Y-90457020D01*
X124213256Y-90457020D02*
X124164875Y-90481210D01*
X124164875Y-90481210D02*
X124043923Y-90481210D01*
X124043923Y-90481210D02*
X123995542Y-90457020D01*
X123995542Y-90457020D02*
X123971351Y-90432829D01*
%TO.C,U4*%
X131038550Y-98064400D02*
X131038550Y-98465400D01*
X131038550Y-100106400D02*
X131038550Y-99705400D01*
X131439550Y-98064400D02*
X131038550Y-98064400D01*
X131439550Y-100106400D02*
X131038550Y-100106400D01*
X132679550Y-98064400D02*
X133080550Y-98064400D01*
X132679550Y-100106400D02*
X133080550Y-100106400D01*
X133080550Y-98064400D02*
X133080550Y-98465400D01*
X133080550Y-100106400D02*
X133080550Y-99705400D01*
D10*
X130834550Y-98485400D02*
G75*
G03*
X130834550Y-98485400I-75000J0D01*
G01*
D12*
%TO.C,C7*%
X145722400Y-77986000D02*
X145722400Y-78986000D01*
X146682400Y-78986000D02*
X146682400Y-77986000D01*
D15*
%TO.C,U7*%
X145161000Y-95472450D02*
X145161000Y-95793525D01*
X145161000Y-100815575D02*
X145161000Y-101136650D01*
X145161000Y-101136650D02*
X150799800Y-101136650D01*
X150799800Y-95472450D02*
X145161000Y-95472450D01*
X150799800Y-95793525D02*
X150799800Y-95472450D01*
X150799800Y-101136650D02*
X150799800Y-100815575D01*
D16*
X143256000Y-96399550D02*
G75*
G03*
X143256000Y-96399550I-101600J0D01*
G01*
D17*
%TO.C,Q10*%
X104259200Y-85151600D02*
X104259200Y-86157451D01*
X104928060Y-85151600D02*
X104259200Y-85151600D01*
X105344339Y-86755600D02*
X105628061Y-86755600D01*
X106713200Y-85151600D02*
X106044340Y-85151600D01*
X106713200Y-86157451D02*
X106713200Y-85151600D01*
D18*
%TO.C,D1*%
X135393900Y-98080600D02*
G75*
G03*
X135393900Y-98080600I-100000J0D01*
G01*
D12*
%TO.C,C23*%
X108968600Y-82304000D02*
X108968600Y-83304000D01*
X109928600Y-83304000D02*
X109928600Y-82304000D01*
%TO.C,C21*%
X118996400Y-90670000D02*
X118996400Y-89670000D01*
X118036400Y-89670000D02*
X118036400Y-90670000D01*
D15*
%TO.C,D5*%
X131546600Y-71704200D02*
X131546600Y-72466200D01*
X131572000Y-72085200D02*
X131165600Y-72085200D01*
X132029200Y-71704200D02*
X131546600Y-72085200D01*
X132029200Y-71704200D02*
X132029200Y-72415400D01*
X132029200Y-72415400D02*
X131546600Y-72085200D01*
X132486400Y-72085200D02*
X132080000Y-72085200D01*
%TO.C,P5*%
D19*
X110866900Y-98066201D02*
G75*
G03*
X110866900Y-98066201I-317500J0D01*
G01*
D17*
X122976399Y-99611201D02*
X122976399Y-92057200D01*
X122976399Y-92057200D02*
X108722401Y-92057200D01*
X108722401Y-99611201D02*
X122976399Y-99611201D01*
X108722401Y-92057200D02*
X108722401Y-99611201D01*
D15*
%TO.C,Q4*%
X111442500Y-84836000D02*
X113296700Y-84836000D01*
X113296700Y-81686400D02*
X111442500Y-81686400D01*
X113296700Y-83675261D02*
X113296700Y-82847139D01*
D12*
%TO.C,C3*%
X132173600Y-95684400D02*
X131173600Y-95684400D01*
X131173600Y-96644400D02*
X132173600Y-96644400D01*
%TO.C,C12*%
X122887800Y-83955000D02*
X122887800Y-84955000D01*
X123847800Y-84955000D02*
X123847800Y-83955000D01*
%TO.C,C19*%
X166169400Y-88679400D02*
X166169400Y-89679400D01*
X167129400Y-89679400D02*
X167129400Y-88679400D01*
D15*
%TO.C,D4*%
X104292400Y-95859600D02*
X104292400Y-95097600D01*
X104267000Y-95478600D02*
X104673400Y-95478600D01*
X103809800Y-95859600D02*
X104292400Y-95478600D01*
X103809800Y-95859600D02*
X103809800Y-95148400D01*
X103809800Y-95148400D02*
X104292400Y-95478600D01*
X103352600Y-95478600D02*
X103759000Y-95478600D01*
D12*
%TO.C,C1*%
X133906200Y-77284200D02*
X133906200Y-76284200D01*
X132946200Y-76284200D02*
X132946200Y-77284200D01*
D17*
%TO.C,Q8*%
X104201600Y-92921000D02*
X105207451Y-92921000D01*
X104201600Y-92252140D02*
X104201600Y-92921000D01*
X105805600Y-91835861D02*
X105805600Y-91552139D01*
X104201600Y-90467000D02*
X104201600Y-91135860D01*
X105207451Y-90467000D02*
X104201600Y-90467000D01*
D12*
%TO.C,C15*%
X123675200Y-94750000D02*
X123675200Y-95750000D01*
X124635200Y-95750000D02*
X124635200Y-94750000D01*
D17*
%TO.C,P2*%
X100736400Y-96202500D02*
X100736400Y-100952300D01*
X100736400Y-100952300D02*
X106883200Y-100952300D01*
X106883200Y-96202500D02*
X100736400Y-96202500D01*
X106883200Y-100952300D02*
X106883200Y-96202500D01*
D20*
X105063800Y-97859499D02*
G75*
G03*
X105063800Y-97859499I-254000J0D01*
G01*
D12*
%TO.C,C11*%
X106403000Y-82608000D02*
X106703000Y-82608000D01*
X106403000Y-83508000D02*
X106703000Y-83508000D01*
D15*
%TO.C,Q1*%
X109943900Y-88366600D02*
X108089700Y-88366600D01*
X108089700Y-91516200D02*
X109943900Y-91516200D01*
X108089700Y-89527339D02*
X108089700Y-90355461D01*
%TO.C,D2*%
X107010200Y-93091000D02*
X107010200Y-93853000D01*
X107035600Y-93472000D02*
X106629200Y-93472000D01*
X107492800Y-93091000D02*
X107010200Y-93472000D01*
X107492800Y-93091000D02*
X107492800Y-93802200D01*
X107492800Y-93802200D02*
X107010200Y-93472000D01*
X107950000Y-93472000D02*
X107543600Y-93472000D01*
D12*
%TO.C,U2*%
X104871200Y-77226600D02*
X107371200Y-77226600D01*
X104871200Y-77366600D02*
X104871200Y-77226600D01*
X104871200Y-81726600D02*
X104871200Y-81586600D01*
X104871200Y-81726600D02*
X107371200Y-81726600D01*
X107371200Y-78176600D02*
X107371200Y-77226600D01*
X107371200Y-80776600D02*
X107371200Y-81726600D01*
D18*
X103221200Y-77976600D02*
G75*
G03*
X103221200Y-77976600I-100000J0D01*
G01*
D12*
%TO.C,C25*%
X155659200Y-75206800D02*
X156659200Y-75206800D01*
X156659200Y-74246800D02*
X155659200Y-74246800D01*
%TO.C,U1*%
X131206100Y-79615600D02*
X131976100Y-79615600D01*
X131206100Y-80385600D02*
X131206100Y-79615600D01*
X131206100Y-93815600D02*
X131206100Y-93045600D01*
X131976100Y-93815600D02*
X131206100Y-93815600D01*
X144636100Y-79615600D02*
X145406100Y-79615600D01*
X145406100Y-79615600D02*
X145406100Y-80385600D01*
X145406100Y-93045600D02*
X145406100Y-93815600D01*
X145406100Y-93815600D02*
X144636100Y-93815600D01*
D18*
X129306100Y-80715600D02*
G75*
G03*
X129306100Y-80715600I-100000J0D01*
G01*
D12*
%TO.C,C13*%
X105463200Y-74937200D02*
X105763200Y-74937200D01*
X105463200Y-75837200D02*
X105763200Y-75837200D01*
%TO.C,C2*%
X128490600Y-85092600D02*
X127490600Y-85092600D01*
X127490600Y-86052600D02*
X128490600Y-86052600D01*
%TO.C,BZ1*%
X150317200Y-86715600D02*
X151587200Y-86715600D01*
X150952200Y-86080600D02*
X150952200Y-87350600D01*
X157988000Y-86868000D02*
X159258000Y-86868000D01*
X161763800Y-88696800D02*
G75*
G03*
X161763800Y-88696800I-6900000J0D01*
G01*
%TO.C,C5*%
X141887000Y-96629600D02*
X141887000Y-97629600D01*
X142847000Y-97629600D02*
X142847000Y-96629600D01*
D17*
%TO.C,P3*%
X102706801Y-79239999D02*
X95152800Y-79239999D01*
X95152800Y-79239999D02*
X95152800Y-93493997D01*
X102706801Y-93493997D02*
X102706801Y-79239999D01*
X95152800Y-93493997D02*
X102706801Y-93493997D01*
D19*
X97015300Y-81066998D02*
G75*
G03*
X97015300Y-81066998I-317500J0D01*
G01*
D15*
%TO.C,D6*%
X157073600Y-78600300D02*
X157073600Y-80606900D01*
X160375600Y-80606900D02*
X160375600Y-78600300D01*
X158386739Y-80606900D02*
X159062461Y-80606900D01*
D21*
X159920205Y-76809600D02*
G75*
G03*
X159920205Y-76809600I-179605J0D01*
G01*
D12*
%TO.C,P6*%
X163176500Y-86250000D02*
X164931500Y-86250000D01*
X163176500Y-86250000D02*
X163176500Y-86070000D01*
X167476500Y-86250000D02*
X167206500Y-86250000D01*
X167476500Y-86250000D02*
X167476500Y-78850000D01*
X163176500Y-78850000D02*
X163176500Y-79030000D01*
X163176500Y-78850000D02*
X164931500Y-78850000D01*
X167206500Y-78850000D02*
X167476500Y-78850000D01*
D18*
X162026500Y-83900000D02*
G75*
G03*
X162026500Y-83900000I-100000J0D01*
G01*
D12*
%TO.C,C10*%
X128211200Y-90706000D02*
X127211200Y-90706000D01*
X127211200Y-91666000D02*
X128211200Y-91666000D01*
%TO.C,C14*%
X125595000Y-86438800D02*
X124595000Y-86438800D01*
X124595000Y-87398800D02*
X125595000Y-87398800D01*
D17*
%TO.C,Q9*%
X159069400Y-97426600D02*
X158063549Y-97426600D01*
X159069400Y-98095460D02*
X159069400Y-97426600D01*
X157465400Y-98511739D02*
X157465400Y-98795461D01*
X159069400Y-99880600D02*
X159069400Y-99211740D01*
X158063549Y-99880600D02*
X159069400Y-99880600D01*
D12*
%TO.C,C22*%
X115140800Y-82431000D02*
X115140800Y-83431000D01*
X116100800Y-83431000D02*
X116100800Y-82431000D01*
D17*
%TO.C,Q7*%
X101026600Y-75293400D02*
X102032451Y-75293400D01*
X101026600Y-74624540D02*
X101026600Y-75293400D01*
X102630600Y-74208261D02*
X102630600Y-73924539D01*
X101026600Y-72839400D02*
X101026600Y-73508260D01*
X102032451Y-72839400D02*
X101026600Y-72839400D01*
D12*
%TO.C,U5*%
X125873500Y-77663800D02*
X126166000Y-77663800D01*
X125873500Y-77706300D02*
X125873500Y-77663800D01*
X125873500Y-79663800D02*
X125873500Y-79621300D01*
X125873500Y-79663800D02*
X126166000Y-79663800D01*
X127581000Y-77663800D02*
X127873500Y-77663800D01*
X127873500Y-77663800D02*
X127873500Y-77706300D01*
X127873500Y-79621300D02*
X127873500Y-79663800D01*
X127873500Y-79663800D02*
X127581000Y-79663800D01*
D18*
X127912800Y-77139800D02*
G75*
G03*
X127912800Y-77139800I-100000J0D01*
G01*
D12*
%TO.C,U8*%
X154568400Y-79490250D02*
X154568400Y-79093800D01*
X154568400Y-75593800D02*
X154568400Y-74843800D01*
X154568400Y-74843800D02*
X153818400Y-74843800D01*
X154214850Y-79843800D02*
X154568400Y-79490250D01*
X153818400Y-79843800D02*
X154214850Y-79843800D01*
X150318400Y-79843800D02*
X149568400Y-79843800D01*
X150318400Y-74843800D02*
X149568400Y-74843800D01*
X149568400Y-79843800D02*
X149568400Y-79093800D01*
X149568400Y-74843800D02*
X149568400Y-75593800D01*
D20*
X155874400Y-79629800D02*
G75*
G03*
X155874400Y-79629800I-250000J0D01*
G01*
D12*
%TO.C,C6*%
X131868800Y-76710600D02*
X130868800Y-76710600D01*
X130868800Y-77670600D02*
X131868800Y-77670600D01*
D15*
%TO.C,U3*%
X127889000Y-94693709D02*
X127686982Y-94693709D01*
X125449418Y-94693709D02*
X125247400Y-94693709D01*
X125247400Y-94693709D02*
X125247400Y-95403419D01*
X127889000Y-95403419D02*
X127889000Y-94693709D01*
X125247400Y-97235199D02*
X125247400Y-97944909D01*
X127889000Y-97944909D02*
X127889000Y-97235199D01*
X127686982Y-97944909D02*
X127889000Y-97944909D01*
X125247400Y-97944909D02*
X125449418Y-97944909D01*
D22*
X127505209Y-94279309D02*
G75*
G03*
X127505209Y-94279309I-87009J0D01*
G01*
D23*
X127008700Y-98224309D02*
X126627699Y-98224309D01*
X126627699Y-97970309D01*
X127008700Y-97970309D01*
X127008700Y-98224309D01*
G36*
X127008700Y-98224309D02*
G01*
X126627699Y-98224309D01*
X126627699Y-97970309D01*
X127008700Y-97970309D01*
X127008700Y-98224309D01*
G37*
D15*
%TO.C,Q3*%
X117640100Y-84861400D02*
X119494300Y-84861400D01*
X119494300Y-81711800D02*
X117640100Y-81711800D01*
X119494300Y-83700661D02*
X119494300Y-82872539D01*
D12*
%TO.C,C18*%
X126398400Y-81302800D02*
X127398400Y-81302800D01*
X127398400Y-80342800D02*
X126398400Y-80342800D01*
%TO.C,C17*%
X129486600Y-77462000D02*
X129486600Y-76462000D01*
X128526600Y-76462000D02*
X128526600Y-77462000D01*
D24*
%TO.C,P1*%
X145501000Y-75316400D02*
X135991000Y-75316400D01*
X145501000Y-71916400D02*
X145501000Y-75316400D01*
X135991000Y-75316400D02*
X135991000Y-71916400D01*
X135991000Y-71916400D02*
X145501000Y-71916400D01*
D25*
X136555000Y-72415400D02*
X136301000Y-72415400D01*
X136428000Y-72161400D01*
X136555000Y-72415400D01*
G36*
X136555000Y-72415400D02*
G01*
X136301000Y-72415400D01*
X136428000Y-72161400D01*
X136555000Y-72415400D01*
G37*
D12*
%TO.C,C9*%
X148587400Y-82161000D02*
X148587400Y-81161000D01*
X147627400Y-81161000D02*
X147627400Y-82161000D01*
D17*
%TO.C,Q6*%
X121198000Y-85945800D02*
X120192149Y-85945800D01*
X121198000Y-86614660D02*
X121198000Y-85945800D01*
X119594000Y-87030939D02*
X119594000Y-87314661D01*
X121198000Y-88399800D02*
X121198000Y-87730940D01*
X120192149Y-88399800D02*
X121198000Y-88399800D01*
D12*
%TO.C,C24*%
X154683400Y-73677400D02*
X154683400Y-72677400D01*
X153723400Y-72677400D02*
X153723400Y-73677400D01*
D15*
%TO.C,Q2*%
X116497100Y-88265000D02*
X114642900Y-88265000D01*
X114642900Y-91414600D02*
X116497100Y-91414600D01*
X114642900Y-89425739D02*
X114642900Y-90253861D01*
D12*
%TO.C,C20*%
X112367000Y-90670000D02*
X112367000Y-89670000D01*
X111407000Y-89670000D02*
X111407000Y-90670000D01*
%TO.C,U6*%
X166168200Y-90600400D02*
X166168200Y-91100400D01*
X163168200Y-90600400D02*
X163168200Y-91100400D01*
X166168200Y-93600400D02*
X166168200Y-93100400D01*
X163168200Y-93600400D02*
X163168200Y-93100400D01*
D18*
X165768200Y-90100400D02*
G75*
G03*
X165768200Y-90100400I-100000J0D01*
G01*
D17*
%TO.C,P4*%
X123457200Y-81066001D02*
X123457200Y-73512000D01*
X123457200Y-73512000D02*
X109203202Y-73512000D01*
X109203202Y-81066001D02*
X123457200Y-81066001D01*
X109203202Y-73512000D02*
X109203202Y-81066001D01*
D19*
X121947701Y-75057000D02*
G75*
G03*
X121947701Y-75057000I-317500J0D01*
G01*
D12*
%TO.C,C4*%
X140540800Y-96604200D02*
X140540800Y-97604200D01*
X141500800Y-97604200D02*
X141500800Y-96604200D01*
D15*
%TO.C,D3*%
X159715200Y-73888600D02*
X159715200Y-74650600D01*
X159740600Y-74269600D02*
X159334200Y-74269600D01*
X160197800Y-73888600D02*
X159715200Y-74269600D01*
X160197800Y-73888600D02*
X160197800Y-74599800D01*
X160197800Y-74599800D02*
X159715200Y-74269600D01*
X160655000Y-74269600D02*
X160248600Y-74269600D01*
D18*
%TO.C,Y1*%
X127352200Y-84640000D02*
G75*
G03*
X127352200Y-84640000I-100000J0D01*
G01*
D12*
%TO.C,C16*%
X124635200Y-97858200D02*
X124635200Y-96858200D01*
X123675200Y-96858200D02*
X123675200Y-97858200D01*
%TO.C,C8*%
X128617600Y-89385200D02*
X127617600Y-89385200D01*
X127617600Y-90345200D02*
X128617600Y-90345200D01*
D17*
%TO.C,Q5*%
X123868000Y-90917400D02*
X123868000Y-91923251D01*
X124536860Y-90917400D02*
X123868000Y-90917400D01*
X124953139Y-92521400D02*
X125236861Y-92521400D01*
X126322000Y-90917400D02*
X125653140Y-90917400D01*
X126322000Y-91923251D02*
X126322000Y-90917400D01*
%TD*%
M02*
