%TF.GenerationSoftware,KiCad,Pcbnew,7.0.1*%
%TF.CreationDate,2023-06-15T13:01:31-07:00*%
%TF.ProjectId,Full-Flight-Computer,46756c6c-2d46-46c6-9967-68742d436f6d,1.0*%
%TF.SameCoordinates,Original*%
%TF.FileFunction,Legend,Bot*%
%TF.FilePolarity,Positive*%
%FSLAX46Y46*%
G04 Gerber Fmt 4.6, Leading zero omitted, Abs format (unit mm)*
G04 Created by KiCad (PCBNEW 7.0.1) date 2023-06-15 13:01:31*
%MOMM*%
%LPD*%
G01*
G04 APERTURE LIST*
%ADD10C,0.150000*%
G04 APERTURE END LIST*
D10*
X118400285Y-74166064D02*
X118884095Y-74166064D01*
X118303523Y-73875779D02*
X118642190Y-74891779D01*
X118642190Y-74891779D02*
X118980857Y-73875779D01*
X119319523Y-74891779D02*
X119319523Y-74069302D01*
X119319523Y-74069302D02*
X119367904Y-73972540D01*
X119367904Y-73972540D02*
X119416285Y-73924160D01*
X119416285Y-73924160D02*
X119513047Y-73875779D01*
X119513047Y-73875779D02*
X119706571Y-73875779D01*
X119706571Y-73875779D02*
X119803333Y-73924160D01*
X119803333Y-73924160D02*
X119851714Y-73972540D01*
X119851714Y-73972540D02*
X119900095Y-74069302D01*
X119900095Y-74069302D02*
X119900095Y-74891779D01*
X120287142Y-74891779D02*
X120964476Y-73875779D01*
X120964476Y-74891779D02*
X120287142Y-73875779D01*
X121883714Y-73875779D02*
X121303142Y-73875779D01*
X121593428Y-73875779D02*
X121593428Y-74891779D01*
X121593428Y-74891779D02*
X121496666Y-74746636D01*
X121496666Y-74746636D02*
X121399904Y-74649874D01*
X121399904Y-74649874D02*
X121303142Y-74601493D01*
X111085085Y-74242264D02*
X111568895Y-74242264D01*
X110988323Y-73951979D02*
X111326990Y-74967979D01*
X111326990Y-74967979D02*
X111665657Y-73951979D01*
X112004323Y-74967979D02*
X112004323Y-74145502D01*
X112004323Y-74145502D02*
X112052704Y-74048740D01*
X112052704Y-74048740D02*
X112101085Y-74000360D01*
X112101085Y-74000360D02*
X112197847Y-73951979D01*
X112197847Y-73951979D02*
X112391371Y-73951979D01*
X112391371Y-73951979D02*
X112488133Y-74000360D01*
X112488133Y-74000360D02*
X112536514Y-74048740D01*
X112536514Y-74048740D02*
X112584895Y-74145502D01*
X112584895Y-74145502D02*
X112584895Y-74967979D01*
X112971942Y-74967979D02*
X113649276Y-73951979D01*
X113649276Y-74967979D02*
X112971942Y-73951979D01*
X113987942Y-74871217D02*
X114036323Y-74919598D01*
X114036323Y-74919598D02*
X114133085Y-74967979D01*
X114133085Y-74967979D02*
X114374990Y-74967979D01*
X114374990Y-74967979D02*
X114471752Y-74919598D01*
X114471752Y-74919598D02*
X114520133Y-74871217D01*
X114520133Y-74871217D02*
X114568514Y-74774455D01*
X114568514Y-74774455D02*
X114568514Y-74677693D01*
X114568514Y-74677693D02*
X114520133Y-74532550D01*
X114520133Y-74532550D02*
X113939561Y-73951979D01*
X113939561Y-73951979D02*
X114568514Y-73951979D01*
X120724990Y-99250620D02*
X120724990Y-98234620D01*
X120724990Y-98234620D02*
X120386323Y-98960335D01*
X120386323Y-98960335D02*
X120047656Y-98234620D01*
X120047656Y-98234620D02*
X120047656Y-99250620D01*
X119612228Y-98960335D02*
X119128418Y-98960335D01*
X119708990Y-99250620D02*
X119370323Y-98234620D01*
X119370323Y-98234620D02*
X119031656Y-99250620D01*
X118692990Y-99250620D02*
X118692990Y-98234620D01*
X118209180Y-99250620D02*
X118209180Y-98234620D01*
X118209180Y-98234620D02*
X117628608Y-99250620D01*
X117628608Y-99250620D02*
X117628608Y-98234620D01*
X115074095Y-99250620D02*
X115074095Y-98234620D01*
X115074095Y-98234620D02*
X114832190Y-98234620D01*
X114832190Y-98234620D02*
X114687047Y-98283001D01*
X114687047Y-98283001D02*
X114590285Y-98379763D01*
X114590285Y-98379763D02*
X114541904Y-98476525D01*
X114541904Y-98476525D02*
X114493523Y-98670049D01*
X114493523Y-98670049D02*
X114493523Y-98815192D01*
X114493523Y-98815192D02*
X114541904Y-99008716D01*
X114541904Y-99008716D02*
X114590285Y-99105478D01*
X114590285Y-99105478D02*
X114687047Y-99202240D01*
X114687047Y-99202240D02*
X114832190Y-99250620D01*
X114832190Y-99250620D02*
X115074095Y-99250620D01*
X113477523Y-99250620D02*
X113816190Y-98766811D01*
X114058095Y-99250620D02*
X114058095Y-98234620D01*
X114058095Y-98234620D02*
X113671047Y-98234620D01*
X113671047Y-98234620D02*
X113574285Y-98283001D01*
X113574285Y-98283001D02*
X113525904Y-98331382D01*
X113525904Y-98331382D02*
X113477523Y-98428144D01*
X113477523Y-98428144D02*
X113477523Y-98573287D01*
X113477523Y-98573287D02*
X113525904Y-98670049D01*
X113525904Y-98670049D02*
X113574285Y-98718430D01*
X113574285Y-98718430D02*
X113671047Y-98766811D01*
X113671047Y-98766811D02*
X114058095Y-98766811D01*
X112848571Y-98234620D02*
X112655047Y-98234620D01*
X112655047Y-98234620D02*
X112558285Y-98283001D01*
X112558285Y-98283001D02*
X112461523Y-98379763D01*
X112461523Y-98379763D02*
X112413142Y-98573287D01*
X112413142Y-98573287D02*
X112413142Y-98911954D01*
X112413142Y-98911954D02*
X112461523Y-99105478D01*
X112461523Y-99105478D02*
X112558285Y-99202240D01*
X112558285Y-99202240D02*
X112655047Y-99250620D01*
X112655047Y-99250620D02*
X112848571Y-99250620D01*
X112848571Y-99250620D02*
X112945333Y-99202240D01*
X112945333Y-99202240D02*
X113042095Y-99105478D01*
X113042095Y-99105478D02*
X113090476Y-98911954D01*
X113090476Y-98911954D02*
X113090476Y-98573287D01*
X113090476Y-98573287D02*
X113042095Y-98379763D01*
X113042095Y-98379763D02*
X112945333Y-98283001D01*
X112945333Y-98283001D02*
X112848571Y-98234620D01*
X111445523Y-98283001D02*
X111542285Y-98234620D01*
X111542285Y-98234620D02*
X111687428Y-98234620D01*
X111687428Y-98234620D02*
X111832571Y-98283001D01*
X111832571Y-98283001D02*
X111929333Y-98379763D01*
X111929333Y-98379763D02*
X111977714Y-98476525D01*
X111977714Y-98476525D02*
X112026095Y-98670049D01*
X112026095Y-98670049D02*
X112026095Y-98815192D01*
X112026095Y-98815192D02*
X111977714Y-99008716D01*
X111977714Y-99008716D02*
X111929333Y-99105478D01*
X111929333Y-99105478D02*
X111832571Y-99202240D01*
X111832571Y-99202240D02*
X111687428Y-99250620D01*
X111687428Y-99250620D02*
X111590666Y-99250620D01*
X111590666Y-99250620D02*
X111445523Y-99202240D01*
X111445523Y-99202240D02*
X111397142Y-99153859D01*
X111397142Y-99153859D02*
X111397142Y-98815192D01*
X111397142Y-98815192D02*
X111590666Y-98815192D01*
X110961714Y-98234620D02*
X110961714Y-99057097D01*
X110961714Y-99057097D02*
X110913333Y-99153859D01*
X110913333Y-99153859D02*
X110864952Y-99202240D01*
X110864952Y-99202240D02*
X110768190Y-99250620D01*
X110768190Y-99250620D02*
X110574666Y-99250620D01*
X110574666Y-99250620D02*
X110477904Y-99202240D01*
X110477904Y-99202240D02*
X110429523Y-99153859D01*
X110429523Y-99153859D02*
X110381142Y-99057097D01*
X110381142Y-99057097D02*
X110381142Y-98234620D01*
X109897333Y-98718430D02*
X109558666Y-98718430D01*
X109413523Y-99250620D02*
X109897333Y-99250620D01*
X109897333Y-99250620D02*
X109897333Y-98234620D01*
X109897333Y-98234620D02*
X109413523Y-98234620D01*
X95463360Y-84861400D02*
X95414979Y-84716257D01*
X95414979Y-84716257D02*
X95414979Y-84474352D01*
X95414979Y-84474352D02*
X95463360Y-84377590D01*
X95463360Y-84377590D02*
X95511740Y-84329209D01*
X95511740Y-84329209D02*
X95608502Y-84280828D01*
X95608502Y-84280828D02*
X95705264Y-84280828D01*
X95705264Y-84280828D02*
X95802026Y-84329209D01*
X95802026Y-84329209D02*
X95850407Y-84377590D01*
X95850407Y-84377590D02*
X95898788Y-84474352D01*
X95898788Y-84474352D02*
X95947169Y-84667876D01*
X95947169Y-84667876D02*
X95995550Y-84764638D01*
X95995550Y-84764638D02*
X96043931Y-84813019D01*
X96043931Y-84813019D02*
X96140693Y-84861400D01*
X96140693Y-84861400D02*
X96237455Y-84861400D01*
X96237455Y-84861400D02*
X96334217Y-84813019D01*
X96334217Y-84813019D02*
X96382598Y-84764638D01*
X96382598Y-84764638D02*
X96430979Y-84667876D01*
X96430979Y-84667876D02*
X96430979Y-84425971D01*
X96430979Y-84425971D02*
X96382598Y-84280828D01*
X96430979Y-83942162D02*
X95414979Y-83700257D01*
X95414979Y-83700257D02*
X96140693Y-83506733D01*
X96140693Y-83506733D02*
X95414979Y-83313209D01*
X95414979Y-83313209D02*
X96430979Y-83071305D01*
X95414979Y-82684257D02*
X96430979Y-82684257D01*
X96430979Y-82345590D02*
X96430979Y-81765018D01*
X95414979Y-82055304D02*
X96430979Y-82055304D01*
X95511740Y-80845780D02*
X95463360Y-80894161D01*
X95463360Y-80894161D02*
X95414979Y-81039304D01*
X95414979Y-81039304D02*
X95414979Y-81136066D01*
X95414979Y-81136066D02*
X95463360Y-81281209D01*
X95463360Y-81281209D02*
X95560121Y-81377971D01*
X95560121Y-81377971D02*
X95656883Y-81426352D01*
X95656883Y-81426352D02*
X95850407Y-81474733D01*
X95850407Y-81474733D02*
X95995550Y-81474733D01*
X95995550Y-81474733D02*
X96189074Y-81426352D01*
X96189074Y-81426352D02*
X96285836Y-81377971D01*
X96285836Y-81377971D02*
X96382598Y-81281209D01*
X96382598Y-81281209D02*
X96430979Y-81136066D01*
X96430979Y-81136066D02*
X96430979Y-81039304D01*
X96430979Y-81039304D02*
X96382598Y-80894161D01*
X96382598Y-80894161D02*
X96334217Y-80845780D01*
X95414979Y-80410352D02*
X96430979Y-80410352D01*
X95947169Y-80410352D02*
X95947169Y-79829780D01*
X95414979Y-79829780D02*
X96430979Y-79829780D01*
X95892786Y-86754045D02*
X95892786Y-85979950D01*
X96297447Y-93224773D02*
X95523352Y-93224773D01*
X95910399Y-93611820D02*
X95910399Y-92837725D01*
X105136647Y-100707613D02*
X104362552Y-100707613D01*
X159953476Y-97075655D02*
X159469666Y-97075655D01*
X160050238Y-97365940D02*
X159711571Y-96349940D01*
X159711571Y-96349940D02*
X159372904Y-97365940D01*
X158840714Y-96349940D02*
X158743952Y-96349940D01*
X158743952Y-96349940D02*
X158647190Y-96398321D01*
X158647190Y-96398321D02*
X158598809Y-96446702D01*
X158598809Y-96446702D02*
X158550428Y-96543464D01*
X158550428Y-96543464D02*
X158502047Y-96736988D01*
X158502047Y-96736988D02*
X158502047Y-96978893D01*
X158502047Y-96978893D02*
X158550428Y-97172417D01*
X158550428Y-97172417D02*
X158598809Y-97269179D01*
X158598809Y-97269179D02*
X158647190Y-97317560D01*
X158647190Y-97317560D02*
X158743952Y-97365940D01*
X158743952Y-97365940D02*
X158840714Y-97365940D01*
X158840714Y-97365940D02*
X158937476Y-97317560D01*
X158937476Y-97317560D02*
X158985857Y-97269179D01*
X158985857Y-97269179D02*
X159034238Y-97172417D01*
X159034238Y-97172417D02*
X159082619Y-96978893D01*
X159082619Y-96978893D02*
X159082619Y-96736988D01*
X159082619Y-96736988D02*
X159034238Y-96543464D01*
X159034238Y-96543464D02*
X158985857Y-96446702D01*
X158985857Y-96446702D02*
X158937476Y-96398321D01*
X158937476Y-96398321D02*
X158840714Y-96349940D01*
X157873095Y-96349940D02*
X157776333Y-96349940D01*
X157776333Y-96349940D02*
X157679571Y-96398321D01*
X157679571Y-96398321D02*
X157631190Y-96446702D01*
X157631190Y-96446702D02*
X157582809Y-96543464D01*
X157582809Y-96543464D02*
X157534428Y-96736988D01*
X157534428Y-96736988D02*
X157534428Y-96978893D01*
X157534428Y-96978893D02*
X157582809Y-97172417D01*
X157582809Y-97172417D02*
X157631190Y-97269179D01*
X157631190Y-97269179D02*
X157679571Y-97317560D01*
X157679571Y-97317560D02*
X157776333Y-97365940D01*
X157776333Y-97365940D02*
X157873095Y-97365940D01*
X157873095Y-97365940D02*
X157969857Y-97317560D01*
X157969857Y-97317560D02*
X158018238Y-97269179D01*
X158018238Y-97269179D02*
X158066619Y-97172417D01*
X158066619Y-97172417D02*
X158115000Y-96978893D01*
X158115000Y-96978893D02*
X158115000Y-96736988D01*
X158115000Y-96736988D02*
X158066619Y-96543464D01*
X158066619Y-96543464D02*
X158018238Y-96446702D01*
X158018238Y-96446702D02*
X157969857Y-96398321D01*
X157969857Y-96398321D02*
X157873095Y-96349940D01*
X156905476Y-96349940D02*
X156808714Y-96349940D01*
X156808714Y-96349940D02*
X156711952Y-96398321D01*
X156711952Y-96398321D02*
X156663571Y-96446702D01*
X156663571Y-96446702D02*
X156615190Y-96543464D01*
X156615190Y-96543464D02*
X156566809Y-96736988D01*
X156566809Y-96736988D02*
X156566809Y-96978893D01*
X156566809Y-96978893D02*
X156615190Y-97172417D01*
X156615190Y-97172417D02*
X156663571Y-97269179D01*
X156663571Y-97269179D02*
X156711952Y-97317560D01*
X156711952Y-97317560D02*
X156808714Y-97365940D01*
X156808714Y-97365940D02*
X156905476Y-97365940D01*
X156905476Y-97365940D02*
X157002238Y-97317560D01*
X157002238Y-97317560D02*
X157050619Y-97269179D01*
X157050619Y-97269179D02*
X157099000Y-97172417D01*
X157099000Y-97172417D02*
X157147381Y-96978893D01*
X157147381Y-96978893D02*
X157147381Y-96736988D01*
X157147381Y-96736988D02*
X157099000Y-96543464D01*
X157099000Y-96543464D02*
X157050619Y-96446702D01*
X157050619Y-96446702D02*
X157002238Y-96398321D01*
X157002238Y-96398321D02*
X156905476Y-96349940D01*
X156179762Y-96446702D02*
X156131381Y-96398321D01*
X156131381Y-96398321D02*
X156034619Y-96349940D01*
X156034619Y-96349940D02*
X155792714Y-96349940D01*
X155792714Y-96349940D02*
X155695952Y-96398321D01*
X155695952Y-96398321D02*
X155647571Y-96446702D01*
X155647571Y-96446702D02*
X155599190Y-96543464D01*
X155599190Y-96543464D02*
X155599190Y-96640226D01*
X155599190Y-96640226D02*
X155647571Y-96785369D01*
X155647571Y-96785369D02*
X156228143Y-97365940D01*
X156228143Y-97365940D02*
X155599190Y-97365940D01*
X153809095Y-97365940D02*
X154147762Y-96882131D01*
X154389667Y-97365940D02*
X154389667Y-96349940D01*
X154389667Y-96349940D02*
X154002619Y-96349940D01*
X154002619Y-96349940D02*
X153905857Y-96398321D01*
X153905857Y-96398321D02*
X153857476Y-96446702D01*
X153857476Y-96446702D02*
X153809095Y-96543464D01*
X153809095Y-96543464D02*
X153809095Y-96688607D01*
X153809095Y-96688607D02*
X153857476Y-96785369D01*
X153857476Y-96785369D02*
X153905857Y-96833750D01*
X153905857Y-96833750D02*
X154002619Y-96882131D01*
X154002619Y-96882131D02*
X154389667Y-96882131D01*
X152986619Y-97317560D02*
X153083381Y-97365940D01*
X153083381Y-97365940D02*
X153276905Y-97365940D01*
X153276905Y-97365940D02*
X153373667Y-97317560D01*
X153373667Y-97317560D02*
X153422048Y-97220798D01*
X153422048Y-97220798D02*
X153422048Y-96833750D01*
X153422048Y-96833750D02*
X153373667Y-96736988D01*
X153373667Y-96736988D02*
X153276905Y-96688607D01*
X153276905Y-96688607D02*
X153083381Y-96688607D01*
X153083381Y-96688607D02*
X152986619Y-96736988D01*
X152986619Y-96736988D02*
X152938238Y-96833750D01*
X152938238Y-96833750D02*
X152938238Y-96930512D01*
X152938238Y-96930512D02*
X153422048Y-97027274D01*
X152599572Y-96688607D02*
X152357667Y-97365940D01*
X152357667Y-97365940D02*
X152115762Y-96688607D01*
X151003001Y-96446702D02*
X150954620Y-96398321D01*
X150954620Y-96398321D02*
X150857858Y-96349940D01*
X150857858Y-96349940D02*
X150615953Y-96349940D01*
X150615953Y-96349940D02*
X150519191Y-96398321D01*
X150519191Y-96398321D02*
X150470810Y-96446702D01*
X150470810Y-96446702D02*
X150422429Y-96543464D01*
X150422429Y-96543464D02*
X150422429Y-96640226D01*
X150422429Y-96640226D02*
X150470810Y-96785369D01*
X150470810Y-96785369D02*
X151051382Y-97365940D01*
X151051382Y-97365940D02*
X150422429Y-97365940D01*
X149987001Y-97269179D02*
X149938620Y-97317560D01*
X149938620Y-97317560D02*
X149987001Y-97365940D01*
X149987001Y-97365940D02*
X150035382Y-97317560D01*
X150035382Y-97317560D02*
X149987001Y-97269179D01*
X149987001Y-97269179D02*
X149987001Y-97365940D01*
X149309667Y-96349940D02*
X149212905Y-96349940D01*
X149212905Y-96349940D02*
X149116143Y-96398321D01*
X149116143Y-96398321D02*
X149067762Y-96446702D01*
X149067762Y-96446702D02*
X149019381Y-96543464D01*
X149019381Y-96543464D02*
X148971000Y-96736988D01*
X148971000Y-96736988D02*
X148971000Y-96978893D01*
X148971000Y-96978893D02*
X149019381Y-97172417D01*
X149019381Y-97172417D02*
X149067762Y-97269179D01*
X149067762Y-97269179D02*
X149116143Y-97317560D01*
X149116143Y-97317560D02*
X149212905Y-97365940D01*
X149212905Y-97365940D02*
X149309667Y-97365940D01*
X149309667Y-97365940D02*
X149406429Y-97317560D01*
X149406429Y-97317560D02*
X149454810Y-97269179D01*
X149454810Y-97269179D02*
X149503191Y-97172417D01*
X149503191Y-97172417D02*
X149551572Y-96978893D01*
X149551572Y-96978893D02*
X149551572Y-96736988D01*
X149551572Y-96736988D02*
X149503191Y-96543464D01*
X149503191Y-96543464D02*
X149454810Y-96446702D01*
X149454810Y-96446702D02*
X149406429Y-96398321D01*
X149406429Y-96398321D02*
X149309667Y-96349940D01*
X159566428Y-98479670D02*
X159905095Y-98479670D01*
X159905095Y-99011860D02*
X159905095Y-97995860D01*
X159905095Y-97995860D02*
X159421285Y-97995860D01*
X158598809Y-98334527D02*
X158598809Y-99011860D01*
X159034238Y-98334527D02*
X159034238Y-98866718D01*
X159034238Y-98866718D02*
X158985857Y-98963480D01*
X158985857Y-98963480D02*
X158889095Y-99011860D01*
X158889095Y-99011860D02*
X158743952Y-99011860D01*
X158743952Y-99011860D02*
X158647190Y-98963480D01*
X158647190Y-98963480D02*
X158598809Y-98915099D01*
X157969857Y-99011860D02*
X158066619Y-98963480D01*
X158066619Y-98963480D02*
X158115000Y-98866718D01*
X158115000Y-98866718D02*
X158115000Y-97995860D01*
X157437667Y-99011860D02*
X157534429Y-98963480D01*
X157534429Y-98963480D02*
X157582810Y-98866718D01*
X157582810Y-98866718D02*
X157582810Y-97995860D01*
X157050620Y-98624813D02*
X156276525Y-98624813D01*
X155454048Y-98479670D02*
X155792715Y-98479670D01*
X155792715Y-99011860D02*
X155792715Y-97995860D01*
X155792715Y-97995860D02*
X155308905Y-97995860D01*
X154534810Y-98963480D02*
X154631572Y-99011860D01*
X154631572Y-99011860D02*
X154825096Y-99011860D01*
X154825096Y-99011860D02*
X154921858Y-98963480D01*
X154921858Y-98963480D02*
X154970239Y-98866718D01*
X154970239Y-98866718D02*
X154970239Y-98479670D01*
X154970239Y-98479670D02*
X154921858Y-98382908D01*
X154921858Y-98382908D02*
X154825096Y-98334527D01*
X154825096Y-98334527D02*
X154631572Y-98334527D01*
X154631572Y-98334527D02*
X154534810Y-98382908D01*
X154534810Y-98382908D02*
X154486429Y-98479670D01*
X154486429Y-98479670D02*
X154486429Y-98576432D01*
X154486429Y-98576432D02*
X154970239Y-98673194D01*
X153615572Y-99011860D02*
X153615572Y-98479670D01*
X153615572Y-98479670D02*
X153663953Y-98382908D01*
X153663953Y-98382908D02*
X153760715Y-98334527D01*
X153760715Y-98334527D02*
X153954239Y-98334527D01*
X153954239Y-98334527D02*
X154051001Y-98382908D01*
X153615572Y-98963480D02*
X153712334Y-99011860D01*
X153712334Y-99011860D02*
X153954239Y-99011860D01*
X153954239Y-99011860D02*
X154051001Y-98963480D01*
X154051001Y-98963480D02*
X154099382Y-98866718D01*
X154099382Y-98866718D02*
X154099382Y-98769956D01*
X154099382Y-98769956D02*
X154051001Y-98673194D01*
X154051001Y-98673194D02*
X153954239Y-98624813D01*
X153954239Y-98624813D02*
X153712334Y-98624813D01*
X153712334Y-98624813D02*
X153615572Y-98576432D01*
X153276906Y-98334527D02*
X152889858Y-98334527D01*
X153131763Y-97995860D02*
X153131763Y-98866718D01*
X153131763Y-98866718D02*
X153083382Y-98963480D01*
X153083382Y-98963480D02*
X152986620Y-99011860D01*
X152986620Y-99011860D02*
X152889858Y-99011860D01*
X152115763Y-98334527D02*
X152115763Y-99011860D01*
X152551192Y-98334527D02*
X152551192Y-98866718D01*
X152551192Y-98866718D02*
X152502811Y-98963480D01*
X152502811Y-98963480D02*
X152406049Y-99011860D01*
X152406049Y-99011860D02*
X152260906Y-99011860D01*
X152260906Y-99011860D02*
X152164144Y-98963480D01*
X152164144Y-98963480D02*
X152115763Y-98915099D01*
X151631954Y-99011860D02*
X151631954Y-98334527D01*
X151631954Y-98528051D02*
X151583573Y-98431289D01*
X151583573Y-98431289D02*
X151535192Y-98382908D01*
X151535192Y-98382908D02*
X151438430Y-98334527D01*
X151438430Y-98334527D02*
X151341668Y-98334527D01*
X150615954Y-98963480D02*
X150712716Y-99011860D01*
X150712716Y-99011860D02*
X150906240Y-99011860D01*
X150906240Y-99011860D02*
X151003002Y-98963480D01*
X151003002Y-98963480D02*
X151051383Y-98866718D01*
X151051383Y-98866718D02*
X151051383Y-98479670D01*
X151051383Y-98479670D02*
X151003002Y-98382908D01*
X151003002Y-98382908D02*
X150906240Y-98334527D01*
X150906240Y-98334527D02*
X150712716Y-98334527D01*
X150712716Y-98334527D02*
X150615954Y-98382908D01*
X150615954Y-98382908D02*
X150567573Y-98479670D01*
X150567573Y-98479670D02*
X150567573Y-98576432D01*
X150567573Y-98576432D02*
X151051383Y-98673194D01*
X149019383Y-98479670D02*
X149358050Y-98479670D01*
X149358050Y-99011860D02*
X149358050Y-97995860D01*
X149358050Y-97995860D02*
X148874240Y-97995860D01*
X148342050Y-99011860D02*
X148438812Y-98963480D01*
X148438812Y-98963480D02*
X148487193Y-98866718D01*
X148487193Y-98866718D02*
X148487193Y-97995860D01*
X147955003Y-99011860D02*
X147955003Y-98334527D01*
X147955003Y-97995860D02*
X148003384Y-98044241D01*
X148003384Y-98044241D02*
X147955003Y-98092622D01*
X147955003Y-98092622D02*
X147906622Y-98044241D01*
X147906622Y-98044241D02*
X147955003Y-97995860D01*
X147955003Y-97995860D02*
X147955003Y-98092622D01*
X147035764Y-98334527D02*
X147035764Y-99157003D01*
X147035764Y-99157003D02*
X147084145Y-99253765D01*
X147084145Y-99253765D02*
X147132526Y-99302146D01*
X147132526Y-99302146D02*
X147229288Y-99350527D01*
X147229288Y-99350527D02*
X147374431Y-99350527D01*
X147374431Y-99350527D02*
X147471193Y-99302146D01*
X147035764Y-98963480D02*
X147132526Y-99011860D01*
X147132526Y-99011860D02*
X147326050Y-99011860D01*
X147326050Y-99011860D02*
X147422812Y-98963480D01*
X147422812Y-98963480D02*
X147471193Y-98915099D01*
X147471193Y-98915099D02*
X147519574Y-98818337D01*
X147519574Y-98818337D02*
X147519574Y-98528051D01*
X147519574Y-98528051D02*
X147471193Y-98431289D01*
X147471193Y-98431289D02*
X147422812Y-98382908D01*
X147422812Y-98382908D02*
X147326050Y-98334527D01*
X147326050Y-98334527D02*
X147132526Y-98334527D01*
X147132526Y-98334527D02*
X147035764Y-98382908D01*
X146551955Y-99011860D02*
X146551955Y-97995860D01*
X146116526Y-99011860D02*
X146116526Y-98479670D01*
X146116526Y-98479670D02*
X146164907Y-98382908D01*
X146164907Y-98382908D02*
X146261669Y-98334527D01*
X146261669Y-98334527D02*
X146406812Y-98334527D01*
X146406812Y-98334527D02*
X146503574Y-98382908D01*
X146503574Y-98382908D02*
X146551955Y-98431289D01*
X145777860Y-98334527D02*
X145390812Y-98334527D01*
X145632717Y-97995860D02*
X145632717Y-98866718D01*
X145632717Y-98866718D02*
X145584336Y-98963480D01*
X145584336Y-98963480D02*
X145487574Y-99011860D01*
X145487574Y-99011860D02*
X145390812Y-99011860D01*
X143697479Y-98915099D02*
X143745860Y-98963480D01*
X143745860Y-98963480D02*
X143891003Y-99011860D01*
X143891003Y-99011860D02*
X143987765Y-99011860D01*
X143987765Y-99011860D02*
X144132908Y-98963480D01*
X144132908Y-98963480D02*
X144229670Y-98866718D01*
X144229670Y-98866718D02*
X144278051Y-98769956D01*
X144278051Y-98769956D02*
X144326432Y-98576432D01*
X144326432Y-98576432D02*
X144326432Y-98431289D01*
X144326432Y-98431289D02*
X144278051Y-98237765D01*
X144278051Y-98237765D02*
X144229670Y-98141003D01*
X144229670Y-98141003D02*
X144132908Y-98044241D01*
X144132908Y-98044241D02*
X143987765Y-97995860D01*
X143987765Y-97995860D02*
X143891003Y-97995860D01*
X143891003Y-97995860D02*
X143745860Y-98044241D01*
X143745860Y-98044241D02*
X143697479Y-98092622D01*
X143116908Y-99011860D02*
X143213670Y-98963480D01*
X143213670Y-98963480D02*
X143262051Y-98915099D01*
X143262051Y-98915099D02*
X143310432Y-98818337D01*
X143310432Y-98818337D02*
X143310432Y-98528051D01*
X143310432Y-98528051D02*
X143262051Y-98431289D01*
X143262051Y-98431289D02*
X143213670Y-98382908D01*
X143213670Y-98382908D02*
X143116908Y-98334527D01*
X143116908Y-98334527D02*
X142971765Y-98334527D01*
X142971765Y-98334527D02*
X142875003Y-98382908D01*
X142875003Y-98382908D02*
X142826622Y-98431289D01*
X142826622Y-98431289D02*
X142778241Y-98528051D01*
X142778241Y-98528051D02*
X142778241Y-98818337D01*
X142778241Y-98818337D02*
X142826622Y-98915099D01*
X142826622Y-98915099D02*
X142875003Y-98963480D01*
X142875003Y-98963480D02*
X142971765Y-99011860D01*
X142971765Y-99011860D02*
X143116908Y-99011860D01*
X142342813Y-99011860D02*
X142342813Y-98334527D01*
X142342813Y-98431289D02*
X142294432Y-98382908D01*
X142294432Y-98382908D02*
X142197670Y-98334527D01*
X142197670Y-98334527D02*
X142052527Y-98334527D01*
X142052527Y-98334527D02*
X141955765Y-98382908D01*
X141955765Y-98382908D02*
X141907384Y-98479670D01*
X141907384Y-98479670D02*
X141907384Y-99011860D01*
X141907384Y-98479670D02*
X141859003Y-98382908D01*
X141859003Y-98382908D02*
X141762241Y-98334527D01*
X141762241Y-98334527D02*
X141617098Y-98334527D01*
X141617098Y-98334527D02*
X141520337Y-98382908D01*
X141520337Y-98382908D02*
X141471956Y-98479670D01*
X141471956Y-98479670D02*
X141471956Y-99011860D01*
X140988146Y-98334527D02*
X140988146Y-99350527D01*
X140988146Y-98382908D02*
X140891384Y-98334527D01*
X140891384Y-98334527D02*
X140697860Y-98334527D01*
X140697860Y-98334527D02*
X140601098Y-98382908D01*
X140601098Y-98382908D02*
X140552717Y-98431289D01*
X140552717Y-98431289D02*
X140504336Y-98528051D01*
X140504336Y-98528051D02*
X140504336Y-98818337D01*
X140504336Y-98818337D02*
X140552717Y-98915099D01*
X140552717Y-98915099D02*
X140601098Y-98963480D01*
X140601098Y-98963480D02*
X140697860Y-99011860D01*
X140697860Y-99011860D02*
X140891384Y-99011860D01*
X140891384Y-99011860D02*
X140988146Y-98963480D01*
X139633479Y-98334527D02*
X139633479Y-99011860D01*
X140068908Y-98334527D02*
X140068908Y-98866718D01*
X140068908Y-98866718D02*
X140020527Y-98963480D01*
X140020527Y-98963480D02*
X139923765Y-99011860D01*
X139923765Y-99011860D02*
X139778622Y-99011860D01*
X139778622Y-99011860D02*
X139681860Y-98963480D01*
X139681860Y-98963480D02*
X139633479Y-98915099D01*
X139294813Y-98334527D02*
X138907765Y-98334527D01*
X139149670Y-97995860D02*
X139149670Y-98866718D01*
X139149670Y-98866718D02*
X139101289Y-98963480D01*
X139101289Y-98963480D02*
X139004527Y-99011860D01*
X139004527Y-99011860D02*
X138907765Y-99011860D01*
X138182051Y-98963480D02*
X138278813Y-99011860D01*
X138278813Y-99011860D02*
X138472337Y-99011860D01*
X138472337Y-99011860D02*
X138569099Y-98963480D01*
X138569099Y-98963480D02*
X138617480Y-98866718D01*
X138617480Y-98866718D02*
X138617480Y-98479670D01*
X138617480Y-98479670D02*
X138569099Y-98382908D01*
X138569099Y-98382908D02*
X138472337Y-98334527D01*
X138472337Y-98334527D02*
X138278813Y-98334527D01*
X138278813Y-98334527D02*
X138182051Y-98382908D01*
X138182051Y-98382908D02*
X138133670Y-98479670D01*
X138133670Y-98479670D02*
X138133670Y-98576432D01*
X138133670Y-98576432D02*
X138617480Y-98673194D01*
X137698242Y-99011860D02*
X137698242Y-98334527D01*
X137698242Y-98528051D02*
X137649861Y-98431289D01*
X137649861Y-98431289D02*
X137601480Y-98382908D01*
X137601480Y-98382908D02*
X137504718Y-98334527D01*
X137504718Y-98334527D02*
X137407956Y-98334527D01*
X160050238Y-99641780D02*
X159469666Y-99641780D01*
X159759952Y-100657780D02*
X159759952Y-99641780D01*
X158743952Y-100609400D02*
X158840714Y-100657780D01*
X158840714Y-100657780D02*
X159034238Y-100657780D01*
X159034238Y-100657780D02*
X159131000Y-100609400D01*
X159131000Y-100609400D02*
X159179381Y-100512638D01*
X159179381Y-100512638D02*
X159179381Y-100125590D01*
X159179381Y-100125590D02*
X159131000Y-100028828D01*
X159131000Y-100028828D02*
X159034238Y-99980447D01*
X159034238Y-99980447D02*
X158840714Y-99980447D01*
X158840714Y-99980447D02*
X158743952Y-100028828D01*
X158743952Y-100028828D02*
X158695571Y-100125590D01*
X158695571Y-100125590D02*
X158695571Y-100222352D01*
X158695571Y-100222352D02*
X159179381Y-100319114D01*
X158308524Y-100609400D02*
X158211762Y-100657780D01*
X158211762Y-100657780D02*
X158018238Y-100657780D01*
X158018238Y-100657780D02*
X157921476Y-100609400D01*
X157921476Y-100609400D02*
X157873095Y-100512638D01*
X157873095Y-100512638D02*
X157873095Y-100464257D01*
X157873095Y-100464257D02*
X157921476Y-100367495D01*
X157921476Y-100367495D02*
X158018238Y-100319114D01*
X158018238Y-100319114D02*
X158163381Y-100319114D01*
X158163381Y-100319114D02*
X158260143Y-100270733D01*
X158260143Y-100270733D02*
X158308524Y-100173971D01*
X158308524Y-100173971D02*
X158308524Y-100125590D01*
X158308524Y-100125590D02*
X158260143Y-100028828D01*
X158260143Y-100028828D02*
X158163381Y-99980447D01*
X158163381Y-99980447D02*
X158018238Y-99980447D01*
X158018238Y-99980447D02*
X157921476Y-100028828D01*
X157582810Y-99980447D02*
X157195762Y-99980447D01*
X157437667Y-99641780D02*
X157437667Y-100512638D01*
X157437667Y-100512638D02*
X157389286Y-100609400D01*
X157389286Y-100609400D02*
X157292524Y-100657780D01*
X157292524Y-100657780D02*
X157195762Y-100657780D01*
X155744334Y-100125590D02*
X155599191Y-100173971D01*
X155599191Y-100173971D02*
X155550810Y-100222352D01*
X155550810Y-100222352D02*
X155502429Y-100319114D01*
X155502429Y-100319114D02*
X155502429Y-100464257D01*
X155502429Y-100464257D02*
X155550810Y-100561019D01*
X155550810Y-100561019D02*
X155599191Y-100609400D01*
X155599191Y-100609400D02*
X155695953Y-100657780D01*
X155695953Y-100657780D02*
X156083001Y-100657780D01*
X156083001Y-100657780D02*
X156083001Y-99641780D01*
X156083001Y-99641780D02*
X155744334Y-99641780D01*
X155744334Y-99641780D02*
X155647572Y-99690161D01*
X155647572Y-99690161D02*
X155599191Y-99738542D01*
X155599191Y-99738542D02*
X155550810Y-99835304D01*
X155550810Y-99835304D02*
X155550810Y-99932066D01*
X155550810Y-99932066D02*
X155599191Y-100028828D01*
X155599191Y-100028828D02*
X155647572Y-100077209D01*
X155647572Y-100077209D02*
X155744334Y-100125590D01*
X155744334Y-100125590D02*
X156083001Y-100125590D01*
X154921858Y-100657780D02*
X155018620Y-100609400D01*
X155018620Y-100609400D02*
X155067001Y-100561019D01*
X155067001Y-100561019D02*
X155115382Y-100464257D01*
X155115382Y-100464257D02*
X155115382Y-100173971D01*
X155115382Y-100173971D02*
X155067001Y-100077209D01*
X155067001Y-100077209D02*
X155018620Y-100028828D01*
X155018620Y-100028828D02*
X154921858Y-99980447D01*
X154921858Y-99980447D02*
X154776715Y-99980447D01*
X154776715Y-99980447D02*
X154679953Y-100028828D01*
X154679953Y-100028828D02*
X154631572Y-100077209D01*
X154631572Y-100077209D02*
X154583191Y-100173971D01*
X154583191Y-100173971D02*
X154583191Y-100464257D01*
X154583191Y-100464257D02*
X154631572Y-100561019D01*
X154631572Y-100561019D02*
X154679953Y-100609400D01*
X154679953Y-100609400D02*
X154776715Y-100657780D01*
X154776715Y-100657780D02*
X154921858Y-100657780D01*
X153712334Y-100657780D02*
X153712334Y-100125590D01*
X153712334Y-100125590D02*
X153760715Y-100028828D01*
X153760715Y-100028828D02*
X153857477Y-99980447D01*
X153857477Y-99980447D02*
X154051001Y-99980447D01*
X154051001Y-99980447D02*
X154147763Y-100028828D01*
X153712334Y-100609400D02*
X153809096Y-100657780D01*
X153809096Y-100657780D02*
X154051001Y-100657780D01*
X154051001Y-100657780D02*
X154147763Y-100609400D01*
X154147763Y-100609400D02*
X154196144Y-100512638D01*
X154196144Y-100512638D02*
X154196144Y-100415876D01*
X154196144Y-100415876D02*
X154147763Y-100319114D01*
X154147763Y-100319114D02*
X154051001Y-100270733D01*
X154051001Y-100270733D02*
X153809096Y-100270733D01*
X153809096Y-100270733D02*
X153712334Y-100222352D01*
X153228525Y-100657780D02*
X153228525Y-99980447D01*
X153228525Y-100173971D02*
X153180144Y-100077209D01*
X153180144Y-100077209D02*
X153131763Y-100028828D01*
X153131763Y-100028828D02*
X153035001Y-99980447D01*
X153035001Y-99980447D02*
X152938239Y-99980447D01*
X152164144Y-100657780D02*
X152164144Y-99641780D01*
X152164144Y-100609400D02*
X152260906Y-100657780D01*
X152260906Y-100657780D02*
X152454430Y-100657780D01*
X152454430Y-100657780D02*
X152551192Y-100609400D01*
X152551192Y-100609400D02*
X152599573Y-100561019D01*
X152599573Y-100561019D02*
X152647954Y-100464257D01*
X152647954Y-100464257D02*
X152647954Y-100173971D01*
X152647954Y-100173971D02*
X152599573Y-100077209D01*
X152599573Y-100077209D02*
X152551192Y-100028828D01*
X152551192Y-100028828D02*
X152454430Y-99980447D01*
X152454430Y-99980447D02*
X152260906Y-99980447D01*
X152260906Y-99980447D02*
X152164144Y-100028828D01*
X95364179Y-92135476D02*
X96380179Y-92135476D01*
X96380179Y-92135476D02*
X96380179Y-91748428D01*
X96380179Y-91748428D02*
X96331798Y-91651666D01*
X96331798Y-91651666D02*
X96283417Y-91603285D01*
X96283417Y-91603285D02*
X96186655Y-91554904D01*
X96186655Y-91554904D02*
X96041512Y-91554904D01*
X96041512Y-91554904D02*
X95944750Y-91603285D01*
X95944750Y-91603285D02*
X95896369Y-91651666D01*
X95896369Y-91651666D02*
X95847988Y-91748428D01*
X95847988Y-91748428D02*
X95847988Y-92135476D01*
X96380179Y-90925952D02*
X96380179Y-90732428D01*
X96380179Y-90732428D02*
X96331798Y-90635666D01*
X96331798Y-90635666D02*
X96235036Y-90538904D01*
X96235036Y-90538904D02*
X96041512Y-90490523D01*
X96041512Y-90490523D02*
X95702845Y-90490523D01*
X95702845Y-90490523D02*
X95509321Y-90538904D01*
X95509321Y-90538904D02*
X95412560Y-90635666D01*
X95412560Y-90635666D02*
X95364179Y-90732428D01*
X95364179Y-90732428D02*
X95364179Y-90925952D01*
X95364179Y-90925952D02*
X95412560Y-91022714D01*
X95412560Y-91022714D02*
X95509321Y-91119476D01*
X95509321Y-91119476D02*
X95702845Y-91167857D01*
X95702845Y-91167857D02*
X96041512Y-91167857D01*
X96041512Y-91167857D02*
X96235036Y-91119476D01*
X96235036Y-91119476D02*
X96331798Y-91022714D01*
X96331798Y-91022714D02*
X96380179Y-90925952D01*
X96380179Y-90151857D02*
X95364179Y-89909952D01*
X95364179Y-89909952D02*
X96089893Y-89716428D01*
X96089893Y-89716428D02*
X95364179Y-89522904D01*
X95364179Y-89522904D02*
X96380179Y-89281000D01*
X95896369Y-88893952D02*
X95896369Y-88555285D01*
X95364179Y-88410142D02*
X95364179Y-88893952D01*
X95364179Y-88893952D02*
X96380179Y-88893952D01*
X96380179Y-88893952D02*
X96380179Y-88410142D01*
X95364179Y-87394142D02*
X95847988Y-87732809D01*
X95364179Y-87974714D02*
X96380179Y-87974714D01*
X96380179Y-87974714D02*
X96380179Y-87587666D01*
X96380179Y-87587666D02*
X96331798Y-87490904D01*
X96331798Y-87490904D02*
X96283417Y-87442523D01*
X96283417Y-87442523D02*
X96186655Y-87394142D01*
X96186655Y-87394142D02*
X96041512Y-87394142D01*
X96041512Y-87394142D02*
X95944750Y-87442523D01*
X95944750Y-87442523D02*
X95896369Y-87490904D01*
X95896369Y-87490904D02*
X95847988Y-87587666D01*
X95847988Y-87587666D02*
X95847988Y-87974714D01*
X102761626Y-101047247D02*
X102761626Y-100273152D01*
X102374579Y-100660199D02*
X103148674Y-100660199D01*
M02*
