M48
; DRILL file {KiCad 7.0.1} date Thu Jun 15 13:01:36 2023
; FORMAT={-:-/ absolute / inch / decimal}
; #@! TF.CreationDate,2023-06-15T13:01:36-07:00
; #@! TF.GenerationSoftware,Kicad,Pcbnew,7.0.1
; #@! TF.FileFunction,Plated,1,4,PTH
FMAT,2
INCH
; #@! TA.AperFunction,Plated,PTH,ViaDrill
T1C0.0118
; #@! TA.AperFunction,Plated,PTH,ViaDrill
T2C0.0197
; #@! TA.AperFunction,Plated,PTH,ComponentDrill
T3C0.0197
; #@! TA.AperFunction,Plated,PTH,ComponentDrill
T4C0.0200
; #@! TA.AperFunction,Plated,PTH,ComponentDrill
T5C0.0217
; #@! TA.AperFunction,Plated,PTH,ComponentDrill
T6C0.0320
; #@! TA.AperFunction,Plated,PTH,ComponentDrill
T7C0.0354
; #@! TA.AperFunction,Plated,PTH,ComponentDrill
T8C0.0480
; #@! TA.AperFunction,Plated,PTH,ComponentDrill
T9C0.1285
%
G90
G05
T1
X3.924Y-3.663
X3.949Y-3.124
X4.243Y-3.441
X4.286Y-3.541
X4.427Y-3.278
X4.552Y-3.537
X4.673Y-3.279
X4.783Y-3.642
X4.821Y-3.37
X4.838Y-3.792
X4.847Y-3.935
X4.857Y-3.4
X4.906Y-3.01
X4.922Y-3.161
X4.927Y-2.906
X4.973Y-3.591
X4.9732Y-3.8742
X4.98Y-3.792
X4.995Y-3.097
X5.025Y-3.712
X5.038Y-3.01
X5.0415Y-3.2565
X5.048Y-3.214
X5.091Y-3.756
X5.121Y-3.048
X5.126Y-3.877
X5.141Y-3.922
X5.169Y-3.737
X5.1991Y-3.3549
X5.203Y-3.393
X5.211Y-3.005
X5.212Y-3.551
X5.22Y-3.842
X5.236Y-3.944
X5.247Y-3.17
X5.247Y-3.592
X5.25Y-3.657
X5.308Y-3.034
X5.311Y-3.658
X5.339Y-2.88
X5.348Y-2.948
X5.3738Y-3.8265
X5.384Y-3.364
X5.388Y-3.298
X5.513Y-3.045
X5.52Y-3.339
X5.57Y-3.597
X5.578Y-3.867
X5.647Y-3.53
X5.651Y-3.655
X5.726Y-3.732
X5.74Y-3.774
X5.747Y-3.141
X5.76Y-3.925
X5.776Y-3.696
X5.795Y-3.142
X5.814Y-3.039
X5.844Y-3.471
X5.887Y-3.504
X5.897Y-3.845
X5.929Y-3.382
X5.96Y-3.024
X5.963Y-3.076
X5.992Y-3.424
X6.018Y-3.024
X6.019Y-3.076
X6.039Y-3.718
X6.045Y-3.546
X6.0513Y-3.6063
X6.064Y-3.77
X6.152Y-3.055
X6.154Y-3.976
X6.17Y-3.367
X6.206Y-2.964
X6.211Y-3.014
X6.249Y-3.039
X6.2664Y-3.9256
X6.391Y-3.578
X6.396Y-3.645
X6.482Y-3.626
X6.501Y-3.52
T2
X4.023Y-3.107
X4.113Y-3.021
X4.154Y-3.719
X4.19Y-3.035
X4.228Y-3.208
X5.826Y-3.954
X5.9695Y-3.7455
X6.222Y-2.912
T4
X5.4181Y-2.916
X5.4674Y-2.916
X5.5166Y-2.916
X5.5658Y-2.916
X5.615Y-2.916
X5.6642Y-2.916
T6
X4.0476Y-3.9027
X4.1264Y-3.9027
T7
X5.9474Y-3.492
X6.2466Y-3.492
T8
X3.887Y-3.1916
X3.887Y-3.3294
X3.887Y-3.4672
X3.887Y-3.605
X4.3523Y-3.7809
X4.3752Y-3.035
X4.4901Y-3.7809
X4.513Y-3.035
X4.6279Y-3.7809
X4.6508Y-3.035
X4.7657Y-3.7809
X4.7886Y-3.035
T9
X3.795Y-3.865
X3.802Y-2.956
X6.459Y-3.863
X6.466Y-2.947
T3
G00X6.5237Y-3.1122
M15
G01X6.5493Y-3.1122
M16
G05
G00X6.5237Y-3.3878
M15
G01X6.5493Y-3.3878
M16
G05
T5
G00X6.4302Y-3.1575
M15
G01X6.4302Y-3.1457
M16
G05
G00X6.4302Y-3.3543
M15
G01X6.4302Y-3.3425
M16
G05
T0
M30
